<svg width="95" height="102" viewBox="0 0 95 102" fill="none" xmlns="http://www.w3.org/2000/svg">
<circle cx="47.4995" cy="50.5" r="47" stroke="#D9D9D9"/>
<path d="M47.4995 3.5C53.7188 3.5 59.8763 4.73435 65.6151 7.13151C71.3539 9.52868 76.5598 13.041 80.9312 17.4649C85.3026 21.8887 88.7526 27.1362 91.0811 32.9032C93.4096 38.6702 94.5704 44.842 94.4962 51.0608C94.4219 57.2797 92.465 65.2902 89.9995 71" stroke="#6CA8EE"/>
<circle cx="46.9995" cy="4" r="4" fill="#6CA8EE"/>
<circle cx="46.9995" cy="98" r="4" fill="#D9D9D9"/>
<circle cx="88.9995" cy="74" r="4" fill="#6CA8EE"/>
<circle cx="5.99951" cy="74" r="4" fill="#D9D9D9"/>
<circle cx="5.99951" cy="28" r="4" fill="#D9D9D9"/>
<circle cx="88.9995" cy="28" r="4" fill="#6CA8EE"/>
<path d="M31 50H63M63 50L53 40M63 50L53 60" stroke="#6CA8EE" stroke-width="2" stroke-linecap="round" stroke-linejoin="round"/>
</svg>
