<svg xmlns="http://www.w3.org/2000/svg" width="96" height="63" fill="none" viewBox="0 0 96 63"><rect width="96" height="63" x="0.000244141" fill="#DEE1E8" rx="31.5"/><path fill="white" d="M71.5587 38.7997C71.5587 44.3997 66.7548 45.7997 64.3529 45.7997H52.8235H41.294H39.1323C36.9705 45.7997 32.647 44.3997 32.647 38.7997C32.647 33.1997 38.4117 32.733 41.294 33.1997C41.0538 29.6997 42.8793 22.6996 52.1029 22.6996C61.3264 22.6996 63.1519 29.6997 62.9117 33.1997C65.794 32.733 71.5587 33.1997 71.5587 38.7997Z"/><path stroke="white" stroke-linecap="round" d="M62.9117 33.1997C65.794 32.733 71.5587 33.1997 71.5587 38.7997C71.5587 44.3997 66.7548 45.7997 64.3529 45.7997H52.8235M62.9117 33.1997C63.1519 29.6997 61.3264 22.6996 52.1029 22.6996C42.8793 22.6996 41.0538 29.6997 41.294 33.1997M62.9117 33.1997L52.8235 45.7997M41.294 33.1997C38.4117 32.733 32.647 33.1997 32.647 38.7997C32.647 44.3997 36.9705 45.7997 39.1323 45.7997H41.294H52.8235M41.294 33.1997L52.8235 45.7997M52.1029 17.7996C51.6225 16.6329 49.5088 13.5996 44.897 13.5996C40.2852 13.5996 35.5293 15.6996 34.8088 22.6996C32.647 22.4663 28.0352 22.9796 26.8823 26.8996C25.7293 30.8196 28.3235 33.1996 29.7646 33.8996"/><path stroke="#8AB4E4" stroke-linecap="round" d="M52.1029 17.8001C51.6225 16.6334 49.5088 13.6001 44.897 13.6001C40.2852 13.6001 35.5293 15.7001 34.8088 22.7001C32.647 22.4668 28.0352 22.9801 26.8823 26.9001C25.7293 30.8201 28.3235 33.2001 29.7646 33.9001"/></svg>