<svg width="96" height="103" viewBox="0 0 96 103" fill="none" xmlns="http://www.w3.org/2000/svg">
<circle cx="47.7979" cy="50.8003" r="47" stroke="#D9D9D9"/>
<path d="M47.7979 3.80029C54.0172 3.80029 60.1747 5.03464 65.9134 7.43181C71.6522 9.82897 76.8582 13.3413 81.2296 17.7652C85.601 22.189 89.0509 27.4365 91.3794 33.2035C93.7079 38.9705 94.8687 45.1423 94.7945 51.3611C94.7203 57.58 93.4126 63.7223 90.9471 69.4321C88.4816 75.1419 84.9074 80.3055 80.4317 84.6238C75.956 88.9421 70.6677 92.3292 64.8733 94.5887C59.079 96.8483 52.8938 97.9353 46.6763 97.7869" stroke="#6CA8EE"/>
<path d="M90.665 70.0729C88.1147 75.7453 84.464 80.8552 79.9244 85.1063C75.3848 89.3575 70.0467 92.6654 64.2193 94.8383C58.3919 97.0113 52.1912 98.006 45.9766 97.765C39.7619 97.524 33.6569 96.0519 28.0154 93.4341C22.3738 90.8164 17.3079 87.1049 13.1112 82.515C8.91454 77.925 5.67057 72.5477 3.56731 66.6948C1.46405 60.842 0.543331 54.6298 0.858508 48.4185C1.17368 42.2072 2.71849 36.1202 5.4034 30.5102" stroke="#6CA8EE"/>
<circle cx="47.2979" cy="4.30029" r="4" fill="#6CA8EE"/>
<circle cx="47.2979" cy="98.3003" r="4" fill="#6CA8EE"/>
<circle cx="89.2979" cy="74.3003" r="4" fill="#6CA8EE"/>
<circle cx="6.29785" cy="74.3003" r="4" fill="#6CA8EE"/>
<circle cx="6.29785" cy="28.3003" r="4" fill="#6CA8EE"/>
<circle cx="89.2979" cy="28.3003" r="4" fill="#6CA8EE"/>
<path d="M31.2988 50.3003H63.2988M63.2988 50.3003L53.2988 40.3003M63.2988 50.3003L53.2988 60.3003" stroke="#6CA8EE" stroke-width="2" stroke-linecap="round" stroke-linejoin="round"/>
</svg>
