<svg width="96" height="103" viewBox="0 0 96 103" fill="none" xmlns="http://www.w3.org/2000/svg">
<circle cx="48.4336" cy="51.4365" r="47" stroke="#D9D9D9"/>
<path d="M48.4336 4.43652C54.6529 4.43652 60.8104 5.67087 66.5492 8.06804C72.288 10.4652 77.4939 13.9775 81.8653 18.4014C86.2367 22.8253 89.6866 28.0728 92.0152 33.8397C94.3437 39.6067 95.5045 45.7785 95.4302 51.9974C95.356 58.2162 94.0483 64.3586 91.5828 70.0683C89.1174 75.7781 85.5432 80.9418 81.0674 85.2601C76.5917 89.5784 71.3034 92.9654 65.5091 95.225C59.7147 97.4845 53.5295 98.5716 47.312 98.4231" stroke="#6CA8EE"/>
<path d="M88.3196 26.5751C91.6094 31.8531 93.819 37.7315 94.8202 43.8697C95.8215 50.0079 95.5946 56.2838 94.1526 62.3336C92.7106 68.3835 90.0822 74.087 86.4198 79.1136C82.7574 84.1402 78.1338 88.3899 72.8169 91.6165C67.5 94.8431 61.5956 96.9823 55.4459 97.9103C49.2962 98.8382 43.0235 98.5364 36.9913 97.0223C30.9591 95.5083 25.2874 92.812 20.3048 89.0899C15.3223 85.3678 11.128 80.6938 7.96511 75.3388" stroke="#6CA8EE"/>
<circle cx="47.9336" cy="4.93652" r="4" fill="#6CA8EE"/>
<circle cx="47.9336" cy="98.9365" r="4" fill="#6CA8EE"/>
<circle cx="89.9336" cy="74.9365" r="4" fill="#6CA8EE"/>
<circle cx="6.93359" cy="74.9365" r="4" fill="#6CA8EE"/>
<circle cx="6.93359" cy="28.9365" r="4" fill="#D9D9D9"/>
<circle cx="89.9336" cy="28.9365" r="4" fill="#6CA8EE"/>
<path d="M31.9355 50.9365H63.9355M63.9355 50.9365L53.9355 40.9365M63.9355 50.9365L53.9355 60.9365" stroke="#6CA8EE" stroke-width="2" stroke-linecap="round" stroke-linejoin="round"/>
</svg>
