<svg xmlns="http://www.w3.org/2000/svg" width="52" height="52" fill="none" viewBox="0 0 52 52"><circle cx="26.0003" cy="26" r="26" fill="#ACACAC" fill-opacity="0.1"/><path stroke="#6CA8EE" d="M26.1081 20.693C27.0135 19.0051 28.0837 16.9633 29.0658 14.4865C30.1992 16.8978 31.3936 18.8695 32.4017 20.4982C32.4905 20.6417 32.5777 20.7823 32.6632 20.9201C33.1368 21.6835 33.5569 22.3607 33.9037 22.9751C34.3142 23.7023 34.603 24.3091 34.7506 24.8305C35.7052 28.202 33.1845 31.2773 29.589 31.3886C25.9903 31.5 23.278 28.6297 24.0316 25.1623C24.1467 24.6328 24.3975 24.0092 24.7622 23.2581C25.0704 22.6234 25.4477 21.9215 25.8732 21.1303C25.95 20.9875 26.0283 20.8418 26.1081 20.693Z"/><path fill="white" stroke="#E7E7E3" d="M19.8869 21.5815C21.2926 19.0886 22.9629 16.0575 24.5027 12.339C26.0425 16.0575 27.7127 19.0886 29.1185 21.5815C29.2372 21.792 29.3538 21.9983 29.4682 22.2007C30.1024 23.3227 30.6677 24.3229 31.1322 25.229C31.6813 26.3004 32.072 27.2079 32.2641 27.9937C33.5053 33.0735 29.676 37.5 24.5027 37.5C19.3263 37.5 15.4846 33.1367 16.7413 27.9937C16.9333 27.2079 17.324 26.3004 17.8732 25.229C18.3376 24.3229 18.903 23.3227 19.5372 22.2007C19.6515 21.9984 19.7682 21.792 19.8869 21.5815Z"/></svg>