<svg xmlns="http://www.w3.org/2000/svg" width="52" height="52" fill="none" viewBox="0 0 52 52"><circle cx="26.001" cy="26" r="26" fill="#ACACAC" fill-opacity="0.1"/><g clip-path="url(#clip0_1_104)"><g clip-path="url(#clip1_1_104)"><path stroke="#6CA8EE" stroke-linecap="round" stroke-linejoin="round" d="M32.7741 21.5212C32.7741 19.9498 32.7741 18.3783 32.6641 17.3412C32.6649 17.087 32.6041 16.8364 32.4868 16.6109C32.3695 16.3854 32.1992 16.1917 31.9906 16.0465C31.782 15.9012 31.5413 15.8087 31.2891 15.777C31.0369 15.7452 30.7808 15.7751 30.5427 15.864C27.1484 16.8383 20.2184 19.274 17.3113 23.454C14.1684 27.8855 16.5884 32.9612 17.7355 34.9412C17.9027 35.2211 18.1308 35.4596 18.4028 35.6392C18.6749 35.8188 18.9839 35.9347 19.307 35.9783C20.7539 36.2391 22.2318 36.2815 23.6913 36.104"/><path fill="white" stroke="white" stroke-linecap="round" stroke-linejoin="round" d="M31.7685 36.1667C31.5959 36.2291 31.4069 36.2291 31.2343 36.1667C29.9237 35.6475 28.7992 34.7469 28.0063 33.5814C27.2134 32.4159 26.7887 31.0392 26.7871 29.6296V26.7224C26.789 26.6227 26.8111 26.5243 26.8521 26.4333C26.8931 26.3424 26.9521 26.2606 27.0255 26.1931C27.0989 26.1255 27.1853 26.0735 27.2793 26.0403C27.3734 26.007 27.4733 25.9932 27.5728 25.9996H35.43C35.6204 26.0036 35.802 26.081 35.9367 26.2157C36.0714 26.3504 36.1488 26.532 36.1528 26.7224V29.6296C36.1563 31.032 35.7408 32.4034 34.9596 33.5681C34.1785 34.7328 33.0673 35.6377 31.7685 36.1667Z"/><path fill="#6CA8EE" d="M22.3914 28.8123C22.5639 28.5967 22.529 28.2821 22.3133 28.1096C22.0977 27.9371 21.783 27.972 21.6105 28.1877L22.3914 28.8123ZM18.9753 35.6581C19.4721 34.1677 20.8498 30.7394 22.3914 28.8123L21.6105 28.1877C19.9521 30.2606 18.5298 33.8323 18.0266 35.3419L18.9753 35.6581Z"/></g></g><defs><clipPath id="clip0_1_104"><rect width="23" height="30" fill="white" transform="translate(15.001 9)"/></clipPath><clipPath id="clip1_1_104"><rect width="22" height="22" fill="white" transform="translate(15.001 15)"/></clipPath></defs></svg>