<svg width="1645" height="368" viewBox="0 0 1645 368" fill="none" xmlns="http://www.w3.org/2000/svg">
<g clip-path="url(#clip0_5435_12)">
<path d="M294 168.285H382.867L387.269 193.855H386.64C385.243 189.524 383.636 185.891 381.819 182.957C380.003 179.883 377.837 177.437 375.322 175.621C372.807 173.804 369.803 172.477 366.309 171.639C362.816 170.8 358.694 170.381 353.944 170.381H322.085V237.241H354.363C358.555 237.241 361.559 236.403 363.375 234.726C365.331 233.049 366.589 230.115 367.148 225.923H367.777V250.655H367.148C366.589 246.463 365.331 243.529 363.375 241.852C361.559 240.175 358.555 239.337 354.363 239.337H322.085V312.904H356.039C364.842 312.904 371.759 310.878 376.789 306.826C381.819 302.774 385.802 295.997 388.736 286.495H389.365L384.963 315H294V313.952C297.633 313.952 300.428 313.044 302.384 311.227C304.34 309.271 305.318 306.477 305.318 302.844V180.441C305.318 176.809 304.34 174.084 302.384 172.267C300.428 170.311 297.633 169.333 294 169.333V168.285ZM403.691 231.792C403.691 228.578 404.459 225.574 405.996 222.779C407.673 219.985 409.909 217.609 412.703 215.653C415.637 213.557 419.061 211.95 422.973 210.832C426.886 209.715 431.077 209.156 435.549 209.156C442.675 209.156 448.753 210.413 453.783 212.928C458.953 215.304 463.215 217.889 466.568 220.683C470.481 224.177 473.834 228.089 476.629 232.42C474.114 233.678 472.018 234.586 470.341 235.145C468.804 235.564 467.267 235.774 465.73 235.774C463.634 235.774 461.818 235.215 460.281 234.097C458.744 232.84 457.277 231.303 455.879 229.486C454.482 227.67 453.085 225.714 451.687 223.618C450.43 221.382 448.963 219.356 447.286 217.539C445.609 215.723 443.653 214.256 441.417 213.138C439.182 211.88 436.527 211.252 433.453 211.252C429.261 211.252 425.698 212.789 422.764 215.863C419.829 218.937 418.362 222.779 418.362 227.39C418.362 231.722 419.829 235.634 422.764 239.127C425.838 242.621 429.61 245.974 434.082 249.188C438.553 252.262 443.374 255.336 448.543 258.41C453.853 261.344 458.744 264.418 463.215 267.632C467.686 270.706 471.389 274.129 474.323 277.902C477.397 281.535 478.934 285.587 478.934 290.058C478.934 293.831 478.026 297.324 476.21 300.538C474.533 303.612 472.088 306.337 468.874 308.712C465.8 310.948 462.097 312.764 457.766 314.162C453.574 315.419 448.963 316.048 443.932 316.048C438.763 316.048 433.453 315.279 428.003 313.742C422.694 312.066 417.733 309.9 413.122 307.245C408.651 304.59 404.808 301.656 401.595 298.442C398.521 295.089 396.565 291.665 395.726 288.172C397.962 287.054 399.918 286.286 401.595 285.867C403.271 285.308 405.088 285.028 407.044 285.028C409.559 285.028 411.655 285.727 413.332 287.124C415.148 288.521 416.825 290.338 418.362 292.574C419.899 294.67 421.436 296.975 422.973 299.49C424.65 302.005 426.466 304.381 428.423 306.616C430.519 308.712 432.894 310.459 435.549 311.856C438.343 313.253 441.697 313.952 445.609 313.952C451.059 313.952 455.53 312.415 459.023 309.341C462.516 306.267 464.263 302.355 464.263 297.604C464.263 293.272 462.726 289.36 459.652 285.867C456.718 282.373 453.015 279.02 448.543 275.806C444.072 272.592 439.182 269.449 433.872 266.374C428.702 263.3 423.881 260.017 419.41 256.524C414.939 253.03 411.166 249.328 408.092 245.415C405.158 241.363 403.691 236.822 403.691 231.792ZM494.364 231.792C494.364 228.578 495.133 225.574 496.67 222.779C498.346 219.985 500.582 217.609 503.377 215.653C506.311 213.557 509.734 211.95 513.647 210.832C517.559 209.715 521.751 209.156 526.222 209.156C533.348 209.156 539.426 210.413 544.457 212.928C549.627 215.304 553.888 217.889 557.242 220.683C561.154 224.177 564.508 228.089 567.302 232.42C564.787 233.678 562.691 234.586 561.015 235.145C559.478 235.564 557.941 235.774 556.403 235.774C554.308 235.774 552.491 235.215 550.954 234.097C549.417 232.84 547.95 231.303 546.553 229.486C545.155 227.67 543.758 225.714 542.361 223.618C541.103 221.382 539.636 219.356 537.959 217.539C536.283 215.723 534.326 214.256 532.091 213.138C529.855 211.88 527.2 211.252 524.126 211.252C519.934 211.252 516.371 212.789 513.437 215.863C510.503 218.937 509.036 222.779 509.036 227.39C509.036 231.722 510.503 235.634 513.437 239.127C516.511 242.621 520.284 245.974 524.755 249.188C529.226 252.262 534.047 255.336 539.217 258.41C544.527 261.344 549.417 264.418 553.888 267.632C558.36 270.706 562.062 274.129 564.997 277.902C568.071 281.535 569.608 285.587 569.608 290.058C569.608 293.831 568.7 297.324 566.883 300.538C565.206 303.612 562.761 306.337 559.547 308.712C556.473 310.948 552.771 312.764 548.439 314.162C544.247 315.419 539.636 316.048 534.606 316.048C529.436 316.048 524.126 315.279 518.677 313.742C513.367 312.066 508.407 309.9 503.796 307.245C499.324 304.59 495.482 301.656 492.268 298.442C489.194 295.089 487.238 291.665 486.4 288.172C488.635 287.054 490.591 286.286 492.268 285.867C493.945 285.308 495.761 285.028 497.718 285.028C500.233 285.028 502.329 285.727 504.005 287.124C505.822 288.521 507.499 290.338 509.036 292.574C510.573 294.67 512.11 296.975 513.647 299.49C515.323 302.005 517.14 304.381 519.096 306.616C521.192 308.712 523.567 310.459 526.222 311.856C529.017 313.253 532.37 313.952 536.283 313.952C541.732 313.952 546.203 312.415 549.697 309.341C553.19 306.267 554.936 302.355 554.936 297.604C554.936 293.272 553.399 289.36 550.325 285.867C547.391 282.373 543.688 279.02 539.217 275.806C534.746 272.592 529.855 269.449 524.545 266.374C519.375 263.3 514.555 260.017 510.084 256.524C505.612 253.03 501.84 249.328 498.766 245.415C495.831 241.363 494.364 236.822 494.364 231.792ZM591.794 269.938L655.929 251.493C651.877 223.967 641.327 210.204 624.28 210.204C619.53 210.204 615.058 211.461 610.866 213.976C606.814 216.352 603.251 219.705 600.177 224.037C597.243 228.368 594.937 233.538 593.261 239.547C591.584 245.415 590.746 251.773 590.746 258.62C590.746 262.253 591.095 266.025 591.794 269.938ZM575.026 262.602C575.026 255.056 576.354 248 579.008 241.433C581.663 234.866 585.296 229.137 589.907 224.246C594.518 219.216 599.898 215.304 606.046 212.509C612.194 209.575 618.691 208.108 625.538 208.108C631.965 208.108 637.904 209.156 643.353 211.252C648.942 213.348 653.693 216.282 657.606 220.055C661.658 223.687 664.802 228.089 667.037 233.259C669.413 238.289 670.6 243.808 670.6 249.817L592.213 272.033C593.47 277.902 595.426 283.282 598.081 288.172C600.736 292.923 604.02 297.045 607.932 300.538C611.845 304.031 616.176 306.756 620.927 308.712C625.817 310.668 630.987 311.647 636.437 311.647C650.689 311.647 662.566 303.752 672.068 287.963H672.487C668.574 297.185 662.985 304.381 655.719 309.551C648.453 314.581 640.14 317.096 630.778 317.096C622.813 317.096 615.408 315.769 608.561 313.114C601.714 310.319 595.776 306.477 590.746 301.586C585.855 296.696 582.013 290.967 579.218 284.399C576.423 277.693 575.026 270.427 575.026 262.602ZM673.477 225.294L701.144 210.204H702.192V268.051C703.449 259.248 705.335 251.284 707.851 244.158C710.366 237.032 713.3 230.953 716.653 225.923C720.147 220.893 724.059 217.05 728.391 214.396C732.862 211.601 737.613 210.204 742.643 210.204C751.446 210.204 758.432 212.789 763.602 217.959C768.912 223.129 771.567 230.045 771.567 238.708V302.844C771.567 306.337 772.545 309.062 774.501 311.018C776.597 312.974 779.392 313.952 782.885 313.952V315H745.577V313.952C749.21 313.952 752.005 312.974 753.961 311.018C755.917 309.062 756.895 306.337 756.895 302.844V236.612C756.895 229.207 755.428 223.478 752.494 219.426C749.56 215.374 745.438 213.348 740.128 213.348C735.098 213.348 730.417 215.094 726.085 218.587C721.893 221.941 718.121 226.761 714.767 233.049C711.553 239.197 708.829 246.673 706.593 255.476C704.497 264.279 703.03 274.06 702.192 284.819V302.844C702.192 306.337 703.17 309.062 705.126 311.018C707.082 312.974 709.877 313.952 713.51 313.952V315H676.202V313.952C679.835 313.952 682.63 312.974 684.586 311.018C686.542 309.062 687.52 306.337 687.52 302.844V231.582C687.52 229.207 686.891 227.46 685.634 226.342C684.376 225.085 682.699 224.456 680.604 224.456C678.508 224.456 676.132 225.155 673.477 226.552V225.294ZM781.958 262.602C781.958 254.917 783.216 247.791 785.731 241.223C788.246 234.516 791.669 228.718 796.001 223.827C800.332 218.937 805.432 215.094 811.301 212.3C817.17 209.505 823.527 208.108 830.374 208.108C835.264 208.108 840.015 208.737 844.626 209.994C849.237 211.252 853.429 212.998 857.202 215.234C860.974 217.33 864.118 219.775 866.633 222.57C869.288 225.364 870.965 228.368 871.664 231.582C869.568 234.377 867.681 236.333 866.005 237.451C864.328 238.429 862.511 238.918 860.555 238.918C857.481 238.918 854.896 237.451 852.8 234.516C850.704 231.442 848.539 228.159 846.303 224.666C844.207 221.033 841.832 217.749 839.177 214.815C836.522 211.741 833.168 210.204 829.116 210.204C825.064 210.204 821.152 211.671 817.379 214.605C813.606 217.4 810.253 221.242 807.319 226.133C804.384 230.883 802.009 236.473 800.193 242.9C798.516 249.188 797.677 255.755 797.677 262.602C797.677 269.309 798.795 275.736 801.031 281.884C803.406 287.893 806.55 293.132 810.463 297.604C814.375 302.075 818.986 305.638 824.296 308.293C829.605 310.948 835.194 312.275 841.063 312.275C847.491 312.275 853.01 311.018 857.621 308.503C862.372 305.988 866.354 303.193 869.568 300.119C873.201 296.486 876.345 292.434 878.999 287.963H879.419C876.903 293.412 873.62 298.233 869.568 302.424C866.074 306.057 861.673 309.411 856.363 312.485C851.054 315.559 844.556 317.096 836.871 317.096C828.907 317.096 821.571 315.769 814.864 313.114C808.157 310.319 802.358 306.546 797.468 301.796C792.577 296.905 788.735 291.106 785.94 284.399C783.285 277.693 781.958 270.427 781.958 262.602ZM899.428 269.938L963.563 251.493C959.511 223.967 948.962 210.204 931.915 210.204C927.164 210.204 922.693 211.461 918.501 213.976C914.449 216.352 910.886 219.705 907.812 224.037C904.878 228.368 902.572 233.538 900.895 239.547C899.219 245.415 898.38 251.773 898.38 258.62C898.38 262.253 898.729 266.025 899.428 269.938ZM882.661 262.602C882.661 255.056 883.988 248 886.643 241.433C889.298 234.866 892.931 229.137 897.542 224.246C902.153 219.216 907.532 215.304 913.68 212.509C919.828 209.575 926.326 208.108 933.173 208.108C939.6 208.108 945.539 209.156 950.988 211.252C956.577 213.348 961.328 216.282 965.24 220.055C969.292 223.687 972.436 228.089 974.672 233.259C977.047 238.289 978.235 243.808 978.235 249.817L899.847 272.033C901.105 277.902 903.061 283.282 905.716 288.172C908.371 292.923 911.654 297.045 915.567 300.538C919.479 304.031 923.811 306.756 928.562 308.712C933.452 310.668 938.622 311.647 944.071 311.647C958.324 311.647 970.201 303.752 979.702 287.963H980.121C976.209 297.185 970.62 304.381 963.354 309.551C956.088 314.581 947.774 317.096 938.412 317.096C930.448 317.096 923.042 315.769 916.196 313.114C909.349 310.319 903.41 306.477 898.38 301.586C893.49 296.696 889.647 290.967 886.853 284.399C884.058 277.693 882.661 270.427 882.661 262.602ZM1142.3 282.723C1142.3 287.473 1141.11 291.945 1138.73 296.137C1136.5 300.329 1133.35 303.961 1129.3 307.035C1125.39 310.11 1120.71 312.555 1115.26 314.371C1109.95 316.188 1104.22 317.096 1098.07 317.096C1091.51 317.096 1084.87 316.327 1078.16 314.79C1071.59 313.253 1065.59 311.577 1060.14 309.76C1053.85 307.664 1047.77 305.219 1041.9 302.424V274.129H1044C1048.19 280.277 1052.59 285.867 1057.2 290.897C1061.95 295.787 1066.7 299.979 1071.45 303.472C1076.35 306.966 1081.1 309.69 1085.71 311.647C1090.46 313.463 1094.93 314.371 1099.12 314.371C1107.23 314.371 1113.44 312.555 1117.77 308.922C1122.11 305.289 1124.27 299.979 1124.27 292.993C1124.27 286.426 1122.25 280.417 1118.19 274.968C1114.28 269.379 1109.25 264.139 1103.1 259.248C1097.09 254.218 1090.6 249.397 1083.61 244.786C1076.62 240.036 1070.06 235.215 1063.91 230.325C1057.9 225.434 1052.87 220.264 1048.82 214.815C1044.91 209.365 1042.95 203.427 1042.95 196.999C1042.95 192.528 1043.93 188.476 1045.88 184.843C1047.84 181.07 1050.57 177.857 1054.06 175.202C1057.69 172.407 1061.95 170.241 1066.84 168.704C1071.73 167.167 1077.04 166.399 1082.77 166.399C1089.34 166.399 1095.77 167.167 1102.06 168.704C1108.48 170.102 1114.28 171.778 1119.45 173.735C1125.46 175.83 1131.19 178.276 1136.64 181.07V205.173H1134.75C1118.12 181.14 1101.01 169.123 1083.4 169.123C1076.28 169.123 1070.62 170.94 1066.42 174.573C1062.23 178.066 1060.14 182.817 1060.14 188.825C1060.14 194.694 1062.16 200.213 1066.21 205.383C1070.27 210.553 1075.3 215.583 1081.31 220.474C1087.45 225.224 1094.09 229.975 1101.22 234.726C1108.34 239.337 1114.91 244.158 1120.92 249.188C1127.07 254.078 1132.17 259.318 1136.22 264.907C1140.27 270.357 1142.3 276.295 1142.3 282.723ZM1238.45 302.844C1238.45 306.337 1239.43 309.062 1241.38 311.018C1243.34 312.974 1246.13 313.952 1249.77 313.952V315H1223.78V267.003C1221.4 282.653 1217.07 294.6 1210.78 302.844C1204.63 310.948 1196.88 315 1187.52 315C1182.77 315 1178.36 314.231 1174.31 312.694C1170.26 311.018 1166.7 308.782 1163.62 305.988C1160.69 303.053 1158.38 299.63 1156.71 295.717C1155.03 291.805 1154.19 287.543 1154.19 282.932V231.582C1154.19 229.207 1153.56 227.46 1152.3 226.342C1151.05 225.085 1149.44 224.456 1147.48 224.456C1145.11 224.456 1142.73 225.155 1140.36 226.552V225.294L1167.81 210.204H1168.86V282.513C1168.86 302.075 1175.92 311.856 1190.03 311.856C1199.53 311.856 1207.15 306.686 1212.88 296.346C1218.61 286.006 1222.24 270.986 1223.78 251.284V231.373L1223.57 231.582C1223.57 229.207 1222.94 227.46 1221.68 226.342C1220.42 225.085 1218.82 224.456 1216.86 224.456C1214.48 224.456 1212.11 225.155 1209.73 226.552V225.294L1237.19 210.204H1238.24V210.413L1238.45 210.204V302.844ZM1252.93 225.294L1280.59 210.204H1281.64V268.051C1282.9 259.248 1284.79 251.284 1287.3 244.158C1289.82 237.032 1292.75 230.953 1296.1 225.923C1299.6 220.893 1303.51 217.05 1307.84 214.396C1312.31 211.601 1317.06 210.204 1322.09 210.204C1330.9 210.204 1337.88 212.789 1343.05 217.959C1348.36 223.129 1351.02 230.045 1351.02 238.708V302.844C1351.02 306.337 1351.99 309.062 1353.95 311.018C1356.05 312.974 1358.84 313.952 1362.33 313.952V315H1325.03V313.952C1328.66 313.952 1331.45 312.974 1333.41 311.018C1335.37 309.062 1336.35 306.337 1336.35 302.844V236.612C1336.35 229.207 1334.88 223.478 1331.94 219.426C1329.01 215.374 1324.89 213.348 1319.58 213.348C1314.55 213.348 1309.87 215.094 1305.54 218.587C1301.34 221.941 1297.57 226.761 1294.22 233.049C1291 239.197 1288.28 246.673 1286.04 255.476C1283.95 264.279 1282.48 274.06 1281.64 284.819V302.844C1281.64 306.337 1282.62 309.062 1284.58 311.018C1286.53 312.974 1289.33 313.952 1292.96 313.952V315H1255.65V313.952C1259.29 313.952 1262.08 312.974 1264.04 311.018C1265.99 309.062 1266.97 306.337 1266.97 302.844V231.582C1266.97 229.207 1266.34 227.46 1265.08 226.342C1263.83 225.085 1262.15 224.456 1260.05 224.456C1257.96 224.456 1255.58 225.155 1252.93 226.552V225.294ZM1493.41 169.123C1486.14 169.123 1479.44 170.8 1473.29 174.154C1467.14 177.507 1461.76 182.188 1457.15 188.196C1452.68 194.205 1449.12 201.331 1446.46 209.575C1443.95 217.679 1442.69 226.552 1442.69 236.193C1442.69 246.952 1444.37 257.083 1447.72 266.584C1451.21 276.086 1455.89 284.399 1461.76 291.526C1467.63 298.512 1474.48 304.101 1482.3 308.293C1490.27 312.345 1498.72 314.371 1507.66 314.371C1519.54 314.371 1529.6 311.297 1537.84 305.149C1546.23 299.001 1553.42 289.36 1559.43 276.225H1560.06C1556.71 283.631 1553.07 289.919 1549.16 295.089C1545.39 300.259 1541.13 304.52 1536.38 307.874C1531.63 311.088 1526.39 313.463 1520.66 315C1514.93 316.397 1508.36 317.096 1500.96 317.096C1490.06 317.096 1479.93 315.21 1470.56 311.437C1461.34 307.525 1453.24 302.145 1446.25 295.298C1439.41 288.452 1434.03 280.417 1430.11 271.195C1426.2 261.973 1424.24 252.052 1424.24 241.433C1424.24 231.093 1426.13 221.382 1429.9 212.3C1433.68 203.217 1438.78 195.253 1445.2 188.406C1451.63 181.559 1459.18 176.18 1467.84 172.267C1476.5 168.355 1485.73 166.399 1495.51 166.399C1501.51 166.399 1506.96 167.028 1511.85 168.285C1516.75 169.403 1521.15 170.94 1525.06 172.896C1528.97 174.852 1532.46 177.088 1535.54 179.603C1538.61 182.118 1541.27 184.703 1543.5 187.358C1548.95 193.506 1553.07 200.493 1555.87 208.317C1552.8 210.413 1550.35 211.88 1548.53 212.719C1546.72 213.417 1544.76 213.767 1542.66 213.767C1540.43 213.767 1538.4 212.649 1536.59 210.413C1534.77 208.178 1532.95 205.453 1531.14 202.239C1529.32 198.886 1527.36 195.323 1525.27 191.55C1523.17 187.638 1520.66 184.074 1517.72 180.861C1514.79 177.507 1511.37 174.713 1507.45 172.477C1503.54 170.241 1498.86 169.123 1493.41 169.123ZM1556.26 225.294L1583.93 210.204H1584.98V242.481C1588.61 232.281 1593.29 224.386 1599.02 218.797C1604.89 213.068 1611.6 210.204 1619.14 210.204C1627.25 210.204 1633.88 211.88 1639.05 215.234C1644.22 218.448 1647.23 222.989 1648.07 228.857L1629.83 241.014C1630.67 232.071 1629.9 225.224 1627.53 220.474C1625.29 215.723 1621.66 213.348 1616.63 213.348C1609.64 213.348 1603.42 216.491 1597.97 222.779C1592.66 229.067 1588.33 237.8 1584.98 248.978V302.844C1584.98 306.337 1585.96 309.062 1587.91 311.018C1589.87 312.974 1592.66 313.952 1596.3 313.952V315H1558.99V313.952C1562.62 313.952 1565.42 312.974 1567.37 311.018C1569.33 309.062 1570.31 306.337 1570.31 302.844V231.582C1570.31 229.207 1569.68 227.46 1568.42 226.342C1567.16 225.085 1565.49 224.456 1563.39 224.456C1561.29 224.456 1558.92 225.155 1556.26 226.552V225.294ZM1661.86 269.938L1726 251.493C1721.95 223.967 1711.4 210.204 1694.35 210.204C1689.6 210.204 1685.13 211.461 1680.94 213.976C1676.88 216.352 1673.32 219.705 1670.25 224.037C1667.31 228.368 1665.01 233.538 1663.33 239.547C1661.65 245.415 1660.81 251.773 1660.81 258.62C1660.81 262.253 1661.16 266.025 1661.86 269.938ZM1645.09 262.602C1645.09 255.056 1646.42 248 1649.08 241.433C1651.73 234.866 1655.37 229.137 1659.98 224.246C1664.59 219.216 1669.97 215.304 1676.11 212.509C1682.26 209.575 1688.76 208.108 1695.61 208.108C1702.03 208.108 1707.97 209.156 1713.42 211.252C1719.01 213.348 1723.76 216.282 1727.67 220.055C1731.73 223.687 1734.87 228.089 1737.11 233.259C1739.48 238.289 1740.67 243.808 1740.67 249.817L1662.28 272.033C1663.54 277.902 1665.5 283.282 1668.15 288.172C1670.81 292.923 1674.09 297.045 1678 300.538C1681.91 304.031 1686.25 306.756 1691 308.712C1695.89 310.668 1701.06 311.647 1706.51 311.647C1720.76 311.647 1732.63 303.752 1742.14 287.963H1742.56C1738.64 297.185 1733.05 304.381 1725.79 309.551C1718.52 314.581 1710.21 317.096 1700.85 317.096C1692.88 317.096 1685.48 315.769 1678.63 313.114C1671.78 310.319 1665.84 306.477 1660.81 301.586C1655.92 296.696 1652.08 290.967 1649.29 284.399C1646.49 277.693 1645.09 270.427 1645.09 262.602ZM1757.91 228.648C1758.32 226.272 1759.51 224.037 1761.47 221.941C1763.56 219.705 1766.08 217.749 1769.01 216.072C1772.09 214.256 1775.58 212.858 1779.49 211.88C1783.55 210.763 1787.74 210.204 1792.07 210.204C1802.13 210.204 1810.16 212.719 1816.17 217.749C1822.32 222.779 1825.39 229.486 1825.39 237.87V302.844C1825.39 306.337 1826.37 309.062 1828.33 311.018C1830.28 312.974 1833.08 313.952 1836.71 313.952V315H1817.85C1813.1 315 1810.72 312.066 1810.72 306.197V282.723C1807.09 292.783 1802.2 300.678 1796.05 306.407C1789.9 312.136 1783.06 315 1775.51 315C1766.43 315 1759.51 313.253 1754.76 309.76C1750.15 306.267 1747.84 301.167 1747.84 294.46C1747.84 289.011 1749.17 284.469 1751.83 280.836C1754.62 277.203 1758.11 274.06 1762.31 271.405C1766.5 268.75 1771.11 266.374 1776.14 264.279C1781.31 262.043 1786.2 259.668 1790.81 257.152C1795.42 254.637 1799.54 251.773 1803.18 248.559C1806.81 245.206 1809.33 241.084 1810.72 236.193V235.984C1810.72 228.438 1809.26 222.639 1806.32 218.587C1803.53 214.396 1799.68 212.3 1794.79 212.3C1791.72 212.3 1789.34 212.858 1787.67 213.976C1785.99 215.094 1784.66 216.491 1783.68 218.168C1782.85 219.845 1782.15 221.661 1781.59 223.618C1781.17 225.434 1780.61 227.181 1779.91 228.857C1779.35 230.534 1778.52 231.931 1777.4 233.049C1776.42 234.167 1774.81 234.726 1772.58 234.726C1767.27 234.726 1762.38 232.7 1757.91 228.648ZM1810.72 241.643C1808.91 245.275 1806.46 248.559 1803.39 251.493C1800.45 254.288 1797.24 257.013 1793.75 259.668C1790.25 262.322 1786.69 264.907 1783.06 267.422C1779.56 269.938 1776.35 272.662 1773.41 275.597C1770.62 278.391 1768.31 281.465 1766.5 284.819C1764.68 288.172 1763.77 292.015 1763.77 296.346C1763.77 301.237 1765.1 305.079 1767.76 307.874C1770.41 310.529 1774.04 311.856 1778.65 311.856C1785.5 311.856 1791.72 308.712 1797.31 302.424C1802.9 296.137 1807.37 287.753 1810.72 277.273V241.643ZM1839.95 225.294L1867.62 210.204H1868.66V264.488C1871.04 247.022 1875.3 233.608 1881.45 224.246C1887.6 214.885 1895.42 210.204 1904.92 210.204C1913.73 210.204 1920.71 212.789 1925.88 217.959C1931.19 223.129 1933.85 230.045 1933.85 238.708V265.327C1936.22 247.721 1940.49 234.167 1946.63 224.666C1952.92 215.024 1960.82 210.204 1970.32 210.204C1979.12 210.204 1986.11 212.789 1991.28 217.959C1996.59 223.129 1999.24 230.045 1999.24 238.708V302.844C1999.24 306.337 2000.22 309.062 2002.18 311.018C2004.27 312.974 2007.07 313.952 2010.56 313.952V315H1973.25V313.952C1976.88 313.952 1979.68 312.974 1981.64 311.018C1983.59 309.062 1984.57 306.337 1984.57 302.844V236.612C1984.57 229.207 1983.1 223.478 1980.17 219.426C1977.23 215.374 1973.11 213.348 1967.8 213.348C1963.19 213.348 1958.93 214.954 1955.02 218.168C1951.24 221.382 1947.89 226.063 1944.96 232.211C1942.02 238.219 1939.58 245.625 1937.62 254.428C1935.8 263.091 1934.55 272.942 1933.85 283.98V302.844C1933.85 306.337 1934.83 309.062 1936.78 311.018C1938.88 312.974 1941.67 313.952 1945.17 313.952V315H1907.86V313.952C1911.49 313.952 1914.29 312.974 1916.24 311.018C1918.2 309.062 1919.18 306.337 1919.18 302.844V236.612C1919.18 229.207 1917.71 223.478 1914.78 219.426C1911.84 215.374 1907.72 213.348 1902.41 213.348C1897.8 213.348 1893.54 214.954 1889.62 218.168C1885.85 221.242 1882.5 225.783 1879.56 231.792C1876.77 237.66 1874.39 244.856 1872.44 253.38C1870.62 261.903 1869.36 271.544 1868.66 282.304V302.844C1868.66 306.337 1869.64 309.062 1871.6 311.018C1873.56 312.974 1876.35 313.952 1879.98 313.952V315H1842.68V313.952C1846.31 313.952 1849.1 312.974 1851.06 311.018C1853.02 309.062 1853.99 306.337 1853.99 302.844V231.582C1853.99 229.207 1853.36 227.46 1852.11 226.342C1850.85 225.085 1849.17 224.456 1847.08 224.456C1844.98 224.456 1842.61 225.155 1839.95 226.552V225.294Z" fill="#6CA8EE"/>
<path d="M63.9258 28.3758L91.3824 13.2851H92.4304V147.844C92.4304 151.337 93.4085 154.062 95.3647 156.018C97.4606 157.974 100.255 158.952 103.748 158.952V160H66.4409V158.952C70.0738 158.952 72.8684 157.974 74.8246 156.018C76.7808 154.062 77.7589 151.337 77.7589 147.844V105.715C75.3835 123.321 71.0519 136.805 64.7641 146.167C58.6161 155.389 50.8612 160 41.4994 160C35.3513 160 29.6923 158.882 24.5223 156.647C19.4921 154.411 15.1605 151.267 11.5276 147.215C7.89466 143.023 5.03022 138.063 2.9343 132.334C0.978099 126.605 0 120.247 0 113.261C0 105.436 1.46715 98.0304 4.40145 91.044C7.47547 83.9179 11.5276 77.6999 16.5578 72.3903C21.7278 67.0806 27.6662 62.8887 34.3732 59.8147C41.2199 56.7407 48.4159 55.2037 55.9613 55.2037C58.7558 55.2037 61.2011 55.3434 63.297 55.6228C65.3929 55.7626 67.2094 55.9722 68.7464 56.2516C70.4231 56.5311 71.9602 56.8105 73.3574 57.09C74.7547 57.3694 76.2219 57.579 77.7589 57.7188V34.6636C77.7589 32.2882 77.1301 30.5416 75.8726 29.4238C74.615 28.1662 72.9383 27.5374 70.8423 27.5374C68.7464 27.5374 66.4409 28.1662 63.9258 29.4238V28.3758ZM58.0572 57.2996C52.1886 57.2996 46.6693 58.7667 41.4994 61.701C36.3294 64.6353 31.8581 68.6176 28.0854 73.6478C24.3128 78.678 21.3086 84.6165 19.0729 91.4632C16.8373 98.1702 15.7195 105.436 15.7195 113.261C15.7195 126.535 18.3044 137.154 23.4744 145.119C28.7841 152.944 35.8404 156.856 44.6432 156.856C48.9748 156.856 52.9571 155.249 56.59 152.035C60.3627 148.822 63.6463 144.211 66.4409 138.202C69.3752 132.194 71.8204 124.998 73.7766 116.614C75.7328 108.091 77.0602 98.5893 77.7589 88.1097V76.1629C77.7589 73.6478 77.2 71.2724 76.0821 69.0368C75.104 66.6614 73.7068 64.6353 71.8903 62.9586C70.0738 61.1421 67.9779 59.7448 65.6025 58.7667C63.2271 57.7886 60.712 57.2996 58.0572 57.2996ZM116.376 47.6583L114.49 13.2851H121.826L119.52 47.6583H116.376ZM198.836 13.2851L250.396 146.796C253.47 154.9 258.64 158.952 265.906 158.952V160H225.035V158.952C228.668 158.952 231.114 157.834 232.371 155.599C233.629 153.363 233.559 150.429 232.162 146.796L220.005 115.566H155.241L152.516 122.693C149.862 129.539 148.115 135.338 147.277 140.089C146.438 144.7 146.578 148.403 147.696 151.197C148.953 153.992 151.119 156.018 154.193 157.275C157.407 158.393 161.669 158.952 166.978 158.952V160H125.269V158.952C132.535 158.952 137.705 154.9 140.779 146.796L186.47 28.3758L180.602 13.2851H198.836ZM219.376 113.47L187.728 31.5197L156.079 113.47H219.376ZM268.131 28.3758L295.797 13.2851H296.845V147.844C296.845 151.337 297.824 154.062 299.78 156.018C301.736 157.974 304.531 158.952 308.163 158.952V160H270.856V158.952C274.489 158.952 277.283 157.974 279.24 156.018C281.196 154.062 282.174 151.337 282.174 147.844V34.6636C282.174 32.2882 281.545 30.5416 280.288 29.4238C279.03 28.1662 277.353 27.5374 275.257 27.5374C273.161 27.5374 270.786 28.2361 268.131 29.6333V28.3758ZM307.021 28.3758L334.687 13.2851H335.735V109.488C338.25 90.7645 342.581 77.0712 348.729 68.408C355.017 59.6051 363.541 55.2037 374.3 55.2037C380.029 55.2037 385.268 56.3914 390.019 58.7667C394.91 61.0024 399.032 64.2161 402.385 68.408C405.878 72.4601 408.603 77.3506 410.559 83.0795C412.516 88.8084 413.494 95.0961 413.494 101.943C413.494 109.768 411.957 117.243 408.883 124.369C405.948 131.356 401.896 137.504 396.726 142.813C391.696 148.123 385.758 152.315 378.911 155.389C372.204 158.463 365.078 160 357.532 160C354.179 160 351.245 159.651 348.729 158.952C346.354 158.114 344.118 157.275 342.023 156.437C339.927 155.599 337.97 154.83 336.154 154.131C334.337 153.293 332.381 152.874 330.285 152.874C328.469 152.874 326.792 153.572 325.255 154.97C323.858 156.227 322.81 157.904 322.111 160H321.063V34.6636C321.063 32.2882 320.434 30.5416 319.177 29.4238C317.919 28.1662 316.243 27.5374 314.147 27.5374C312.051 27.5374 309.675 28.2361 307.021 29.6333V28.3758ZM355.646 157.904C361.515 157.904 366.964 156.437 371.994 153.503C377.164 150.568 381.636 146.586 385.408 141.556C389.321 136.526 392.325 130.657 394.421 123.95C396.656 117.103 397.774 109.768 397.774 101.943C397.774 95.3756 397.076 89.4371 395.678 84.1274C394.421 78.678 392.534 74.067 390.019 70.2943C387.504 66.5217 384.43 63.5874 380.797 61.4914C377.304 59.3955 373.322 58.3475 368.85 58.3475C359.908 58.3475 352.502 64.3559 346.634 76.3725C340.905 88.3892 337.272 105.296 335.735 127.094V139.041C335.735 141.556 336.224 144.001 337.202 146.376C338.32 148.612 339.787 150.638 341.603 152.455C343.42 154.131 345.516 155.459 347.891 156.437C350.406 157.415 352.991 157.904 355.646 157.904ZM422.491 73.6478C422.911 71.2724 424.098 69.0368 426.054 66.9408C428.15 64.7052 430.665 62.749 433.6 61.0722C436.674 59.2558 440.167 57.8585 444.079 56.8804C448.132 55.7626 452.323 55.2037 456.655 55.2037C466.715 55.2037 474.75 57.7188 480.758 62.749C486.906 67.7792 489.98 74.4862 489.98 82.8699V147.844C489.98 151.337 490.958 154.062 492.914 156.018C494.871 157.974 497.665 158.952 501.298 158.952V160H482.435C477.684 160 475.309 157.066 475.309 151.197V127.723C471.676 137.783 466.785 145.678 460.637 151.407C454.489 157.136 447.642 160 440.097 160C431.015 160 424.098 158.253 419.347 154.76C414.736 151.267 412.431 146.167 412.431 139.46C412.431 134.011 413.758 129.469 416.413 125.836C419.208 122.203 422.701 119.06 426.893 116.405C431.085 113.75 435.696 111.374 440.726 109.279C445.896 107.043 450.786 104.668 455.397 102.152C460.008 99.6373 464.13 96.7729 467.763 93.5591C471.396 90.2056 473.911 86.0836 475.309 81.1931V80.9836C475.309 73.4382 473.842 67.6395 470.907 63.5874C468.113 59.3955 464.27 57.2996 459.38 57.2996C456.306 57.2996 453.93 57.8585 452.254 58.9763C450.577 60.0941 449.249 61.4914 448.271 63.1682C447.433 64.8449 446.734 66.6614 446.175 68.6176C445.756 70.4341 445.197 72.1807 444.499 73.8574C443.94 75.5341 443.101 76.9314 441.983 78.0493C441.005 79.1671 439.399 79.726 437.163 79.726C431.853 79.726 426.963 77.6999 422.491 73.6478ZM475.309 86.6426C473.492 90.2755 471.047 93.5591 467.973 96.4934C465.039 99.288 461.825 102.013 458.332 104.668C454.838 107.322 451.275 109.907 447.642 112.422C444.149 114.938 440.936 117.662 438.001 120.597C435.207 123.391 432.901 126.465 431.085 129.819C429.268 133.172 428.36 137.015 428.36 141.346C428.36 146.237 429.687 150.079 432.342 152.874C434.997 155.529 438.63 156.856 443.241 156.856C450.088 156.856 456.306 153.712 461.895 147.424C467.484 141.137 471.955 132.753 475.309 122.273V86.6426ZM627.211 160H620.085L577.957 26.4895C575.442 18.3852 570.551 14.3331 563.285 14.3331V13.2851H604.156V14.3331C600.523 14.3331 598.008 15.4509 596.611 17.6866C595.213 19.9222 595.074 22.8565 596.191 26.4895L632.66 142.604L663.68 44.3048L658.021 26.4895C655.506 18.3852 650.616 14.3331 643.35 14.3331V13.2851H684.22V14.3331C680.587 14.3331 678.072 15.4509 676.675 17.6866C675.278 19.9222 675.138 22.8565 676.256 26.4895L712.934 142.813L741.439 52.0598C743.814 44.3747 745.351 38.0869 746.05 33.1964C746.888 28.3059 746.679 24.4634 745.421 21.6688C744.164 18.8743 741.858 16.9879 738.505 16.0098C735.151 14.892 730.61 14.3331 724.881 14.3331V13.2851H766.59V14.3331C763.376 14.3331 760.372 15.4509 757.578 17.6866C754.923 19.9222 753.037 22.8565 751.919 26.4895L713.982 146.586L718.174 159.79L709.791 160H700.149L664.938 48.0775L633.918 146.376L638.11 159.79L627.211 160ZM743.225 73.6478C743.645 71.2724 744.832 69.0368 746.789 66.9408C748.884 64.7052 751.4 62.749 754.334 61.0722C757.408 59.2558 760.901 57.8585 764.814 56.8804C768.866 55.7626 773.058 55.2037 777.389 55.2037C787.45 55.2037 795.484 57.7188 801.492 62.749C807.64 67.7792 810.714 74.4862 810.714 82.8699V147.844C810.714 151.337 811.692 154.062 813.649 156.018C815.605 157.974 818.399 158.952 822.032 158.952V160H803.169C798.418 160 796.043 157.066 796.043 151.197V127.723C792.41 137.783 787.519 145.678 781.371 151.407C775.223 157.136 768.377 160 760.831 160C751.749 160 744.832 158.253 740.082 154.76C735.471 151.267 733.165 146.167 733.165 139.46C733.165 134.011 734.492 129.469 737.147 125.836C739.942 122.203 743.435 119.06 747.627 116.405C751.819 113.75 756.43 111.374 761.46 109.279C766.63 107.043 771.521 104.668 776.132 102.152C780.743 99.6373 784.865 96.7729 788.498 93.5591C792.13 90.2056 794.646 86.0836 796.043 81.1931V80.9836C796.043 73.4382 794.576 67.6395 791.641 63.5874C788.847 59.3955 785.004 57.2996 780.114 57.2996C777.04 57.2996 774.664 57.8585 772.988 58.9763C771.311 60.0941 769.983 61.4914 769.005 63.1682C768.167 64.8449 767.468 66.6614 766.909 68.6176C766.49 70.4341 765.931 72.1807 765.233 73.8574C764.674 75.5341 763.835 76.9314 762.718 78.0493C761.74 79.1671 760.133 79.726 757.897 79.726C752.587 79.726 747.697 77.6999 743.225 73.6478ZM796.043 86.6426C794.226 90.2755 791.781 93.5591 788.707 96.4934C785.773 99.288 782.559 102.013 779.066 104.668C775.573 107.322 772.01 109.907 768.377 112.422C764.883 114.938 761.67 117.662 758.735 120.597C755.941 123.391 753.635 126.465 751.819 129.819C750.002 133.172 749.094 137.015 749.094 141.346C749.094 146.237 750.422 150.079 753.076 152.874C755.731 155.529 759.364 156.856 763.975 156.856C770.822 156.856 777.04 153.712 782.629 147.424C788.218 141.137 792.689 132.753 796.043 122.273V86.6426ZM817.089 59.1859C821.281 59.1859 824.494 56.8105 826.73 52.0598C829.106 47.1693 830.293 40.113 830.293 30.8909H842.869C842.869 37.5979 841.402 43.4665 838.467 48.4967C835.533 53.3872 831.411 56.9503 826.101 59.1859H851.043V61.2818H839.725V132.963C839.725 148.333 844.755 156.018 854.816 156.018C863.479 156.018 869.208 148.752 872.002 134.22H873.469C871.653 143.861 869.068 150.568 865.714 154.341C862.361 158.114 857.261 160 850.414 160C842.729 160 836.581 157.485 831.97 152.455C827.499 147.424 825.263 140.717 825.263 132.334V69.0368C825.263 63.8668 822.538 61.2818 817.089 61.2818V59.1859ZM891.162 114.938L955.297 96.4934C951.245 68.9669 940.696 55.2037 923.649 55.2037C918.898 55.2037 914.427 56.4612 910.235 58.9763C906.183 61.3517 902.62 64.7052 899.546 69.0368C896.611 73.3684 894.306 78.5383 892.629 84.5466C890.952 90.4152 890.114 96.7729 890.114 103.62C890.114 107.253 890.463 111.025 891.162 114.938ZM874.394 107.602C874.394 100.056 875.722 93.0002 878.377 86.433C881.032 79.8657 884.665 74.1369 889.276 69.2464C893.887 64.2161 899.266 60.3037 905.414 57.5092C911.562 54.5749 918.06 53.1077 924.906 53.1077C931.334 53.1077 937.272 54.1557 942.722 56.2516C948.311 58.3475 953.062 61.2818 956.974 65.0545C961.026 68.6875 964.17 73.0889 966.406 78.2589C968.781 83.2891 969.969 88.8084 969.969 94.8167L891.581 117.033C892.839 122.902 894.795 128.282 897.45 133.172C900.105 137.923 903.388 142.045 907.301 145.538C911.213 149.031 915.545 151.756 920.295 153.712C925.186 155.668 930.356 156.647 935.805 156.647C950.057 156.647 961.934 148.752 971.436 132.963H971.855C967.943 142.185 962.354 149.381 955.088 154.551C947.822 159.581 939.508 162.096 930.146 162.096C922.182 162.096 914.776 160.769 907.929 158.114C901.083 155.319 895.144 151.477 890.114 146.586C885.223 141.696 881.381 135.967 878.586 129.399C875.792 122.693 874.394 115.427 874.394 107.602ZM972.846 70.2943L1000.51 55.2037H1001.56V87.4809C1005.19 77.2807 1009.87 69.3861 1015.6 63.797C1021.47 58.0681 1028.18 55.2037 1035.72 55.2037C1043.83 55.2037 1050.46 56.8804 1055.63 60.2339C1060.8 63.4476 1063.81 67.9888 1064.65 73.8574L1046.41 86.0138C1047.25 77.0712 1046.48 70.2245 1044.11 65.4737C1041.87 60.7229 1038.24 58.3475 1033.21 58.3475C1026.22 58.3475 1020 61.4914 1014.55 67.7792C1009.24 74.067 1004.91 82.8 1001.56 93.9783V147.844C1001.56 151.337 1002.54 154.062 1004.49 156.018C1006.45 157.974 1009.24 158.952 1012.88 158.952V160H975.57V158.952C979.203 158.952 981.998 157.974 983.954 156.018C985.91 154.062 986.888 151.337 986.888 147.844V76.5821C986.888 74.2067 986.26 72.4601 985.002 71.3423C983.745 70.0847 982.068 69.456 979.972 69.456C977.876 69.456 975.501 70.1546 972.846 71.5519V70.2943ZM1123.62 31.7293C1120.4 34.1047 1117.75 35.7115 1115.65 36.5499C1113.56 37.3883 1111.25 37.8075 1108.74 37.8075C1106.5 37.8075 1104.82 37.2486 1103.71 36.1307C1102.73 35.0129 1101.96 33.6156 1101.4 31.9389C1100.84 30.2621 1100.42 28.5155 1100.14 26.699C1099.86 24.7428 1099.45 22.9264 1098.89 21.2496C1098.33 19.5729 1097.49 18.1756 1096.37 17.0578C1095.25 15.94 1093.51 15.381 1091.13 15.381C1088.9 15.381 1086.73 15.8701 1084.63 16.8482C1082.68 17.6866 1080.86 18.9441 1079.18 20.6209C1077.65 22.1579 1076.39 23.9743 1075.41 26.0703C1074.57 28.0265 1074.15 30.1224 1074.15 32.3581C1074.15 35.7115 1075.06 38.2965 1076.88 40.113C1078.7 41.9295 1080.65 43.5363 1082.75 44.9336C1084.98 46.3309 1087.01 47.798 1088.83 49.3351C1090.78 50.7323 1091.76 52.6885 1091.76 55.2037H1116.49V68.6176H1115.86C1115.44 64.9846 1113.77 62.1901 1110.83 60.2339C1108.04 58.2777 1104.2 57.2996 1099.31 57.2996H1091.76V147.844C1091.76 151.337 1092.74 154.062 1094.69 156.018C1096.65 157.974 1099.45 158.952 1103.08 158.952V160H1065.77V158.952C1069.4 158.952 1072.2 157.974 1074.15 156.018C1076.11 154.062 1077.09 151.337 1077.09 147.844V61.701C1077.09 60.8627 1077.02 60.0942 1076.88 59.3955C1076.88 58.6969 1076.88 57.9982 1076.88 57.2996H1066.61V55.2037H1076.67C1076.39 52.8283 1075.97 50.7323 1075.41 48.9159C1074.85 47.0994 1074.29 45.3528 1073.74 43.6761C1073.32 41.8596 1072.9 40.113 1072.48 38.4362C1072.2 36.6198 1072.06 34.5937 1072.06 32.3581C1072.06 26.9086 1074.08 22.3675 1078.14 18.7345C1082.33 15.1016 1087.57 13.2851 1093.86 13.2851C1097.07 13.2851 1100.35 13.844 1103.71 14.9619C1107.06 15.94 1110.06 17.3372 1112.72 19.1537C1115.51 20.8305 1117.89 22.7867 1119.85 25.0223C1121.8 27.1182 1123.06 29.3539 1123.62 31.7293ZM1218.72 147.844C1218.72 151.337 1219.7 154.062 1221.65 156.018C1223.61 157.974 1226.4 158.952 1230.04 158.952V160H1204.05V112.003C1201.67 127.653 1197.34 139.6 1191.05 147.844C1184.9 155.948 1177.15 160 1167.79 160C1163.04 160 1158.64 159.231 1154.58 157.694C1150.53 156.018 1146.97 153.782 1143.89 150.988C1140.96 148.053 1138.65 144.63 1136.98 140.717C1135.3 136.805 1134.46 132.543 1134.46 127.932V76.5821C1134.46 74.2067 1133.83 72.4601 1132.58 71.3423C1131.32 70.0847 1129.71 69.456 1127.76 69.456C1125.38 69.456 1123.01 70.1546 1120.63 71.5519V70.2943L1148.09 55.2037H1149.13V127.513C1149.13 147.075 1156.19 156.856 1170.3 156.856C1179.8 156.856 1187.42 151.686 1193.15 141.346C1198.88 131.006 1202.51 115.986 1204.05 96.2838V76.3725L1203.84 76.5821C1203.84 74.2067 1203.21 72.4601 1201.95 71.3423C1200.69 70.0847 1199.09 69.456 1197.13 69.456C1194.76 69.456 1192.38 70.1546 1190.01 71.5519V70.2943L1217.46 55.2037H1218.51V55.4132L1218.72 55.2037V147.844ZM1233.2 28.3758L1260.87 13.2851H1261.91V147.844C1261.91 151.337 1262.89 154.062 1264.85 156.018C1266.8 157.974 1269.6 158.952 1273.23 158.952V160H1235.92V158.952C1239.56 158.952 1242.35 157.974 1244.31 156.018C1246.26 154.062 1247.24 151.337 1247.24 147.844V34.6636C1247.24 32.2882 1246.61 30.5416 1245.36 29.4238C1244.1 28.1662 1242.42 27.5374 1240.33 27.5374C1238.23 27.5374 1235.85 28.2361 1233.2 29.6333V28.3758ZM1276.39 28.3758L1304.05 13.2851H1305.1V147.844C1305.1 151.337 1306.08 154.062 1308.04 156.018C1309.99 157.974 1312.79 158.952 1316.42 158.952V160H1279.11V158.952C1282.74 158.952 1285.54 157.974 1287.5 156.018C1289.45 154.062 1290.43 151.337 1290.43 147.844V34.6636C1290.43 32.2882 1289.8 30.5416 1288.54 29.4238C1287.29 28.1662 1285.61 27.5374 1283.51 27.5374C1281.42 27.5374 1279.04 28.2361 1276.39 29.6333V28.3758Z" fill="#6CA8EE"/>
</g>
<defs>
<clipPath id="clip0_5435_12">
<rect width="1645" height="368" fill="white"/>
</clipPath>
</defs>
</svg>
