<svg width="1645" height="368" viewBox="0 0 1645 368" fill="none" xmlns="http://www.w3.org/2000/svg">
<path d="M375.166 169.123C367.9 169.123 361.193 170.8 355.045 174.154C348.897 177.507 343.517 182.188 338.906 188.196C334.435 194.205 330.872 201.331 328.217 209.575C325.702 217.679 324.444 226.552 324.444 236.193C324.444 246.952 326.121 257.083 329.474 266.584C332.968 276.086 337.648 284.399 343.517 291.526C349.386 298.512 356.232 304.101 364.057 308.293C372.022 312.345 380.475 314.371 389.418 314.371C401.295 314.371 411.355 311.297 419.599 305.149C427.983 299.001 435.179 289.36 441.187 276.225H441.816C438.463 283.631 434.83 289.919 430.917 295.089C427.145 300.259 422.883 304.52 418.132 307.874C413.381 311.088 408.142 313.463 402.413 315C396.684 316.397 390.117 317.096 382.711 317.096C371.812 317.096 361.682 315.21 352.32 311.437C343.098 307.525 334.994 302.145 328.007 295.298C321.161 288.452 315.781 280.417 311.869 271.195C307.956 261.973 306 252.052 306 241.433C306 231.093 307.886 221.382 311.659 212.3C315.432 203.217 320.532 195.253 326.959 188.406C333.387 181.559 340.932 176.18 349.595 172.267C358.258 168.355 367.481 166.399 377.262 166.399C383.27 166.399 388.719 167.028 393.61 168.285C398.5 169.403 402.902 170.94 406.814 172.896C410.726 174.852 414.22 177.088 417.294 179.603C420.368 182.118 423.023 184.703 425.258 187.358C430.708 193.506 434.83 200.493 437.624 208.317C434.55 210.413 432.105 211.88 430.288 212.719C428.472 213.417 426.516 213.767 424.42 213.767C422.184 213.767 420.158 212.649 418.342 210.413C416.525 208.178 414.709 205.453 412.892 202.239C411.076 198.886 409.12 195.323 407.024 191.55C404.928 187.638 402.413 184.074 399.478 180.861C396.544 177.507 393.121 174.713 389.208 172.477C385.296 170.241 380.615 169.123 375.166 169.123ZM440.066 183.376L467.732 168.285H468.78V302.844C468.78 306.337 469.758 309.062 471.714 311.018C473.67 312.974 476.465 313.952 480.098 313.952V315H442.79V313.952C446.423 313.952 449.218 312.974 451.174 311.018C453.13 309.062 454.108 306.337 454.108 302.844V189.664C454.108 187.288 453.48 185.542 452.222 184.424C450.964 183.166 449.288 182.537 447.192 182.537C445.096 182.537 442.72 183.236 440.066 184.633V183.376ZM493.676 269.938L557.811 251.493C553.759 223.967 543.209 210.204 526.162 210.204C521.412 210.204 516.94 211.461 512.748 213.976C508.696 216.352 505.133 219.705 502.059 224.037C499.125 228.368 496.819 233.538 495.143 239.547C493.466 245.415 492.628 251.773 492.628 258.62C492.628 262.253 492.977 266.025 493.676 269.938ZM476.908 262.602C476.908 255.056 478.236 248 480.89 241.433C483.545 234.866 487.178 229.137 491.789 224.246C496.4 219.216 501.78 215.304 507.928 212.509C514.076 209.575 520.573 208.108 527.42 208.108C533.847 208.108 539.786 209.156 545.235 211.252C550.824 213.348 555.575 216.282 559.488 220.055C563.54 223.687 566.684 228.089 568.919 233.259C571.295 238.289 572.482 243.808 572.482 249.817L494.095 272.033C495.352 277.902 497.308 283.282 499.963 288.172C502.618 292.923 505.902 297.045 509.814 300.538C513.727 304.031 518.058 306.756 522.809 308.712C527.699 310.668 532.869 311.647 538.319 311.647C552.571 311.647 564.448 303.752 573.95 287.963H574.369C570.456 297.185 564.867 304.381 557.601 309.551C550.335 314.581 542.022 317.096 532.66 317.096C524.695 317.096 517.29 315.769 510.443 313.114C503.596 310.319 497.658 306.477 492.628 301.586C487.737 296.696 483.895 290.967 481.1 284.399C478.305 277.693 476.908 270.427 476.908 262.602ZM589.718 228.648C590.137 226.272 591.325 224.037 593.281 221.941C595.377 219.705 597.892 217.749 600.826 216.072C603.901 214.256 607.394 212.858 611.306 211.88C615.358 210.763 619.55 210.204 623.882 210.204C633.942 210.204 641.977 212.719 647.985 217.749C654.133 222.779 657.207 229.486 657.207 237.87V302.844C657.207 306.337 658.185 309.062 660.141 311.018C662.097 312.974 664.892 313.952 668.525 313.952V315H649.662C644.911 315 642.535 312.066 642.535 306.197V282.723C638.902 292.783 634.012 300.678 627.864 306.407C621.716 312.136 614.869 315 607.324 315C598.242 315 591.325 313.253 586.574 309.76C581.963 306.267 579.658 301.167 579.658 294.46C579.658 289.011 580.985 284.469 583.64 280.836C586.434 277.203 589.928 274.06 594.12 271.405C598.311 268.75 602.922 266.374 607.953 264.279C613.123 262.043 618.013 259.668 622.624 257.152C627.235 254.637 631.357 251.773 634.99 248.559C638.623 245.206 641.138 241.084 642.535 236.193V235.984C642.535 228.438 641.068 222.639 638.134 218.587C635.339 214.396 631.497 212.3 626.606 212.3C623.532 212.3 621.157 212.858 619.48 213.976C617.803 215.094 616.476 216.491 615.498 218.168C614.66 219.845 613.961 221.661 613.402 223.618C612.983 225.434 612.424 227.181 611.725 228.857C611.166 230.534 610.328 231.931 609.21 233.049C608.232 234.167 606.625 234.726 604.39 234.726C599.08 234.726 594.189 232.7 589.718 228.648ZM642.535 241.643C640.719 245.275 638.274 248.559 635.2 251.493C632.265 254.288 629.052 257.013 625.558 259.668C622.065 262.322 618.502 264.907 614.869 267.422C611.376 269.938 608.162 272.662 605.228 275.597C602.433 278.391 600.128 281.465 598.311 284.819C596.495 288.172 595.587 292.015 595.587 296.346C595.587 301.237 596.914 305.079 599.569 307.874C602.224 310.529 605.857 311.856 610.468 311.856C617.314 311.856 623.532 308.712 629.121 302.424C634.711 296.137 639.182 287.753 642.535 277.273V241.643ZM671.764 225.294L699.43 210.204H700.478V268.051C701.736 259.248 703.622 251.284 706.137 244.158C708.652 237.032 711.586 230.953 714.94 225.923C718.433 220.893 722.345 217.05 726.677 214.396C731.148 211.601 735.899 210.204 740.929 210.204C749.732 210.204 756.719 212.789 761.889 217.959C767.198 223.129 769.853 230.045 769.853 238.708V302.844C769.853 306.337 770.831 309.062 772.787 311.018C774.883 312.974 777.678 313.952 781.171 313.952V315H743.864V313.952C747.497 313.952 750.291 312.974 752.247 311.018C754.204 309.062 755.182 306.337 755.182 302.844V236.612C755.182 229.207 753.715 223.478 750.78 219.426C747.846 215.374 743.724 213.348 738.414 213.348C733.384 213.348 728.703 215.094 724.372 218.587C720.18 221.941 716.407 226.761 713.054 233.049C709.84 239.197 707.115 246.673 704.879 255.476C702.784 264.279 701.316 274.06 700.478 284.819V302.844C700.478 306.337 701.456 309.062 703.412 311.018C705.368 312.974 708.163 313.952 711.796 313.952V315H674.488V313.952C678.121 313.952 680.916 312.974 682.872 311.018C684.828 309.062 685.807 306.337 685.807 302.844V231.582C685.807 229.207 685.178 227.46 683.92 226.342C682.663 225.085 680.986 224.456 678.89 224.456C676.794 224.456 674.419 225.155 671.764 226.552V225.294ZM786.162 231.792C786.162 228.578 786.931 225.574 788.468 222.779C790.144 219.985 792.38 217.609 795.175 215.653C798.109 213.557 801.532 211.95 805.445 210.832C809.357 209.715 813.549 209.156 818.02 209.156C825.146 209.156 831.225 210.413 836.255 212.928C841.425 215.304 845.686 217.889 849.04 220.683C852.952 224.177 856.306 228.089 859.1 232.42C856.585 233.678 854.489 234.586 852.813 235.145C851.276 235.564 849.739 235.774 848.202 235.774C846.106 235.774 844.289 235.215 842.752 234.097C841.215 232.84 839.748 231.303 838.351 229.486C836.953 227.67 835.556 225.714 834.159 223.618C832.901 221.382 831.434 219.356 829.757 217.539C828.081 215.723 826.124 214.256 823.889 213.138C821.653 211.88 818.998 211.252 815.924 211.252C811.732 211.252 808.169 212.789 805.235 215.863C802.301 218.937 800.834 222.779 800.834 227.39C800.834 231.722 802.301 235.634 805.235 239.127C808.309 242.621 812.082 245.974 816.553 249.188C821.024 252.262 825.845 255.336 831.015 258.41C836.325 261.344 841.215 264.418 845.686 267.632C850.158 270.706 853.861 274.129 856.795 277.902C859.869 281.535 861.406 285.587 861.406 290.058C861.406 293.831 860.498 297.324 858.681 300.538C857.004 303.612 854.559 306.337 851.345 308.712C848.271 310.948 844.569 312.764 840.237 314.162C836.045 315.419 831.434 316.048 826.404 316.048C821.234 316.048 815.924 315.279 810.475 313.742C805.165 312.066 800.205 309.9 795.594 307.245C791.122 304.59 787.28 301.656 784.066 298.442C780.992 295.089 779.036 291.665 778.198 288.172C780.433 287.054 782.389 286.286 784.066 285.867C785.743 285.308 787.559 285.028 789.516 285.028C792.031 285.028 794.127 285.727 795.803 287.124C797.62 288.521 799.297 290.338 800.834 292.574C802.371 294.67 803.908 296.975 805.445 299.49C807.121 302.005 808.938 304.381 810.894 306.616C812.99 308.712 815.365 310.459 818.02 311.856C820.815 313.253 824.168 313.952 828.081 313.952C833.53 313.952 838.001 312.415 841.495 309.341C844.988 306.267 846.734 302.355 846.734 297.604C846.734 293.272 845.197 289.36 842.123 285.867C839.189 282.373 835.486 279.02 831.015 275.806C826.544 272.592 821.653 269.449 816.343 266.374C811.173 263.3 806.353 260.017 801.882 256.524C797.41 253.03 793.638 249.328 790.564 245.415C787.629 241.363 786.162 236.822 786.162 231.792ZM874.949 182.537C874.949 179.324 876.067 176.599 878.303 174.363C880.538 172.128 883.263 171.01 886.477 171.01C889.691 171.01 892.415 172.128 894.651 174.363C896.887 176.599 898.004 179.324 898.004 182.537C898.004 185.751 896.887 188.476 894.651 190.712C892.415 192.947 889.691 194.065 886.477 194.065C883.263 194.065 880.538 192.947 878.303 190.712C876.067 188.476 874.949 185.751 874.949 182.537ZM868.871 225.294L896.537 210.204H897.585V302.844C897.585 306.337 898.563 309.062 900.519 311.018C902.476 312.974 905.27 313.952 908.903 313.952V315H871.596V313.952C875.229 313.952 878.023 312.974 879.979 311.018C881.936 309.062 882.914 306.337 882.914 302.844V231.582C882.914 229.207 882.285 227.46 881.027 226.342C879.77 225.085 878.093 224.456 875.997 224.456C873.901 224.456 871.526 225.155 868.871 226.552V225.294ZM912.059 225.294L939.725 210.204H940.773V268.051C942.03 259.248 943.917 251.284 946.432 244.158C948.947 237.032 951.881 230.953 955.235 225.923C958.728 220.893 962.64 217.05 966.972 214.396C971.443 211.601 976.194 210.204 981.224 210.204C990.027 210.204 997.013 212.789 1002.18 217.959C1007.49 223.129 1010.15 230.045 1010.15 238.708V302.844C1010.15 306.337 1011.13 309.062 1013.08 311.018C1015.18 312.974 1017.97 313.952 1021.47 313.952V315H984.158V313.952C987.791 313.952 990.586 312.974 992.542 311.018C994.498 309.062 995.476 306.337 995.476 302.844V236.612C995.476 229.207 994.009 223.478 991.075 219.426C988.141 215.374 984.019 213.348 978.709 213.348C973.679 213.348 968.998 215.094 964.666 218.587C960.474 221.941 956.702 226.761 953.348 233.049C950.135 239.197 947.41 246.673 945.174 255.476C943.078 264.279 941.611 274.06 940.773 284.819V302.844C940.773 306.337 941.751 309.062 943.707 311.018C945.663 312.974 948.458 313.952 952.091 313.952V315H914.783V313.952C918.416 313.952 921.211 312.974 923.167 311.018C925.123 309.062 926.101 306.337 926.101 302.844V231.582C926.101 229.207 925.472 227.46 924.215 226.342C922.957 225.085 921.281 224.456 919.185 224.456C917.089 224.456 914.713 225.155 912.059 226.552V225.294ZM1022.59 327.995C1022.59 325.06 1023.14 322.336 1024.26 319.821C1025.52 317.306 1027.2 315.14 1029.29 313.323C1031.39 311.367 1033.76 309.83 1036.42 308.712C1039.21 307.594 1042.15 307.035 1045.22 307.035C1050.39 307.035 1054.79 308.083 1058.43 310.179C1062.2 312.136 1065.9 314.301 1069.53 316.677C1073.31 319.052 1077.43 321.218 1081.9 323.174C1086.51 325.27 1092.24 326.318 1099.09 326.318C1103.42 326.318 1107.12 325.27 1110.2 323.174C1113.27 321.078 1114.81 318.493 1114.81 315.419C1114.81 313.323 1113.9 311.367 1112.08 309.551C1110.41 307.594 1108.03 305.918 1104.96 304.52C1101.88 303.123 1098.18 302.075 1093.85 301.376C1089.66 300.538 1085.04 300.119 1080.01 300.119C1073.31 300.119 1066.95 298.861 1060.94 296.346C1054.93 293.831 1049.62 290.408 1045.01 286.076C1040.54 281.745 1036.98 276.714 1034.32 270.986C1031.81 265.257 1030.55 259.178 1030.55 252.751C1030.55 246.603 1031.74 240.804 1034.11 235.355C1036.49 229.905 1039.77 225.224 1043.96 221.312C1048.16 217.26 1053.05 214.116 1058.64 211.88C1064.36 209.505 1070.44 208.317 1076.87 208.317C1083.44 208.317 1089.45 209.435 1094.9 211.671C1095.59 211.811 1096.22 211.95 1096.78 212.09C1097.34 212.09 1097.97 212.09 1098.67 212.09C1100.9 212.09 1103.07 211.671 1105.17 210.832C1107.26 209.854 1108.59 208.667 1109.15 207.269C1109.85 205.732 1110.13 204.125 1109.99 202.449C1109.85 200.632 1109.5 198.816 1108.94 196.999C1108.38 195.043 1108.03 193.227 1107.89 191.55C1107.75 189.733 1107.96 188.057 1108.52 186.52C1109.08 184.983 1110.34 183.795 1112.29 182.957C1113.41 182.398 1114.67 182.048 1116.06 181.909C1117.46 181.629 1118.93 181.489 1120.47 181.489C1123.54 181.489 1126.12 181.909 1128.22 182.747C1128.64 185.122 1128.43 187.707 1127.59 190.502C1126.75 193.297 1125.36 196.091 1123.4 198.886C1121.58 201.54 1119.35 204.056 1116.69 206.431C1114.04 208.667 1111.24 210.413 1108.31 211.671C1105.79 212.789 1102.93 213.487 1099.72 213.767C1107.68 217.819 1114.11 223.548 1119 230.953C1123.89 238.359 1126.33 246.603 1126.33 255.685C1126.33 260.576 1125.57 265.257 1124.03 269.728C1122.49 274.199 1120.33 278.251 1117.53 281.884C1114.74 285.517 1111.45 288.731 1107.68 291.526C1103.91 294.18 1099.72 296.276 1095.1 297.813C1099.86 298.093 1104.19 298.791 1108.1 299.909C1112.15 300.887 1115.58 302.145 1118.37 303.682C1121.16 305.219 1123.33 306.966 1124.87 308.922C1126.54 310.878 1127.38 313.044 1127.38 315.419C1127.38 317.515 1126.75 319.401 1125.5 321.078C1124.38 322.895 1122.77 324.432 1120.68 325.689C1118.58 327.087 1116.13 328.134 1113.34 328.833C1110.68 329.671 1107.75 330.091 1104.54 330.091C1101.32 330.091 1098.32 329.811 1095.52 329.252C1092.73 328.833 1090.07 328.274 1087.56 327.576C1083.09 334.283 1077.85 339.522 1071.84 343.295C1065.83 347.068 1059.89 348.954 1054.02 348.954C1033.07 348.954 1022.59 341.968 1022.59 327.995ZM1045.22 246.254C1045.22 252.821 1046.34 259.178 1048.58 265.327C1050.81 271.475 1053.75 276.924 1057.38 281.675C1061.01 286.426 1065.2 290.268 1069.95 293.202C1074.7 295.997 1079.6 297.394 1084.63 297.394C1088.4 297.394 1091.96 296.486 1095.31 294.67C1098.67 292.853 1101.53 290.408 1103.91 287.334C1106.28 284.12 1108.17 280.417 1109.57 276.225C1110.96 271.894 1111.66 267.213 1111.66 262.183C1111.66 255.615 1110.54 249.258 1108.31 243.11C1106.07 236.962 1103.14 231.512 1099.51 226.761C1095.87 222.011 1091.68 218.238 1086.93 215.443C1082.18 212.509 1077.29 211.042 1072.26 211.042C1068.49 211.042 1064.92 211.95 1061.57 213.767C1058.22 215.443 1055.35 217.889 1052.98 221.102C1050.6 224.176 1048.72 227.879 1047.32 232.211C1045.92 236.542 1045.22 241.223 1045.22 246.254ZM1086.09 327.156C1082.18 325.759 1078.55 324.082 1075.19 322.126C1071.98 320.31 1068.91 318.563 1065.97 316.886C1063.04 315.21 1060.17 313.812 1057.38 312.694C1054.72 311.437 1052 310.808 1049.2 310.808C1045.15 310.808 1041.8 312.415 1039.14 315.629C1036.49 318.982 1035.16 323.174 1035.16 328.204C1035.16 333.793 1036.91 338.335 1040.4 341.828C1043.89 345.461 1048.37 347.277 1053.82 347.277C1059.54 347.277 1064.99 345.67 1070.16 342.457C1075.33 339.243 1080.64 334.143 1086.09 327.156ZM1190.42 168.285H1279.29L1283.69 193.855H1283.06C1281.67 189.524 1280.06 185.891 1278.24 182.957C1276.43 179.883 1274.26 177.437 1271.75 175.621C1269.23 173.804 1266.23 172.477 1262.73 171.639C1259.24 170.8 1255.12 170.381 1250.37 170.381H1218.51V237.241H1250.79C1254.98 237.241 1257.98 236.403 1259.8 234.726C1261.76 233.049 1263.01 230.115 1263.57 225.923H1264.2V250.655H1263.57C1263.01 246.463 1261.76 243.529 1259.8 241.852C1257.98 240.175 1254.98 239.337 1250.79 239.337H1218.51V302.844C1218.51 306.477 1219.49 309.271 1221.44 311.227C1223.4 313.044 1226.19 313.952 1229.83 313.952V315H1190.42V313.952C1194.06 313.952 1196.85 313.044 1198.81 311.227C1200.76 309.271 1201.74 306.477 1201.74 302.844V180.441C1201.74 176.809 1200.76 174.084 1198.81 172.267C1196.85 170.311 1194.06 169.333 1190.42 169.333V168.285ZM1285.94 252.961C1285.94 260.785 1287.13 268.401 1289.51 275.806C1292.02 283.212 1295.24 289.779 1299.15 295.508C1303.2 301.097 1307.81 305.638 1312.98 309.131C1318.15 312.485 1323.53 314.162 1329.12 314.162C1333.31 314.162 1337.22 313.114 1340.86 311.018C1344.49 308.922 1347.56 305.988 1350.08 302.215C1352.73 298.442 1354.83 294.041 1356.37 289.011C1357.9 283.841 1358.67 278.251 1358.67 272.243C1358.67 264.418 1357.42 256.803 1354.9 249.397C1352.52 241.992 1349.31 235.495 1345.26 229.905C1341.35 224.176 1336.81 219.635 1331.64 216.282C1326.47 212.789 1321.16 211.042 1315.71 211.042C1311.51 211.042 1307.6 212.09 1303.97 214.186C1300.34 216.282 1297.19 219.216 1294.54 222.989C1291.88 226.761 1289.79 231.233 1288.25 236.403C1286.71 241.433 1285.94 246.952 1285.94 252.961ZM1323.88 316.886C1316.75 316.886 1309.98 315.419 1303.55 312.485C1297.12 309.411 1291.53 305.359 1286.78 300.329C1282.03 295.159 1278.26 289.22 1275.46 282.513C1272.67 275.666 1271.27 268.401 1271.27 260.715C1271.27 253.45 1272.53 246.673 1275.05 240.385C1277.7 233.957 1281.26 228.368 1285.73 223.618C1290.21 218.867 1295.45 215.164 1301.45 212.509C1307.46 209.715 1313.89 208.317 1320.74 208.317C1327.86 208.317 1334.64 209.854 1341.07 212.928C1347.49 215.863 1353.08 219.915 1357.83 225.085C1362.59 230.115 1366.36 236.053 1369.15 242.9C1371.95 249.607 1373.34 256.803 1373.34 264.488C1373.34 271.754 1372.02 278.601 1369.36 285.028C1366.85 291.316 1363.35 296.835 1358.88 301.586C1354.41 306.337 1349.17 310.11 1343.16 312.904C1337.15 315.559 1330.73 316.886 1323.88 316.886ZM1386.74 228.648C1387.16 226.272 1388.35 224.037 1390.31 221.941C1392.4 219.705 1394.92 217.749 1397.85 216.072C1400.93 214.256 1404.42 212.858 1408.33 211.88C1412.38 210.763 1416.58 210.204 1420.91 210.204C1430.97 210.204 1439 212.719 1445.01 217.749C1451.16 222.779 1454.23 229.486 1454.23 237.87V302.844C1454.23 306.337 1455.21 309.062 1457.17 311.018C1459.12 312.974 1461.92 313.952 1465.55 313.952V315H1446.69C1441.94 315 1439.56 312.066 1439.56 306.197V282.723C1435.93 292.783 1431.04 300.678 1424.89 306.407C1418.74 312.136 1411.89 315 1404.35 315C1395.27 315 1388.35 313.253 1383.6 309.76C1378.99 306.267 1376.68 301.167 1376.68 294.46C1376.68 289.011 1378.01 284.469 1380.67 280.836C1383.46 277.203 1386.95 274.06 1391.14 271.405C1395.34 268.75 1399.95 266.374 1404.98 264.279C1410.15 262.043 1415.04 259.668 1419.65 257.152C1424.26 254.637 1428.38 251.773 1432.02 248.559C1435.65 245.206 1438.16 241.084 1439.56 236.193V235.984C1439.56 228.438 1438.09 222.639 1435.16 218.587C1432.36 214.396 1428.52 212.3 1423.63 212.3C1420.56 212.3 1418.18 212.858 1416.51 213.976C1414.83 215.094 1413.5 216.491 1412.52 218.168C1411.68 219.845 1410.99 221.661 1410.43 223.618C1410.01 225.434 1409.45 227.181 1408.75 228.857C1408.19 230.534 1407.35 231.931 1406.24 233.049C1405.26 234.167 1403.65 234.726 1401.41 234.726C1396.11 234.726 1391.21 232.7 1386.74 228.648ZM1439.56 241.643C1437.74 245.275 1435.3 248.559 1432.22 251.493C1429.29 254.288 1426.08 257.013 1422.58 259.668C1419.09 262.322 1415.53 264.907 1411.89 267.422C1408.4 269.938 1405.19 272.662 1402.25 275.597C1399.46 278.391 1397.15 281.465 1395.34 284.819C1393.52 288.172 1392.61 292.015 1392.61 296.346C1392.61 301.237 1393.94 305.079 1396.59 307.874C1399.25 310.529 1402.88 311.856 1407.49 311.856C1414.34 311.856 1420.56 308.712 1426.15 302.424C1431.74 296.137 1436.21 287.753 1439.56 277.273V241.643ZM1468.79 225.294L1496.46 210.204H1497.5V264.488C1499.88 247.022 1504.14 233.608 1510.29 224.246C1516.44 214.885 1524.26 210.204 1533.76 210.204C1542.57 210.204 1549.55 212.789 1554.72 217.959C1560.03 223.129 1562.69 230.045 1562.69 238.708V265.327C1565.06 247.721 1569.32 234.167 1575.47 224.666C1581.76 215.024 1589.65 210.204 1599.16 210.204C1607.96 210.204 1614.95 212.789 1620.11 217.959C1625.42 223.129 1628.08 230.045 1628.08 238.708V302.844C1628.08 306.337 1629.06 309.062 1631.01 311.018C1633.11 312.974 1635.9 313.952 1639.4 313.952V315H1602.09V313.952C1605.72 313.952 1608.52 312.974 1610.47 311.018C1612.43 309.062 1613.41 306.337 1613.41 302.844V236.612C1613.41 229.207 1611.94 223.478 1609.01 219.426C1606.07 215.374 1601.95 213.348 1596.64 213.348C1592.03 213.348 1587.77 214.954 1583.86 218.168C1580.08 221.382 1576.73 226.063 1573.8 232.211C1570.86 238.219 1568.42 245.625 1566.46 254.428C1564.64 263.091 1563.39 272.942 1562.69 283.98V302.844C1562.69 306.337 1563.66 309.062 1565.62 311.018C1567.72 312.974 1570.51 313.952 1574 313.952V315H1536.7V313.952C1540.33 313.952 1543.12 312.974 1545.08 311.018C1547.04 309.062 1548.02 306.337 1548.02 302.844V236.612C1548.02 229.207 1546.55 223.478 1543.61 219.426C1540.68 215.374 1536.56 213.348 1531.25 213.348C1526.64 213.348 1522.37 214.954 1518.46 218.168C1514.69 221.242 1511.34 225.783 1508.4 231.792C1505.61 237.66 1503.23 244.856 1501.28 253.38C1499.46 261.903 1498.2 271.544 1497.5 282.304V302.844C1497.5 306.337 1498.48 309.062 1500.44 311.018C1502.39 312.974 1505.19 313.952 1508.82 313.952V315H1471.51V313.952C1475.15 313.952 1477.94 312.974 1479.9 311.018C1481.85 309.062 1482.83 306.337 1482.83 302.844V231.582C1482.83 229.207 1482.2 227.46 1480.95 226.342C1479.69 225.085 1478.01 224.456 1475.92 224.456C1473.82 224.456 1471.44 225.155 1468.79 226.552V225.294Z" fill="#6CA8EE"/>
<path d="M0 13.2851H24.7319L66.8601 90.2056L107.94 13.2851H134.139V14.3331C130.506 14.3331 127.712 15.3112 125.756 17.2674C123.799 19.0838 122.821 21.8086 122.821 25.4415V147.844C122.821 151.477 123.799 154.271 125.756 156.227C127.712 158.044 130.506 158.952 134.139 158.952V160H94.7359V158.952C98.3688 158.952 101.163 158.044 103.12 156.227C105.076 154.271 106.054 151.477 106.054 147.844V20.8305L67.908 92.5112L80.9028 115.986C83.8371 121.435 85.3741 126.814 85.5138 132.124C85.7933 137.294 84.885 141.975 82.7891 146.167C80.6932 150.219 77.6192 153.572 73.567 156.227C69.5149 158.742 64.6943 160 59.1051 160C55.3325 160 52.1187 159.162 49.4639 157.485C46.809 155.808 44.8528 153.642 43.5953 150.988C42.3377 148.193 41.7788 145.049 41.9185 141.556C42.0583 138.063 43.1062 134.5 45.0624 130.867L57.4284 108.021L13.4139 29.8429V117.662C13.4139 125.767 13.8331 132.543 14.6715 137.993C15.5099 143.302 16.977 147.494 19.0729 150.568C21.1689 153.642 24.0333 155.808 27.6662 157.066C31.2992 158.323 35.9102 158.952 41.4994 158.952V160H0V158.952C3.63294 158.952 6.42751 158.044 8.38371 156.227C10.3399 154.271 11.318 151.477 11.318 147.844V25.4415C11.318 21.8086 10.3399 19.0838 8.38371 17.2674C6.42751 15.3112 3.63294 14.3331 0 14.3331V13.2851ZM47.5775 130.867C45.7611 134.22 44.7131 137.574 44.4337 140.927C44.1542 144.141 44.5035 147.005 45.4816 149.52C46.4597 152.035 48.0666 154.062 50.3022 155.599C52.5379 157.136 55.2626 157.904 58.4764 157.904C61.8298 157.904 64.5545 156.926 66.6505 154.97C68.7464 153.014 70.1437 150.429 70.8423 147.215C71.6807 144.001 71.7506 140.438 71.0519 136.526C70.3533 132.473 68.8163 128.352 66.4409 124.16L58.686 110.117L47.5775 130.867ZM144.126 73.6478C144.545 71.2724 145.733 69.0368 147.689 66.9408C149.785 64.7052 152.3 62.749 155.234 61.0722C158.309 59.2558 161.802 57.8585 165.714 56.8804C169.766 55.7626 173.958 55.2037 178.29 55.2037C188.35 55.2037 196.385 57.7188 202.393 62.749C208.541 67.7792 211.615 74.4862 211.615 82.8699V147.844C211.615 151.337 212.593 154.062 214.549 156.018C216.505 157.974 219.3 158.952 222.933 158.952V160H204.07C199.319 160 196.943 157.066 196.943 151.197V127.723C193.31 137.783 188.42 145.678 182.272 151.407C176.124 157.136 169.277 160 161.732 160C152.65 160 145.733 158.253 140.982 154.76C136.371 151.267 134.066 146.167 134.066 139.46C134.066 134.011 135.393 129.469 138.048 125.836C140.842 122.203 144.336 119.06 148.528 116.405C152.719 113.75 157.33 111.374 162.361 109.279C167.531 107.043 172.421 104.668 177.032 102.152C181.643 99.6373 185.765 96.7729 189.398 93.5591C193.031 90.2056 195.546 86.0836 196.943 81.1931V80.9836C196.943 73.4382 195.476 67.6395 192.542 63.5874C189.747 59.3955 185.905 57.2996 181.014 57.2996C177.94 57.2996 175.565 57.8585 173.888 58.9763C172.211 60.0941 170.884 61.4914 169.906 63.1682C169.068 64.8449 168.369 66.6614 167.81 68.6176C167.391 70.4341 166.832 72.1807 166.133 73.8574C165.574 75.5341 164.736 76.9314 163.618 78.0493C162.64 79.1671 161.033 79.726 158.798 79.726C153.488 79.726 148.597 77.6999 144.126 73.6478ZM196.943 86.6426C195.127 90.2755 192.682 93.5591 189.608 96.4934C186.673 99.288 183.46 102.013 179.966 104.668C176.473 107.322 172.91 109.907 169.277 112.422C165.784 114.938 162.57 117.662 159.636 120.597C156.841 123.391 154.536 126.465 152.719 129.819C150.903 133.172 149.995 137.015 149.995 141.346C149.995 146.237 151.322 150.079 153.977 152.874C156.632 155.529 160.265 156.856 164.876 156.856C171.722 156.856 177.94 153.712 183.53 147.424C189.119 141.137 193.59 132.753 196.943 122.273V86.6426ZM233.409 153.083C233.409 149.87 234.457 147.215 236.553 145.119C238.789 143.023 241.444 141.975 244.518 141.975C247.731 141.975 250.386 143.023 252.482 145.119C254.578 147.215 255.626 149.87 255.626 153.083C255.626 156.157 254.578 158.742 252.482 160.838C250.386 163.074 247.731 164.192 244.518 164.192C241.444 164.192 238.789 163.074 236.553 160.838C234.457 158.742 233.409 156.157 233.409 153.083ZM233.409 80.5644C233.409 77.3506 234.457 74.6958 236.553 72.5998C238.789 70.3642 241.444 69.2464 244.518 69.2464C247.731 69.2464 250.386 70.3642 252.482 72.5998C254.578 74.6958 255.626 77.3506 255.626 80.5644C255.626 83.6384 254.578 86.2932 252.482 88.5289C250.386 90.6248 247.731 91.6728 244.518 91.6728C241.444 91.6728 238.789 90.6248 236.553 88.5289C234.457 86.2932 233.409 83.6384 233.409 80.5644ZM258.716 70.2943L286.382 55.2037H287.43V113.051C288.688 104.248 290.574 96.2838 293.089 89.1577C295.604 82.0315 298.539 75.9533 301.892 70.9231C305.385 65.8929 309.298 62.0503 313.629 59.3955C318.101 56.6009 322.851 55.2037 327.882 55.2037C336.684 55.2037 343.671 57.7886 348.841 62.9586C354.151 68.1285 356.805 75.0451 356.805 83.7083V147.844C356.805 151.337 357.783 154.062 359.74 156.018C361.836 157.974 364.63 158.952 368.123 158.952V160H330.816V158.952C334.449 158.952 337.243 157.974 339.2 156.018C341.156 154.062 342.134 151.337 342.134 147.844V81.6123C342.134 74.2067 340.667 68.4779 337.732 64.4257C334.798 60.3736 330.676 58.3475 325.366 58.3475C320.336 58.3475 315.655 60.0942 311.324 63.5874C307.132 66.9408 303.359 71.7615 300.006 78.0493C296.792 84.1973 294.067 91.6728 291.832 100.476C289.736 109.279 288.269 119.06 287.43 129.819V147.844C287.43 151.337 288.408 154.062 290.364 156.018C292.321 157.974 295.115 158.952 298.748 158.952V160H261.441V158.952C265.074 158.952 267.868 157.974 269.824 156.018C271.781 154.062 272.759 151.337 272.759 147.844V76.5821C272.759 74.2067 272.13 72.4601 270.872 71.3423C269.615 70.0847 267.938 69.456 265.842 69.456C263.746 69.456 261.371 70.1546 258.716 71.5519V70.2943ZM409.678 160H403.6L368.179 68.408C365.105 60.3037 359.935 56.2516 352.669 56.2516V55.2037H391.444V56.2516C387.811 56.2516 385.366 57.3694 384.108 59.6051C382.851 61.8408 382.92 64.7751 384.318 68.408L414.709 147.215L436.297 91.4632C441.187 78.6082 442.864 69.5258 441.327 64.2161C439.79 58.9065 434.55 56.2516 425.607 56.2516V55.2037H463.124V56.2516C455.859 56.2516 450.689 60.3037 447.615 68.408L404.648 179.702C401.854 186.688 398.78 191.579 395.426 194.373C392.212 197.307 388.02 198.775 382.851 198.775C379.637 198.775 376.353 198.216 373 197.098C369.646 196.12 366.572 194.792 363.778 193.116C360.983 191.439 358.608 189.483 356.651 187.247C354.695 185.151 353.508 182.915 353.088 180.54C355.883 178.165 358.398 176.488 360.634 175.51C363.009 174.671 365.384 174.252 367.76 174.252C371.113 174.252 373.279 175.37 374.257 177.606C375.235 179.981 375.934 182.566 376.353 185.361C376.912 188.295 377.681 190.88 378.659 193.116C379.776 195.491 382.012 196.679 385.366 196.679C388.999 196.679 392.073 195.351 394.588 192.696C397.243 190.042 399.758 185.71 402.133 179.702L409.678 160ZM462.307 97.9606C462.307 105.785 463.495 113.401 465.87 120.806C468.386 128.212 471.599 134.779 475.512 140.508C479.564 146.097 484.175 150.638 489.345 154.131C494.515 157.485 499.894 159.162 505.484 159.162C509.675 159.162 513.588 158.114 517.221 156.018C520.854 153.922 523.928 150.988 526.443 147.215C529.098 143.442 531.194 139.041 532.731 134.011C534.268 128.841 535.036 123.251 535.036 117.243C535.036 109.418 533.779 101.803 531.263 94.3975C528.888 86.9919 525.674 80.4945 521.622 74.9054C517.71 69.1765 513.169 64.6353 507.999 61.2818C502.829 57.7886 497.519 56.042 492.07 56.042C487.878 56.042 483.965 57.09 480.332 59.1859C476.699 61.2818 473.556 64.2161 470.901 67.9888C468.246 71.7615 466.15 76.2328 464.613 81.4027C463.076 86.433 462.307 91.9522 462.307 97.9606ZM500.244 161.886C493.118 161.886 486.341 160.419 479.913 157.485C473.486 154.411 467.897 150.359 463.146 145.329C458.395 140.159 454.622 134.22 451.828 127.513C449.033 120.666 447.636 113.401 447.636 105.715C447.636 98.4496 448.893 91.6728 451.409 85.385C454.063 78.9575 457.627 73.3684 462.098 68.6176C466.569 63.8668 471.809 60.164 477.817 57.5092C483.826 54.7146 490.253 53.3173 497.1 53.3173C504.226 53.3173 511.003 54.8543 517.43 57.9284C523.858 60.8627 529.447 64.9148 534.198 70.0847C538.948 75.115 542.721 81.0534 545.516 87.9001C548.31 94.6071 549.708 101.803 549.708 109.488C549.708 116.754 548.38 123.601 545.725 130.028C543.21 136.316 539.717 141.835 535.246 146.586C530.774 151.337 525.535 155.11 519.526 157.904C513.518 160.559 507.09 161.886 500.244 161.886ZM611.585 13.2851H662.516C669.223 13.2851 675.371 13.9838 680.96 15.381C686.549 16.7783 691.3 18.8044 695.212 21.4592C699.265 23.9743 702.408 27.0484 704.644 30.6813C706.88 34.1745 707.998 38.0869 707.998 42.4185C707.998 48.846 706.321 54.1557 702.967 58.3475C699.614 62.3997 695.352 66.0326 690.182 69.2464C685.152 72.3204 679.703 75.3246 673.834 78.2589C667.965 81.0534 662.446 84.5466 657.276 88.7385C652.246 92.7906 648.054 97.8208 644.701 103.829C641.347 109.698 639.67 117.243 639.67 126.465V147.844C639.67 151.477 640.648 154.271 642.605 156.227C644.561 158.044 647.355 158.952 650.988 158.952V160H611.585V158.952C615.218 158.952 618.012 158.044 619.969 156.227C621.925 154.271 622.903 151.477 622.903 147.844V25.4415C622.903 21.8086 621.925 19.0838 619.969 17.2674C618.012 15.3112 615.218 14.3331 611.585 14.3331V13.2851ZM639.67 110.746C641.347 105.017 643.722 100.266 646.796 96.4934C650.01 92.581 653.503 89.1577 657.276 86.2234C661.189 83.2891 665.101 80.6342 669.013 78.2589C673.065 75.8835 676.698 73.2286 679.912 70.2943C683.126 67.36 685.781 64.0065 687.877 60.2339C689.973 56.3215 691.021 51.5009 691.021 45.772C691.021 35.991 688.016 28.5155 682.008 23.3456C676 18.0359 667.337 15.381 656.019 15.381H639.67V110.746ZM797.896 147.844C797.896 151.337 798.874 154.062 800.831 156.018C802.787 157.974 805.581 158.952 809.214 158.952V160H783.225V112.003C780.85 127.653 776.518 139.6 770.23 147.844C764.082 155.948 756.327 160 746.965 160C742.215 160 737.813 159.231 733.761 157.694C729.709 156.018 726.146 153.782 723.072 150.988C720.137 148.053 717.832 144.63 716.155 140.717C714.478 136.805 713.64 132.543 713.64 127.932V76.5821C713.64 74.2067 713.011 72.4601 711.754 71.3423C710.496 70.0847 708.889 69.456 706.933 69.456C704.558 69.456 702.182 70.1546 699.807 71.5519V70.2943L727.264 55.2037H728.312V127.513C728.312 147.075 735.368 156.856 749.48 156.856C758.982 156.856 766.597 151.686 772.326 141.346C778.055 131.006 781.688 115.986 783.225 96.2838V76.3725L783.015 76.5821C783.015 74.2067 782.387 72.4601 781.129 71.3423C779.871 70.0847 778.265 69.456 776.308 69.456C773.933 69.456 771.558 70.1546 769.182 71.5519V70.2943L796.639 55.2037H797.687V55.4132L797.896 55.2037V147.844ZM812.376 70.2943L840.043 55.2037H841.091V87.4809C844.723 77.2807 849.404 69.3861 855.133 63.797C861.002 58.0681 867.709 55.2037 875.254 55.2037C883.358 55.2037 889.996 56.8804 895.165 60.2339C900.335 63.4476 903.34 67.9888 904.178 73.8574L885.943 86.0138C886.782 77.0712 886.013 70.2245 883.638 65.4737C881.402 60.7229 877.769 58.3475 872.739 58.3475C865.753 58.3475 859.535 61.4914 854.085 67.7792C848.776 74.067 844.444 82.8 841.091 93.9783V147.844C841.091 151.337 842.069 154.062 844.025 156.018C845.981 157.974 848.776 158.952 852.409 158.952V160H815.101V158.952C818.734 158.952 821.529 157.974 823.485 156.018C825.441 154.062 826.419 151.337 826.419 147.844V76.5821C826.419 74.2067 825.79 72.4601 824.533 71.3423C823.275 70.0847 821.598 69.456 819.502 69.456C817.407 69.456 815.031 70.1546 812.376 71.5519V70.2943ZM917.975 114.938L982.11 96.4934C978.058 68.9669 967.509 55.2037 950.462 55.2037C945.711 55.2037 941.24 56.4612 937.048 58.9763C932.996 61.3517 929.433 64.7052 926.359 69.0368C923.424 73.3684 921.119 78.5383 919.442 84.5466C917.765 90.4152 916.927 96.7729 916.927 103.62C916.927 107.253 917.276 111.025 917.975 114.938ZM901.208 107.602C901.208 100.056 902.535 93.0002 905.19 86.433C907.845 79.8657 911.478 74.1369 916.089 69.2464C920.7 64.2161 926.079 60.3037 932.227 57.5092C938.375 54.5749 944.873 53.1077 951.719 53.1077C958.147 53.1077 964.085 54.1557 969.535 56.2516C975.124 58.3475 979.875 61.2818 983.787 65.0545C987.839 68.6875 990.983 73.0889 993.219 78.2589C995.594 83.2891 996.782 88.8084 996.782 94.8167L918.394 117.033C919.652 122.902 921.608 128.282 924.263 133.172C926.918 137.923 930.201 142.045 934.114 145.538C938.026 149.031 942.358 151.756 947.108 153.712C951.999 155.668 957.169 156.647 962.618 156.647C976.871 156.647 988.747 148.752 998.249 132.963H998.668C994.756 142.185 989.167 149.381 981.901 154.551C974.635 159.581 966.321 162.096 956.959 162.096C948.995 162.096 941.589 160.769 934.742 158.114C927.896 155.319 921.957 151.477 916.927 146.586C912.037 141.696 908.194 135.967 905.399 129.399C902.605 122.693 901.208 115.427 901.208 107.602ZM1060.45 13.2851H1108.03C1118.09 13.2851 1127.59 15.3112 1136.53 19.3633C1145.61 23.4154 1153.51 28.8648 1160.21 35.7115C1166.92 42.5582 1172.23 50.5227 1176.14 59.6051C1180.2 68.6874 1182.22 78.3287 1182.22 88.5289C1182.22 98.4496 1180.34 107.742 1176.56 116.405C1172.79 125.068 1167.62 132.683 1161.05 139.25C1154.63 145.678 1147.08 150.778 1138.42 154.551C1129.75 158.184 1120.46 160 1110.54 160H1060.45V158.952C1064.08 158.952 1066.88 158.044 1068.83 156.227C1070.79 154.271 1071.77 151.477 1071.77 147.844V25.4415C1071.77 21.8086 1070.79 19.0838 1068.83 17.2674C1066.88 15.3112 1064.08 14.3331 1060.45 14.3331V13.2851ZM1117.04 157.275C1123.75 157.275 1129.96 155.668 1135.69 152.455C1141.42 149.241 1146.31 144.839 1150.36 139.25C1154.56 133.521 1157.84 126.745 1160.21 118.92C1162.59 111.095 1163.78 102.572 1163.78 93.3495C1163.78 82.8699 1162.17 72.9492 1158.96 63.5874C1155.88 54.2256 1151.62 46.0514 1146.17 39.065C1140.72 31.9389 1134.37 26.3497 1127.1 22.2976C1119.97 18.1057 1112.43 16.0098 1104.46 16.0098H1088.53V157.275H1117.04ZM1205.35 114.938L1269.48 96.4934C1265.43 68.9669 1254.88 55.2037 1237.83 55.2037C1233.08 55.2037 1228.61 56.4612 1224.42 58.9763C1220.37 61.3517 1216.8 64.7052 1213.73 69.0368C1210.8 73.3684 1208.49 78.5383 1206.81 84.5466C1205.14 90.4152 1204.3 96.7729 1204.3 103.62C1204.3 107.253 1204.65 111.025 1205.35 114.938ZM1188.58 107.602C1188.58 100.056 1189.91 93.0002 1192.56 86.433C1195.22 79.8657 1198.85 74.1369 1203.46 69.2464C1208.07 64.2161 1213.45 60.3037 1219.6 57.5092C1225.75 54.5749 1232.24 53.1077 1239.09 53.1077C1245.52 53.1077 1251.46 54.1557 1256.91 56.2516C1262.5 58.3475 1267.25 61.2818 1271.16 65.0545C1275.21 68.6875 1278.35 73.0889 1280.59 78.2589C1282.97 83.2891 1284.15 88.8084 1284.15 94.8167L1205.77 117.033C1207.02 122.902 1208.98 128.282 1211.63 133.172C1214.29 137.923 1217.57 142.045 1221.48 145.538C1225.4 149.031 1229.73 151.756 1234.48 153.712C1239.37 155.668 1244.54 156.647 1249.99 156.647C1264.24 156.647 1276.12 148.752 1285.62 132.963H1286.04C1282.13 142.185 1276.54 149.381 1269.27 154.551C1262.01 159.581 1253.69 162.096 1244.33 162.096C1236.37 162.096 1228.96 160.769 1222.11 158.114C1215.27 155.319 1209.33 151.477 1204.3 146.586C1199.41 141.696 1195.57 135.967 1192.77 129.399C1189.98 122.693 1188.58 115.427 1188.58 107.602ZM1308.1 114.938L1372.23 96.4934C1368.18 68.9669 1357.63 55.2037 1340.58 55.2037C1335.83 55.2037 1331.36 56.4612 1327.17 58.9763C1323.12 61.3517 1319.55 64.7052 1316.48 69.0368C1313.55 73.3684 1311.24 78.5383 1309.56 84.5466C1307.89 90.4152 1307.05 96.7729 1307.05 103.62C1307.05 107.253 1307.4 111.025 1308.1 114.938ZM1291.33 107.602C1291.33 100.056 1292.66 93.0002 1295.31 86.433C1297.97 79.8657 1301.6 74.1369 1306.21 69.2464C1310.82 64.2161 1316.2 60.3037 1322.35 57.5092C1328.5 54.5749 1334.99 53.1077 1341.84 53.1077C1348.27 53.1077 1354.21 54.1557 1359.66 56.2516C1365.24 58.3475 1370 61.2818 1373.91 65.0545C1377.96 68.6875 1381.1 73.0889 1383.34 78.2589C1385.71 83.2891 1386.9 88.8084 1386.9 94.8167L1308.51 117.033C1309.77 122.902 1311.73 128.282 1314.38 133.172C1317.04 137.923 1320.32 142.045 1324.23 145.538C1328.15 149.031 1332.48 151.756 1337.23 153.712C1342.12 155.668 1347.29 156.647 1352.74 156.647C1366.99 156.647 1378.87 148.752 1388.37 132.963H1388.79C1384.88 142.185 1379.29 149.381 1372.02 154.551C1364.76 159.581 1356.44 162.096 1347.08 162.096C1339.12 162.096 1331.71 160.769 1324.86 158.114C1318.02 155.319 1312.08 151.477 1307.05 146.586C1302.16 141.696 1298.31 135.967 1295.52 129.399C1292.73 122.693 1291.33 115.427 1291.33 107.602ZM1387.94 70.2943L1415.4 55.2037H1416.45V109.488C1418.82 91.8824 1423.15 78.4684 1429.44 69.2464C1435.73 59.8846 1443.48 55.2037 1452.71 55.2037C1458.85 55.2037 1464.44 56.3215 1469.47 58.5571C1474.64 60.7928 1479.05 64.0065 1482.68 68.1984C1486.31 72.2505 1489.11 77.141 1491.06 82.8699C1493.16 88.5988 1494.21 94.9564 1494.21 101.943C1494.21 109.768 1492.67 117.243 1489.59 124.369C1486.66 131.356 1482.68 137.504 1477.65 142.813C1472.62 148.123 1466.68 152.315 1459.83 155.389C1453.13 158.463 1446 160 1438.45 160C1433.28 160 1429.02 159.231 1425.67 157.694C1422.46 156.157 1419.38 154.9 1416.45 153.922V189.762C1416.45 193.255 1417.43 195.98 1419.38 197.936C1421.48 199.892 1424.27 200.871 1427.76 200.871V201.919H1390.46V200.871C1394.09 200.871 1396.89 199.892 1398.84 197.936C1400.8 195.98 1401.78 193.255 1401.78 189.762V76.5821C1401.78 74.2067 1401.15 72.4601 1399.89 71.3423C1398.63 70.0847 1396.95 69.456 1394.86 69.456C1392.76 69.456 1390.46 70.0847 1387.94 71.3423V70.2943ZM1436.36 157.904C1442.23 157.904 1447.68 156.437 1452.71 153.503C1457.88 150.568 1462.35 146.586 1466.12 141.556C1470.03 136.526 1473.04 130.657 1475.13 123.95C1477.37 117.103 1478.49 109.768 1478.49 101.943C1478.49 88.6686 1475.9 78.1191 1470.73 70.2943C1465.56 62.3298 1458.58 58.3475 1449.77 58.3475C1445.58 58.3475 1441.6 60.0243 1437.83 63.3778C1434.05 66.7313 1430.7 71.482 1427.76 77.6301C1424.97 83.6384 1422.6 90.8344 1420.64 99.2181C1418.68 107.602 1417.36 116.894 1416.66 127.094V139.041C1416.66 141.556 1417.15 144.001 1418.12 146.376C1419.24 148.612 1420.71 150.638 1422.53 152.455C1424.34 154.131 1426.44 155.459 1428.81 156.437C1431.19 157.415 1433.7 157.904 1436.36 157.904Z" fill="#6CA8EE"/>
</svg>
