<svg width="1645" height="368" viewBox="0 0 1645 368" fill="none" xmlns="http://www.w3.org/2000/svg">
<g clip-path="url(#clip0_5433_6)">
<path d="M275 168.285H325.302C331.59 168.285 337.459 169.054 342.908 170.591C348.497 171.988 353.318 174.014 357.37 176.669C361.422 179.184 364.566 182.188 366.802 185.681C369.177 189.175 370.365 192.947 370.365 196.999C370.365 202.868 369.037 207.828 366.382 211.88C363.867 215.793 360.514 219.286 356.322 222.36C352.27 225.294 347.729 227.949 342.698 230.325C337.808 232.7 332.917 235.285 328.027 238.079C331.241 237.241 334.524 236.822 337.878 236.822C342.908 236.822 347.799 237.8 352.549 239.756C357.44 241.573 361.771 244.158 365.544 247.511C369.456 250.865 372.53 254.847 374.766 259.458C377.142 264.069 378.329 269.029 378.329 274.339C378.329 280.347 377.211 285.867 374.976 290.897C372.88 295.927 369.876 300.259 365.963 303.892C362.191 307.385 357.58 310.11 352.13 312.066C346.681 314.022 340.672 315 334.105 315H275V313.952C278.633 313.952 281.428 313.044 283.384 311.227C285.34 309.271 286.318 306.477 286.318 302.844V180.441C286.318 176.809 285.34 174.084 283.384 172.267C281.428 170.311 278.633 169.333 275 169.333V168.285ZM303.085 263.021C305.042 257.991 307.627 253.729 310.84 250.236C314.054 246.603 317.477 243.389 321.11 240.595C324.883 237.66 328.656 235.005 332.428 232.63C336.341 230.115 339.834 227.39 342.908 224.456C346.122 221.522 348.707 218.168 350.663 214.396C352.619 210.623 353.597 206.082 353.597 200.772C353.597 190.991 350.523 183.516 344.375 178.346C338.367 173.036 329.704 170.381 318.386 170.381H303.085V263.021ZM324.045 312.904C329.494 312.904 334.524 311.996 339.135 310.179C343.746 308.223 347.659 305.568 350.873 302.215C354.226 298.722 356.811 294.67 358.627 290.058C360.444 285.308 361.352 280.138 361.352 274.549C361.352 269.379 360.514 264.628 358.837 260.296C357.3 255.965 355.204 252.262 352.549 249.188C350.034 245.974 347.03 243.459 343.537 241.643C340.183 239.826 336.62 238.918 332.848 238.918C329.075 238.918 325.302 239.966 321.53 242.062C317.198 245.275 313.355 249.118 310.002 253.589C306.648 257.921 304.343 263.44 303.085 270.147V312.904H324.045ZM399.38 252.961C399.38 260.785 400.568 268.401 402.943 275.806C405.458 283.212 408.672 289.779 412.584 295.508C416.637 301.097 421.248 305.638 426.418 309.131C431.588 312.485 436.967 314.162 442.556 314.162C446.748 314.162 450.661 313.114 454.293 311.018C457.926 308.922 461 305.988 463.516 302.215C466.17 298.442 468.266 294.041 469.803 289.011C471.34 283.841 472.109 278.251 472.109 272.243C472.109 264.418 470.851 256.803 468.336 249.397C465.961 241.992 462.747 235.495 458.695 229.905C454.782 224.176 450.241 219.635 445.071 216.282C439.901 212.789 434.592 211.042 429.142 211.042C424.95 211.042 421.038 212.09 417.405 214.186C413.772 216.282 410.628 219.216 407.973 222.989C405.319 226.761 403.223 231.233 401.686 236.403C400.149 241.433 399.38 246.952 399.38 252.961ZM437.316 316.886C430.19 316.886 423.413 315.419 416.986 312.485C410.558 309.411 404.969 305.359 400.219 300.329C395.468 295.159 391.695 289.22 388.901 282.513C386.106 275.666 384.709 268.401 384.709 260.715C384.709 253.45 385.966 246.673 388.481 240.385C391.136 233.957 394.699 228.368 399.171 223.618C403.642 218.867 408.882 215.164 414.89 212.509C420.898 209.715 427.326 208.317 434.173 208.317C441.299 208.317 448.076 209.854 454.503 212.928C460.931 215.863 466.52 219.915 471.27 225.085C476.021 230.115 479.794 236.053 482.588 242.9C485.383 249.607 486.78 256.803 486.78 264.488C486.78 271.754 485.453 278.601 482.798 285.028C480.283 291.316 476.79 296.835 472.318 301.586C467.847 306.337 462.607 310.11 456.599 312.904C450.591 315.559 444.163 316.886 437.316 316.886ZM508.884 252.961C508.884 260.785 510.072 268.401 512.447 275.806C514.962 283.212 518.176 289.779 522.088 295.508C526.141 301.097 530.752 305.638 535.922 309.131C541.092 312.485 546.471 314.162 552.06 314.162C556.252 314.162 560.164 313.114 563.797 311.018C567.43 308.922 570.504 305.988 573.02 302.215C575.674 298.442 577.77 294.041 579.307 289.011C580.844 283.841 581.613 278.251 581.613 272.243C581.613 264.418 580.355 256.803 577.84 249.397C575.465 241.992 572.251 235.495 568.199 229.905C564.286 224.176 559.745 219.635 554.575 216.282C549.405 212.789 544.096 211.042 538.646 211.042C534.454 211.042 530.542 212.09 526.909 214.186C523.276 216.282 520.132 219.216 517.477 222.989C514.823 226.761 512.727 231.233 511.19 236.403C509.653 241.433 508.884 246.952 508.884 252.961ZM546.82 316.886C539.694 316.886 532.917 315.419 526.49 312.485C520.062 309.411 514.473 305.359 509.723 300.329C504.972 295.159 501.199 289.22 498.405 282.513C495.61 275.666 494.213 268.401 494.213 260.715C494.213 253.45 495.47 246.673 497.985 240.385C500.64 233.957 504.203 228.368 508.675 223.618C513.146 218.867 518.386 215.164 524.394 212.509C530.402 209.715 536.83 208.317 543.677 208.317C550.803 208.317 557.58 209.854 564.007 212.928C570.435 215.863 576.024 219.915 580.774 225.085C585.525 230.115 589.298 236.053 592.092 242.9C594.887 249.607 596.284 256.803 596.284 264.488C596.284 271.754 594.957 278.601 592.302 285.028C589.787 291.316 586.294 296.835 581.822 301.586C577.351 306.337 572.111 310.11 566.103 312.904C560.095 315.559 553.667 316.886 546.82 316.886ZM605.336 231.792C605.336 228.578 606.105 225.574 607.642 222.779C609.318 219.985 611.554 217.609 614.349 215.653C617.283 213.557 620.706 211.95 624.619 210.832C628.531 209.715 632.723 209.156 637.194 209.156C644.32 209.156 650.399 210.413 655.429 212.928C660.599 215.304 664.86 217.889 668.214 220.683C672.126 224.177 675.48 228.089 678.274 232.42C675.759 233.678 673.663 234.586 671.987 235.145C670.45 235.564 668.913 235.774 667.376 235.774C665.28 235.774 663.463 235.215 661.926 234.097C660.389 232.84 658.922 231.303 657.525 229.486C656.127 227.67 654.73 225.714 653.333 223.618C652.075 221.382 650.608 219.356 648.931 217.539C647.255 215.723 645.298 214.256 643.063 213.138C640.827 211.88 638.172 211.252 635.098 211.252C630.906 211.252 627.343 212.789 624.409 215.863C621.475 218.937 620.008 222.779 620.008 227.39C620.008 231.722 621.475 235.634 624.409 239.127C627.483 242.621 631.256 245.974 635.727 249.188C640.198 252.262 645.019 255.336 650.189 258.41C655.499 261.344 660.389 264.418 664.86 267.632C669.332 270.706 673.035 274.129 675.969 277.902C679.043 281.535 680.58 285.587 680.58 290.058C680.58 293.831 679.672 297.324 677.855 300.538C676.178 303.612 673.733 306.337 670.519 308.712C667.445 310.948 663.743 312.764 659.411 314.162C655.219 315.419 650.608 316.048 645.578 316.048C640.408 316.048 635.098 315.279 629.649 313.742C624.339 312.066 619.379 309.9 614.768 307.245C610.296 304.59 606.454 301.656 603.24 298.442C600.166 295.089 598.21 291.665 597.372 288.172C599.607 287.054 601.563 286.286 603.24 285.867C604.917 285.308 606.733 285.028 608.69 285.028C611.205 285.028 613.301 285.727 614.977 287.124C616.794 288.521 618.471 290.338 620.008 292.574C621.545 294.67 623.082 296.975 624.619 299.49C626.295 302.005 628.112 304.381 630.068 306.616C632.164 308.712 634.539 310.459 637.194 311.856C639.989 313.253 643.342 313.952 647.255 313.952C652.704 313.952 657.175 312.415 660.669 309.341C664.162 306.267 665.908 302.355 665.908 297.604C665.908 293.272 664.371 289.36 661.297 285.867C658.363 282.373 654.66 279.02 650.189 275.806C645.718 272.592 640.827 269.449 635.517 266.374C630.347 263.3 625.527 260.017 621.056 256.524C616.584 253.03 612.812 249.328 609.738 245.415C606.803 241.363 605.336 236.822 605.336 231.792ZM684.161 214.186C688.353 214.186 691.567 211.811 693.802 207.06C696.178 202.169 697.365 195.113 697.365 185.891H709.941C709.941 192.598 708.474 198.466 705.539 203.497C702.605 208.387 698.483 211.95 693.173 214.186H718.115V216.282H706.797V287.963C706.797 303.333 711.827 311.018 721.888 311.018C730.551 311.018 736.28 303.752 739.074 289.22H740.541C738.725 298.861 736.14 305.568 732.786 309.341C729.433 313.114 724.333 315 717.486 315C709.801 315 703.653 312.485 699.042 307.455C694.571 302.424 692.335 295.717 692.335 287.334V224.037C692.335 218.867 689.61 216.282 684.161 216.282V214.186ZM743.451 182.537C743.451 179.324 744.569 176.599 746.805 174.363C749.04 172.128 751.765 171.01 754.979 171.01C758.192 171.01 760.917 172.128 763.153 174.363C765.388 176.599 766.506 179.324 766.506 182.537C766.506 185.751 765.388 188.476 763.153 190.712C760.917 192.947 758.192 194.065 754.979 194.065C751.765 194.065 749.04 192.947 746.805 190.712C744.569 188.476 743.451 185.751 743.451 182.537ZM737.373 225.294L765.039 210.204H766.087V302.844C766.087 306.337 767.065 309.062 769.021 311.018C770.978 312.974 773.772 313.952 777.405 313.952V315H740.098V313.952C743.731 313.952 746.525 312.974 748.481 311.018C750.438 309.062 751.416 306.337 751.416 302.844V231.582C751.416 229.207 750.787 227.46 749.529 226.342C748.272 225.085 746.595 224.456 744.499 224.456C742.403 224.456 740.028 225.155 737.373 226.552V225.294ZM780.56 225.294L808.227 210.204H809.275V268.051C810.532 259.248 812.419 251.284 814.934 244.158C817.449 237.032 820.383 230.953 823.737 225.923C827.23 220.893 831.142 217.05 835.474 214.396C839.945 211.601 844.696 210.204 849.726 210.204C858.529 210.204 865.515 212.789 870.685 217.959C875.995 223.129 878.65 230.045 878.65 238.708V302.844C878.65 306.337 879.628 309.062 881.584 311.018C883.68 312.974 886.475 313.952 889.968 313.952V315H852.66V313.952C856.293 313.952 859.088 312.974 861.044 311.018C863 309.062 863.978 306.337 863.978 302.844V236.612C863.978 229.207 862.511 223.478 859.577 219.426C856.643 215.374 852.521 213.348 847.211 213.348C842.181 213.348 837.5 215.094 833.168 218.587C828.976 221.941 825.204 226.761 821.85 233.049C818.636 239.197 815.912 246.673 813.676 255.476C811.58 264.279 810.113 274.06 809.275 284.819V302.844C809.275 306.337 810.253 309.062 812.209 311.018C814.165 312.974 816.96 313.952 820.593 313.952V315H783.285V313.952C786.918 313.952 789.713 312.974 791.669 311.018C793.625 309.062 794.603 306.337 794.603 302.844V231.582C794.603 229.207 793.974 227.46 792.717 226.342C791.459 225.085 789.783 224.456 787.687 224.456C785.591 224.456 783.215 225.155 780.56 226.552V225.294ZM891.088 327.995C891.088 325.06 891.647 322.336 892.765 319.821C894.022 317.306 895.699 315.14 897.795 313.323C899.891 311.367 902.266 309.83 904.921 308.712C907.716 307.594 910.65 307.035 913.724 307.035C918.894 307.035 923.295 308.083 926.928 310.179C930.701 312.136 934.404 314.301 938.037 316.677C941.809 319.052 945.931 321.218 950.403 323.174C955.014 325.27 960.743 326.318 967.589 326.318C971.921 326.318 975.624 325.27 978.698 323.174C981.772 321.078 983.309 318.493 983.309 315.419C983.309 313.323 982.4 311.367 980.584 309.551C978.907 307.594 976.532 305.918 973.458 304.52C970.384 303.123 966.681 302.075 962.349 301.376C958.158 300.538 953.547 300.119 948.516 300.119C941.809 300.119 935.452 298.861 929.443 296.346C923.435 293.831 918.125 290.408 913.514 286.076C909.043 281.745 905.48 276.714 902.825 270.986C900.31 265.257 899.052 259.178 899.052 252.751C899.052 246.603 900.24 240.804 902.615 235.355C904.991 229.905 908.274 225.224 912.466 221.312C916.658 217.26 921.549 214.116 927.138 211.88C932.867 209.505 938.945 208.317 945.372 208.317C951.94 208.317 957.948 209.435 963.397 211.671C964.096 211.811 964.725 211.95 965.284 212.09C965.843 212.09 966.471 212.09 967.17 212.09C969.406 212.09 971.571 211.671 973.667 210.832C975.763 209.854 977.091 208.667 977.65 207.269C978.348 205.732 978.628 204.125 978.488 202.449C978.348 200.632 977.999 198.816 977.44 196.999C976.881 195.043 976.532 193.227 976.392 191.55C976.252 189.733 976.462 188.057 977.021 186.52C977.58 184.983 978.837 183.795 980.794 182.957C981.911 182.398 983.169 182.048 984.566 181.909C985.964 181.629 987.431 181.489 988.968 181.489C992.042 181.489 994.627 181.909 996.723 182.747C997.142 185.122 996.932 187.707 996.094 190.502C995.255 193.297 993.858 196.091 991.902 198.886C990.086 201.54 987.85 204.056 985.195 206.431C982.54 208.667 979.746 210.413 976.811 211.671C974.296 212.789 971.432 213.487 968.218 213.767C976.183 217.819 982.61 223.548 987.501 230.953C992.391 238.359 994.836 246.603 994.836 255.685C994.836 260.576 994.068 265.257 992.531 269.728C990.994 274.199 988.828 278.251 986.033 281.884C983.239 285.517 979.955 288.731 976.183 291.526C972.41 294.18 968.218 296.276 963.607 297.813C968.358 298.093 972.689 298.791 976.602 299.909C980.654 300.887 984.077 302.145 986.872 303.682C989.666 305.219 991.832 306.966 993.369 308.922C995.046 310.878 995.884 313.044 995.884 315.419C995.884 317.515 995.255 319.401 993.998 321.078C992.88 322.895 991.273 324.432 989.177 325.689C987.081 327.087 984.636 328.134 981.842 328.833C979.187 329.671 976.252 330.091 973.039 330.091C969.825 330.091 966.821 329.811 964.026 329.252C961.232 328.833 958.577 328.274 956.062 327.576C951.59 334.283 946.35 339.522 940.342 343.295C934.334 347.068 928.395 348.954 922.527 348.954C901.568 348.954 891.088 341.968 891.088 327.995ZM913.724 246.254C913.724 252.821 914.842 259.178 917.077 265.327C919.313 271.475 922.247 276.924 925.88 281.675C929.513 286.426 933.705 290.268 938.456 293.202C943.207 295.997 948.097 297.394 953.127 297.394C956.9 297.394 960.463 296.486 963.817 294.67C967.17 292.853 970.034 290.408 972.41 287.334C974.785 284.12 976.672 280.417 978.069 276.225C979.466 271.894 980.165 267.213 980.165 262.183C980.165 255.615 979.047 249.258 976.811 243.11C974.576 236.962 971.641 231.512 968.008 226.761C964.375 222.011 960.184 218.238 955.433 215.443C950.682 212.509 945.792 211.042 940.761 211.042C936.989 211.042 933.426 211.95 930.072 213.767C926.719 215.443 923.854 217.889 921.479 221.102C919.103 224.176 917.217 227.879 915.82 232.211C914.423 236.542 913.724 241.223 913.724 246.254ZM954.594 327.156C950.682 325.759 947.049 324.082 943.696 322.126C940.482 320.31 937.408 318.563 934.474 316.886C931.539 315.21 928.675 313.812 925.88 312.694C923.225 311.437 920.501 310.808 917.706 310.808C913.654 310.808 910.301 312.415 907.646 315.629C904.991 318.982 903.663 323.174 903.663 328.204C903.663 333.793 905.41 338.335 908.903 341.828C912.396 345.461 916.868 347.277 922.317 347.277C928.046 347.277 933.495 345.67 938.665 342.457C943.835 339.243 949.145 334.143 954.594 327.156ZM1128.09 169.123C1120.83 169.123 1114.12 170.8 1107.97 174.154C1101.82 177.507 1096.44 182.188 1091.83 188.196C1087.36 194.205 1083.8 201.331 1081.14 209.575C1078.63 217.679 1077.37 226.552 1077.37 236.193C1077.37 246.952 1079.05 257.083 1082.4 266.584C1085.89 276.086 1090.57 284.399 1096.44 291.526C1102.31 298.512 1109.16 304.101 1116.98 308.293C1124.95 312.345 1133.4 314.371 1142.34 314.371C1154.22 314.371 1164.28 311.297 1172.53 305.149C1180.91 299.001 1188.1 289.36 1194.11 276.225H1194.74C1191.39 283.631 1187.76 289.919 1183.84 295.089C1180.07 300.259 1175.81 304.52 1171.06 307.874C1166.31 311.088 1161.07 313.463 1155.34 315C1149.61 316.397 1143.04 317.096 1135.64 317.096C1124.74 317.096 1114.61 315.21 1105.25 311.437C1096.02 307.525 1087.92 302.145 1080.93 295.298C1074.09 288.452 1068.71 280.417 1064.79 271.195C1060.88 261.973 1058.93 252.052 1058.93 241.433C1058.93 231.093 1060.81 221.382 1064.58 212.3C1068.36 203.217 1073.46 195.253 1079.89 188.406C1086.31 181.559 1093.86 176.18 1102.52 172.267C1111.18 168.355 1120.41 166.399 1130.19 166.399C1136.2 166.399 1141.65 167.028 1146.54 168.285C1151.43 169.403 1155.83 170.94 1159.74 172.896C1163.65 174.852 1167.15 177.088 1170.22 179.603C1173.29 182.118 1175.95 184.703 1178.18 187.358C1183.63 193.506 1187.76 200.493 1190.55 208.317C1187.48 210.413 1185.03 211.88 1183.21 212.719C1181.4 213.417 1179.44 213.767 1177.35 213.767C1175.11 213.767 1173.08 212.649 1171.27 210.413C1169.45 208.178 1167.63 205.453 1165.82 202.239C1164 198.886 1162.05 195.323 1159.95 191.55C1157.85 187.638 1155.34 184.074 1152.4 180.861C1149.47 177.507 1146.05 174.713 1142.13 172.477C1138.22 170.241 1133.54 169.123 1128.09 169.123ZM1190.94 225.294L1218.61 210.204H1219.66V242.481C1223.29 232.281 1227.97 224.386 1233.7 218.797C1239.57 213.068 1246.28 210.204 1253.82 210.204C1261.93 210.204 1268.56 211.88 1273.73 215.234C1278.9 218.448 1281.91 222.989 1282.75 228.857L1264.51 241.014C1265.35 232.071 1264.58 225.224 1262.21 220.474C1259.97 215.723 1256.34 213.348 1251.31 213.348C1244.32 213.348 1238.1 216.491 1232.65 222.779C1227.34 229.067 1223.01 237.8 1219.66 248.978V302.844C1219.66 306.337 1220.64 309.062 1222.59 311.018C1224.55 312.974 1227.34 313.952 1230.98 313.952V315H1193.67V313.952C1197.3 313.952 1200.1 312.974 1202.05 311.018C1204.01 309.062 1204.99 306.337 1204.99 302.844V231.582C1204.99 229.207 1204.36 227.46 1203.1 226.342C1201.84 225.085 1200.17 224.456 1198.07 224.456C1195.97 224.456 1193.6 225.155 1190.94 226.552V225.294ZM1296.54 269.938L1360.68 251.493C1356.63 223.967 1346.08 210.204 1329.03 210.204C1324.28 210.204 1319.81 211.461 1315.62 213.976C1311.56 216.352 1308 219.705 1304.93 224.037C1301.99 228.368 1299.69 233.538 1298.01 239.547C1296.33 245.415 1295.5 251.773 1295.5 258.62C1295.5 262.253 1295.84 266.025 1296.54 269.938ZM1279.78 262.602C1279.78 255.056 1281.1 248 1283.76 241.433C1286.41 234.866 1290.05 229.137 1294.66 224.246C1299.27 219.216 1304.65 215.304 1310.8 212.509C1316.94 209.575 1323.44 208.108 1330.29 208.108C1336.72 208.108 1342.65 209.156 1348.1 211.252C1353.69 213.348 1358.44 216.282 1362.36 220.055C1366.41 223.687 1369.55 228.089 1371.79 233.259C1374.16 238.289 1375.35 243.808 1375.35 249.817L1296.96 272.033C1298.22 277.902 1300.18 283.282 1302.83 288.172C1305.49 292.923 1308.77 297.045 1312.68 300.538C1316.59 304.031 1320.93 306.756 1325.68 308.712C1330.57 310.668 1335.74 311.647 1341.19 311.647C1355.44 311.647 1367.32 303.752 1376.82 287.963H1377.24C1373.32 297.185 1367.73 304.381 1360.47 309.551C1353.2 314.581 1344.89 317.096 1335.53 317.096C1327.56 317.096 1320.16 315.769 1313.31 313.114C1306.46 310.319 1300.53 306.477 1295.5 301.586C1290.6 296.696 1286.76 290.967 1283.97 284.399C1281.17 277.693 1279.78 270.427 1279.78 262.602ZM1392.59 228.648C1393.01 226.272 1394.19 224.037 1396.15 221.941C1398.24 219.705 1400.76 217.749 1403.69 216.072C1406.77 214.256 1410.26 212.858 1414.17 211.88C1418.23 210.763 1422.42 210.204 1426.75 210.204C1436.81 210.204 1444.84 212.719 1450.85 217.749C1457 222.779 1460.07 229.486 1460.07 237.87V302.844C1460.07 306.337 1461.05 309.062 1463.01 311.018C1464.97 312.974 1467.76 313.952 1471.39 313.952V315H1452.53C1447.78 315 1445.4 312.066 1445.4 306.197V282.723C1441.77 292.783 1436.88 300.678 1430.73 306.407C1424.58 312.136 1417.74 315 1410.19 315C1401.11 315 1394.19 313.253 1389.44 309.76C1384.83 306.267 1382.53 301.167 1382.53 294.46C1382.53 289.011 1383.85 284.469 1386.51 280.836C1389.3 277.203 1392.8 274.06 1396.99 271.405C1401.18 268.75 1405.79 266.374 1410.82 264.279C1415.99 262.043 1420.88 259.668 1425.49 257.152C1430.1 254.637 1434.22 251.773 1437.86 248.559C1441.49 245.206 1444.01 241.084 1445.4 236.193V235.984C1445.4 228.438 1443.94 222.639 1441 218.587C1438.21 214.396 1434.36 212.3 1429.47 212.3C1426.4 212.3 1424.02 212.858 1422.35 213.976C1420.67 215.094 1419.34 216.491 1418.37 218.168C1417.53 219.845 1416.83 221.661 1416.27 223.618C1415.85 225.434 1415.29 227.181 1414.59 228.857C1414.03 230.534 1413.2 231.931 1412.08 233.049C1411.1 234.167 1409.49 234.726 1407.26 234.726C1401.95 234.726 1397.06 232.7 1392.59 228.648ZM1445.4 241.643C1443.59 245.275 1441.14 248.559 1438.07 251.493C1435.13 254.288 1431.92 257.013 1428.43 259.668C1424.93 262.322 1421.37 264.907 1417.74 267.422C1414.24 269.938 1411.03 272.662 1408.1 275.597C1405.3 278.391 1403 281.465 1401.18 284.819C1399.36 288.172 1398.45 292.015 1398.45 296.346C1398.45 301.237 1399.78 305.079 1402.44 307.874C1405.09 310.529 1408.72 311.856 1413.34 311.856C1420.18 311.856 1426.4 308.712 1431.99 302.424C1437.58 296.137 1442.05 287.753 1445.4 277.273V241.643ZM1474.63 225.294L1502.3 210.204H1503.35V264.488C1505.72 247.022 1509.98 233.608 1516.13 224.246C1522.28 214.885 1530.1 210.204 1539.61 210.204C1548.41 210.204 1555.39 212.789 1560.56 217.959C1565.87 223.129 1568.53 230.045 1568.53 238.708V265.327C1570.9 247.721 1575.17 234.167 1581.31 224.666C1587.6 215.024 1595.5 210.204 1605 210.204C1613.8 210.204 1620.79 212.789 1625.96 217.959C1631.27 223.129 1633.92 230.045 1633.92 238.708V302.844C1633.92 306.337 1634.9 309.062 1636.86 311.018C1638.95 312.974 1641.75 313.952 1645.24 313.952V315H1607.93V313.952C1611.57 313.952 1614.36 312.974 1616.32 311.018C1618.27 309.062 1619.25 306.337 1619.25 302.844V236.612C1619.25 229.207 1617.78 223.478 1614.85 219.426C1611.91 215.374 1607.79 213.348 1602.48 213.348C1597.87 213.348 1593.61 214.954 1589.7 218.168C1585.93 221.382 1582.57 226.063 1579.64 232.211C1576.7 238.219 1574.26 245.625 1572.3 254.428C1570.49 263.091 1569.23 272.942 1568.53 283.98V302.844C1568.53 306.337 1569.51 309.062 1571.46 311.018C1573.56 312.974 1576.35 313.952 1579.85 313.952V315H1542.54V313.952C1546.17 313.952 1548.97 312.974 1550.92 311.018C1552.88 309.062 1553.86 306.337 1553.86 302.844V236.612C1553.86 229.207 1552.39 223.478 1549.46 219.426C1546.52 215.374 1542.4 213.348 1537.09 213.348C1532.48 213.348 1528.22 214.954 1524.31 218.168C1520.53 221.242 1517.18 225.783 1514.24 231.792C1511.45 237.66 1509.07 244.856 1507.12 253.38C1505.3 261.903 1504.04 271.544 1503.35 282.304V302.844C1503.35 306.337 1504.32 309.062 1506.28 311.018C1508.24 312.974 1511.03 313.952 1514.66 313.952V315H1477.36V313.952C1480.99 313.952 1483.78 312.974 1485.74 311.018C1487.7 309.062 1488.67 306.337 1488.67 302.844V231.582C1488.67 229.207 1488.05 227.46 1486.79 226.342C1485.53 225.085 1483.85 224.456 1481.76 224.456C1479.66 224.456 1477.29 225.155 1474.63 226.552V225.294Z" fill="#6CA8EE"/>
<path d="M0 13.2851H47.5775C57.638 13.2851 67.1395 15.3112 76.0821 19.3633C85.1645 23.4154 93.0592 28.8648 99.7661 35.7115C106.473 42.5582 111.783 50.5227 115.695 59.6051C119.747 68.6874 121.773 78.3287 121.773 88.5289C121.773 98.4496 119.887 107.742 116.114 116.405C112.342 125.068 107.172 132.683 100.604 139.25C94.177 145.678 86.6316 150.778 77.9685 154.551C69.3053 158.184 60.0134 160 50.0927 160H0V158.952C3.63294 158.952 6.42751 158.044 8.38371 156.227C10.3399 154.271 11.318 151.477 11.318 147.844V25.4415C11.318 21.8086 10.3399 19.0838 8.38371 17.2674C6.42751 15.3112 3.63294 14.3331 0 14.3331V13.2851ZM56.59 157.275C63.297 157.275 69.5149 155.668 75.2438 152.455C80.9726 149.241 85.8631 144.839 89.9153 139.25C94.1071 133.521 97.3907 126.745 99.7661 118.92C102.142 111.095 103.329 102.572 103.329 93.3495C103.329 82.8699 101.722 72.9492 98.5086 63.5874C95.4345 54.2256 91.1728 46.0514 85.7234 39.065C80.274 31.9389 73.9164 26.3497 66.6505 22.2976C59.5243 18.1057 51.979 16.0098 44.0145 16.0098H28.0854V157.275H56.59ZM144.897 114.938L209.033 96.4934C204.981 68.9669 194.431 55.2037 177.384 55.2037C172.633 55.2037 168.162 56.4612 163.97 58.9763C159.918 61.3517 156.355 64.7052 153.281 69.0368C150.347 73.3684 148.041 78.5383 146.364 84.5466C144.688 90.4152 143.849 96.7729 143.849 103.62C143.849 107.253 144.199 111.025 144.897 114.938ZM128.13 107.602C128.13 100.056 129.457 93.0002 132.112 86.433C134.767 79.8657 138.4 74.1369 143.011 69.2464C147.622 64.2161 153.002 60.3037 159.15 57.5092C165.298 54.5749 171.795 53.1077 178.642 53.1077C185.069 53.1077 191.008 54.1557 196.457 56.2516C202.046 58.3475 206.797 61.2818 210.709 65.0545C214.762 68.6875 217.905 73.0889 220.141 78.2589C222.516 83.2891 223.704 88.8084 223.704 94.8167L145.316 117.033C146.574 122.902 148.53 128.282 151.185 133.172C153.84 137.923 157.124 142.045 161.036 145.538C164.948 149.031 169.28 151.756 174.031 153.712C178.921 155.668 184.091 156.647 189.541 156.647C203.793 156.647 215.67 148.752 225.171 132.963H225.591C221.678 142.185 216.089 149.381 208.823 154.551C201.557 159.581 193.243 162.096 183.882 162.096C175.917 162.096 168.511 160.769 161.665 158.114C154.818 155.319 148.88 151.477 143.849 146.586C138.959 141.696 135.116 135.967 132.322 129.399C129.527 122.693 128.13 115.427 128.13 107.602ZM236.07 153.083C236.07 149.87 237.118 147.215 239.214 145.119C241.45 143.023 244.105 141.975 247.179 141.975C250.392 141.975 253.047 143.023 255.143 145.119C257.239 147.215 258.287 149.87 258.287 153.083C258.287 156.157 257.239 158.742 255.143 160.838C253.047 163.074 250.392 164.192 247.179 164.192C244.105 164.192 241.45 163.074 239.214 160.838C237.118 158.742 236.07 156.157 236.07 153.083ZM236.07 80.5644C236.07 77.3506 237.118 74.6958 239.214 72.5998C241.45 70.3642 244.105 69.2464 247.179 69.2464C250.392 69.2464 253.047 70.3642 255.143 72.5998C257.239 74.6958 258.287 77.3506 258.287 80.5644C258.287 83.6384 257.239 86.2932 255.143 88.5289C253.047 90.6248 250.392 91.6728 247.179 91.6728C244.105 91.6728 241.45 90.6248 239.214 88.5289C237.118 86.2932 236.07 83.6384 236.07 80.5644ZM276.048 97.9606C276.048 105.785 277.236 113.401 279.611 120.806C282.126 128.212 285.34 134.779 289.253 140.508C293.305 146.097 297.916 150.638 303.086 154.131C308.256 157.485 313.635 159.162 319.224 159.162C323.416 159.162 327.329 158.114 330.962 156.018C334.595 153.922 337.669 150.988 340.184 147.215C342.838 143.442 344.934 139.041 346.471 134.011C348.008 128.841 348.777 123.251 348.777 117.243C348.777 109.418 347.519 101.803 345.004 94.3975C342.629 86.9919 339.415 80.4945 335.363 74.9054C331.451 69.1765 326.909 64.6353 321.739 61.2818C316.57 57.7886 311.26 56.042 305.81 56.042C301.619 56.042 297.706 57.09 294.073 59.1859C290.44 61.2818 287.296 64.2161 284.642 67.9888C281.987 71.7615 279.891 76.2328 278.354 81.4027C276.817 86.433 276.048 91.9522 276.048 97.9606ZM313.985 161.886C306.858 161.886 300.082 160.419 293.654 157.485C287.227 154.411 281.637 150.359 276.887 145.329C272.136 140.159 268.363 134.22 265.569 127.513C262.774 120.666 261.377 113.401 261.377 105.715C261.377 98.4496 262.634 91.6728 265.149 85.385C267.804 78.9575 271.367 73.3684 275.839 68.6176C280.31 63.8668 285.55 60.164 291.558 57.5092C297.566 54.7146 303.994 53.3173 310.841 53.3173C317.967 53.3173 324.744 54.8543 331.171 57.9284C337.599 60.8627 343.188 64.9148 347.939 70.0847C352.689 75.115 356.462 81.0534 359.257 87.9001C362.051 94.6071 363.448 101.803 363.448 109.488C363.448 116.754 362.121 123.601 359.466 130.028C356.951 136.316 353.458 141.835 348.987 146.586C344.515 151.337 339.275 155.11 333.267 157.904C327.259 160.559 320.831 161.886 313.985 161.886ZM362.489 70.2943L390.155 55.2037H391.203V113.051C392.461 104.248 394.347 96.2838 396.862 89.1577C399.377 82.0315 402.312 75.9533 405.665 70.9231C409.158 65.8929 413.071 62.0503 417.402 59.3955C421.873 56.6009 426.624 55.2037 431.654 55.2037C440.457 55.2037 447.444 57.7886 452.614 62.9586C457.923 68.1285 460.578 75.0451 460.578 83.7083V147.844C460.578 151.337 461.556 154.062 463.513 156.018C465.608 157.974 468.403 158.952 471.896 158.952V160H434.589V158.952C438.222 158.952 441.016 157.974 442.972 156.018C444.929 154.062 445.907 151.337 445.907 147.844V81.6123C445.907 74.2067 444.44 68.4779 441.505 64.4257C438.571 60.3736 434.449 58.3475 429.139 58.3475C424.109 58.3475 419.428 60.0942 415.097 63.5874C410.905 66.9408 407.132 71.7615 403.779 78.0493C400.565 84.1973 397.84 91.6728 395.605 100.476C393.509 109.279 392.041 119.06 391.203 129.819V147.844C391.203 151.337 392.181 154.062 394.137 156.018C396.094 157.974 398.888 158.952 402.521 158.952V160H365.214V158.952C368.847 158.952 371.641 157.974 373.597 156.018C375.554 154.062 376.532 151.337 376.532 147.844V76.5821C376.532 74.2067 375.903 72.4601 374.645 71.3423C373.388 70.0847 371.711 69.456 369.615 69.456C367.519 69.456 365.144 70.1546 362.489 71.5519V70.2943ZM470.969 107.602C470.969 99.9168 472.227 92.7906 474.742 86.2234C477.257 79.5164 480.681 73.7177 485.012 68.8272C489.344 63.9367 494.444 60.0942 500.312 57.2996C506.181 54.505 512.539 53.1077 519.385 53.1077C524.276 53.1077 529.027 53.7365 533.638 54.9941C538.249 56.2516 542.441 57.9982 546.213 60.2339C549.986 62.3298 553.13 64.7751 555.645 67.5696C558.3 70.3642 559.977 73.3684 560.675 76.5821C558.579 79.3767 556.693 81.3329 555.016 82.4507C553.339 83.4288 551.523 83.9179 549.567 83.9179C546.493 83.9179 543.908 82.4507 541.812 79.5164C539.716 76.4424 537.55 73.1588 535.314 69.6655C533.219 66.0326 530.843 62.749 528.188 59.8147C525.533 56.7407 522.18 55.2037 518.128 55.2037C514.076 55.2037 510.163 56.6708 506.391 59.6051C502.618 62.3997 499.264 66.2422 496.33 71.1327C493.396 75.8835 491.021 81.4726 489.204 87.9001C487.527 94.1879 486.689 100.755 486.689 107.602C486.689 114.309 487.807 120.736 490.042 126.884C492.418 132.893 495.562 138.132 499.474 142.604C503.386 147.075 507.998 150.638 513.307 153.293C518.617 155.948 524.206 157.275 530.075 157.275C536.502 157.275 542.021 156.018 546.632 153.503C551.383 150.988 555.365 148.193 558.579 145.119C562.212 141.486 565.356 137.434 568.011 132.963H568.43C565.915 138.412 562.631 143.233 558.579 147.424C555.086 151.057 550.685 154.411 545.375 157.485C540.065 160.559 533.568 162.096 525.883 162.096C517.918 162.096 510.583 160.769 503.876 158.114C497.169 155.319 491.37 151.546 486.479 146.796C481.589 141.905 477.746 136.106 474.952 129.399C472.297 122.693 470.969 115.427 470.969 107.602ZM588.44 114.938L652.575 96.4934C648.523 68.9669 637.973 55.2037 620.927 55.2037C616.176 55.2037 611.704 56.4612 607.513 58.9763C603.46 61.3517 599.897 64.7052 596.823 69.0368C593.889 73.3684 591.584 78.5383 589.907 84.5466C588.23 90.4152 587.392 96.7729 587.392 103.62C587.392 107.253 587.741 111.025 588.44 114.938ZM571.672 107.602C571.672 100.056 573 93.0002 575.655 86.433C578.309 79.8657 581.942 74.1369 586.553 69.2464C591.164 64.2161 596.544 60.3037 602.692 57.5092C608.84 54.5749 615.337 53.1077 622.184 53.1077C628.612 53.1077 634.55 54.1557 639.999 56.2516C645.589 58.3475 650.339 61.2818 654.252 65.0545C658.304 68.6875 661.448 73.0889 663.683 78.2589C666.059 83.2891 667.247 88.8084 667.247 94.8167L588.859 117.033C590.116 122.902 592.073 128.282 594.727 133.172C597.382 137.923 600.666 142.045 604.578 145.538C608.491 149.031 612.822 151.756 617.573 153.712C622.464 155.668 627.633 156.647 633.083 156.647C647.335 156.647 659.212 148.752 668.714 132.963H669.133C665.22 142.185 659.631 149.381 652.365 154.551C645.1 159.581 636.786 162.096 627.424 162.096C619.459 162.096 612.054 160.769 605.207 158.114C598.36 155.319 592.422 151.477 587.392 146.586C582.501 141.696 578.659 135.967 575.864 129.399C573.07 122.693 571.672 115.427 571.672 107.602ZM666.03 28.3758L693.696 13.2851H694.744V147.844C694.744 151.337 695.722 154.062 697.678 156.018C699.635 157.974 702.429 158.952 706.062 158.952V160H668.755V158.952C672.387 158.952 675.182 157.974 677.138 156.018C679.094 154.062 680.073 151.337 680.073 147.844V34.6636C680.073 32.2882 679.444 30.5416 678.186 29.4238C676.929 28.1662 675.252 27.5374 673.156 27.5374C671.06 27.5374 668.685 28.2361 666.03 29.6333V28.3758ZM709.217 28.3758L736.884 13.2851H737.932V147.844C737.932 151.337 738.91 154.062 740.866 156.018C742.822 157.974 745.617 158.952 749.25 158.952V160H711.942V158.952C715.575 158.952 718.37 157.974 720.326 156.018C722.282 154.062 723.26 151.337 723.26 147.844V34.6636C723.26 32.2882 722.631 30.5416 721.374 29.4238C720.116 28.1662 718.439 27.5374 716.344 27.5374C714.248 27.5374 711.872 28.2361 709.217 29.6333V28.3758ZM810.944 13.2851H899.811L904.212 38.8554H903.584C902.186 34.5238 900.579 30.8909 898.763 27.9566C896.946 24.8826 894.781 22.4373 892.266 20.6209C889.75 18.8044 886.746 17.477 883.253 16.6386C879.76 15.8002 875.638 15.381 870.887 15.381H839.029V82.2411H871.306C875.498 82.2411 878.502 81.4027 880.319 79.726C882.275 78.0493 883.532 75.115 884.091 70.9231H884.72V95.655H884.091C883.532 91.4632 882.275 88.5289 880.319 86.8522C878.502 85.1754 875.498 84.337 871.306 84.337H839.029V157.904H872.983C881.786 157.904 888.702 155.878 893.733 151.826C898.763 147.774 902.745 140.997 905.679 131.495H906.308L901.907 160H810.944V158.952C814.576 158.952 817.371 158.044 819.327 156.227C821.283 154.271 822.262 151.477 822.262 147.844V25.4415C822.262 21.8086 821.283 19.0838 819.327 17.2674C817.371 15.3112 814.576 14.3331 810.944 14.3331V13.2851ZM908.371 55.2037H948.194V56.2516C940.788 56.2516 939.042 59.9544 942.954 67.36L958.674 96.9126L967.477 82.2411C972.646 73.8574 974.533 67.4299 973.136 62.9586C971.738 58.4873 967.197 56.2516 959.512 56.2516V55.2037H997.239V56.2516C989.693 56.2516 983.615 59.9544 979.004 67.36L959.931 99.0085L985.921 147.844C987.877 151.477 990.322 154.271 993.256 156.227C996.33 158.044 999.684 158.952 1003.32 158.952V160H963.494V158.952C970.9 158.952 972.646 155.249 968.734 147.844L950.08 113.051L938.134 132.753C932.964 141.276 931.007 147.774 932.265 152.245C933.662 156.716 938.273 158.952 946.098 158.952V160H908.371V158.952C912.004 158.952 915.358 158.044 918.432 156.227C921.646 154.271 924.3 151.477 926.396 147.844L949.032 110.746L925.768 67.36C923.811 63.7271 921.296 61.0024 918.222 59.1859C915.288 57.2297 912.004 56.2516 908.371 56.2516V55.2037ZM1001.51 59.1859C1005.7 59.1859 1008.91 56.8105 1011.15 52.0598C1013.52 47.1693 1014.71 40.113 1014.71 30.8909H1027.29C1027.29 37.5979 1025.82 43.4665 1022.88 48.4967C1019.95 53.3872 1015.83 56.9503 1010.52 59.1859H1035.46V61.2818H1024.14V132.963C1024.14 148.333 1029.17 156.018 1039.23 156.018C1047.9 156.018 1053.62 148.752 1056.42 134.22H1057.89C1056.07 143.861 1053.48 150.568 1050.13 154.341C1046.78 158.114 1041.68 160 1034.83 160C1027.15 160 1021 157.485 1016.39 152.455C1011.92 147.424 1009.68 140.717 1009.68 132.334V69.0368C1009.68 63.8668 1006.96 61.2818 1001.51 61.2818V59.1859ZM1054.72 70.2943L1082.38 55.2037H1083.43V87.4809C1087.07 77.2807 1091.75 69.3861 1097.47 63.797C1103.34 58.0681 1110.05 55.2037 1117.6 55.2037C1125.7 55.2037 1132.34 56.8804 1137.51 60.2339C1142.68 63.4476 1145.68 67.9888 1146.52 73.8574L1128.28 86.0138C1129.12 77.0712 1128.35 70.2245 1125.98 65.4737C1123.74 60.7229 1120.11 58.3475 1115.08 58.3475C1108.09 58.3475 1101.88 61.4914 1096.43 67.7792C1091.12 74.067 1086.79 82.8 1083.43 93.9783V147.844C1083.43 151.337 1084.41 154.062 1086.37 156.018C1088.32 157.974 1091.12 158.952 1094.75 158.952V160H1057.44V158.952C1061.08 158.952 1063.87 157.974 1065.83 156.018C1067.78 154.062 1068.76 151.337 1068.76 147.844V76.5821C1068.76 74.2067 1068.13 72.4601 1066.87 71.3423C1065.62 70.0847 1063.94 69.456 1061.84 69.456C1059.75 69.456 1057.37 70.1546 1054.72 71.5519V70.2943ZM1153.61 73.6478C1154.03 71.2724 1155.22 69.0368 1157.17 66.9408C1159.27 64.7052 1161.78 62.749 1164.72 61.0722C1167.79 59.2558 1171.29 57.8585 1175.2 56.8804C1179.25 55.7626 1183.44 55.2037 1187.77 55.2037C1197.83 55.2037 1205.87 57.7188 1211.88 62.749C1218.02 67.7792 1221.1 74.4862 1221.1 82.8699V147.844C1221.1 151.337 1222.08 154.062 1224.03 156.018C1225.99 157.974 1228.78 158.952 1232.42 158.952V160H1213.55C1208.8 160 1206.43 157.066 1206.43 151.197V127.723C1202.79 137.783 1197.9 145.678 1191.76 151.407C1185.61 157.136 1178.76 160 1171.22 160C1162.13 160 1155.22 158.253 1150.47 154.76C1145.85 151.267 1143.55 146.167 1143.55 139.46C1143.55 134.011 1144.88 129.469 1147.53 125.836C1150.33 122.203 1153.82 119.06 1158.01 116.405C1162.2 113.75 1166.81 111.374 1171.84 109.279C1177.01 107.043 1181.9 104.668 1186.52 102.152C1191.13 99.6373 1195.25 96.7729 1198.88 93.5591C1202.51 90.2056 1205.03 86.0836 1206.43 81.1931V80.9836C1206.43 73.4382 1204.96 67.6395 1202.03 63.5874C1199.23 59.3955 1195.39 57.2996 1190.5 57.2996C1187.42 57.2996 1185.05 57.8585 1183.37 58.9763C1181.7 60.0941 1180.37 61.4914 1179.39 63.1682C1178.55 64.8449 1177.85 66.6614 1177.29 68.6176C1176.87 70.4341 1176.32 72.1807 1175.62 73.8574C1175.06 75.5341 1174.22 76.9314 1173.1 78.0493C1172.12 79.1671 1170.52 79.726 1168.28 79.726C1162.97 79.726 1158.08 77.6999 1153.61 73.6478ZM1206.43 86.6426C1204.61 90.2755 1202.17 93.5591 1199.09 96.4934C1196.16 99.288 1192.94 102.013 1189.45 104.668C1185.96 107.322 1182.39 109.907 1178.76 112.422C1175.27 114.938 1172.05 117.662 1169.12 120.597C1166.32 123.391 1164.02 126.465 1162.2 129.819C1160.39 133.172 1159.48 137.015 1159.48 141.346C1159.48 146.237 1160.81 150.079 1163.46 152.874C1166.12 155.529 1169.75 156.856 1174.36 156.856C1181.21 156.856 1187.42 153.712 1193.01 147.424C1198.6 141.137 1203.07 132.753 1206.43 122.273V86.6426Z" fill="#6CA8EE"/>
</g>
<defs>
<clipPath id="clip0_5433_6">
<rect width="1645" height="368" fill="white"/>
</clipPath>
</defs>
</svg>
