<svg width="1645" height="368" viewBox="0 0 1645 368" fill="none" xmlns="http://www.w3.org/2000/svg">
<g clip-path="url(#clip0_5435_9)">
<path d="M85 168.285H173.867L178.269 193.855H177.64C176.243 189.524 174.636 185.891 172.819 182.957C171.003 179.883 168.837 177.437 166.322 175.621C163.807 173.804 160.803 172.477 157.309 171.639C153.816 170.8 149.694 170.381 144.944 170.381H113.085V237.241H145.363C149.555 237.241 152.559 236.403 154.375 234.726C156.331 233.049 157.589 230.115 158.148 225.923H158.777V250.655H158.148C157.589 246.463 156.331 243.529 154.375 241.852C152.559 240.175 149.555 239.337 145.363 239.337H113.085V302.844C113.085 306.477 114.064 309.271 116.02 311.227C117.976 313.044 120.77 313.952 124.403 313.952V315H85V313.952C88.6329 313.952 91.4275 313.044 93.3837 311.227C95.3399 309.271 96.318 306.477 96.318 302.844V180.441C96.318 176.809 95.3399 174.084 93.3837 172.267C91.4275 170.311 88.6329 169.333 85 169.333V168.285ZM182.366 182.537C182.366 179.324 183.483 176.599 185.719 174.363C187.955 172.128 190.679 171.01 193.893 171.01C197.107 171.01 199.832 172.128 202.067 174.363C204.303 176.599 205.421 179.324 205.421 182.537C205.421 185.751 204.303 188.476 202.067 190.712C199.832 192.947 197.107 194.065 193.893 194.065C190.679 194.065 187.955 192.947 185.719 190.712C183.483 188.476 182.366 185.751 182.366 182.537ZM176.287 225.294L203.954 210.204H205.002V302.844C205.002 306.337 205.98 309.062 207.936 311.018C209.892 312.974 212.687 313.952 216.32 313.952V315H179.012V313.952C182.645 313.952 185.44 312.974 187.396 311.018C189.352 309.062 190.33 306.337 190.33 302.844V231.582C190.33 229.207 189.701 227.46 188.444 226.342C187.186 225.085 185.51 224.456 183.414 224.456C181.318 224.456 178.942 225.155 176.287 226.552V225.294ZM219.475 225.294L247.141 210.204H248.189V242.481C251.822 232.281 256.503 224.386 262.232 218.797C268.1 213.068 274.807 210.204 282.353 210.204C290.457 210.204 297.094 211.88 302.264 215.234C307.434 218.448 310.438 222.989 311.277 228.857L293.042 241.014C293.88 232.071 293.112 225.224 290.737 220.474C288.501 215.723 284.868 213.348 279.838 213.348C272.851 213.348 266.633 216.491 261.184 222.779C255.874 229.067 251.543 237.8 248.189 248.978V302.844C248.189 306.337 249.167 309.062 251.123 311.018C253.08 312.974 255.874 313.952 259.507 313.952V315H222.2V313.952C225.833 313.952 228.627 312.974 230.583 311.018C232.54 309.062 233.518 306.337 233.518 302.844V231.582C233.518 229.207 232.889 227.46 231.631 226.342C230.374 225.085 228.697 224.456 226.601 224.456C224.505 224.456 222.13 225.155 219.475 226.552V225.294ZM318.318 231.792C318.318 228.578 319.086 225.574 320.623 222.779C322.3 219.985 324.535 217.609 327.33 215.653C330.264 213.557 333.688 211.95 337.6 210.832C341.513 209.715 345.704 209.156 350.176 209.156C357.302 209.156 363.38 210.413 368.41 212.928C373.58 215.304 377.842 217.889 381.195 220.683C385.108 224.177 388.461 228.089 391.256 232.42C388.741 233.678 386.645 234.586 384.968 235.145C383.431 235.564 381.894 235.774 380.357 235.774C378.261 235.774 376.445 235.215 374.908 234.097C373.371 232.84 371.903 231.303 370.506 229.486C369.109 227.67 367.712 225.714 366.314 223.618C365.057 221.382 363.59 219.356 361.913 217.539C360.236 215.723 358.28 214.256 356.044 213.138C353.809 211.88 351.154 211.252 348.08 211.252C343.888 211.252 340.325 212.789 337.391 215.863C334.456 218.937 332.989 222.779 332.989 227.39C332.989 231.722 334.456 235.634 337.391 239.127C340.465 242.621 344.237 245.974 348.709 249.188C353.18 252.262 358 255.336 363.17 258.41C368.48 261.344 373.371 264.418 377.842 267.632C382.313 270.706 386.016 274.129 388.95 277.902C392.024 281.535 393.561 285.587 393.561 290.058C393.561 293.831 392.653 297.324 390.837 300.538C389.16 303.612 386.715 306.337 383.501 308.712C380.427 310.948 376.724 312.764 372.392 314.162C368.201 315.419 363.59 316.048 358.559 316.048C353.389 316.048 348.08 315.279 342.63 313.742C337.321 312.066 332.36 309.9 327.749 307.245C323.278 304.59 319.435 301.656 316.222 298.442C313.148 295.089 311.191 291.665 310.353 288.172C312.589 287.054 314.545 286.286 316.222 285.867C317.898 285.308 319.715 285.028 321.671 285.028C324.186 285.028 326.282 285.727 327.959 287.124C329.775 288.521 331.452 290.338 332.989 292.574C334.526 294.67 336.063 296.975 337.6 299.49C339.277 302.005 341.093 304.381 343.05 306.616C345.145 308.712 347.521 310.459 350.176 311.856C352.97 313.253 356.324 313.952 360.236 313.952C365.686 313.952 370.157 312.415 373.65 309.341C377.143 306.267 378.89 302.355 378.89 297.604C378.89 293.272 377.353 289.36 374.279 285.867C371.345 282.373 367.642 279.02 363.17 275.806C358.699 272.592 353.809 269.449 348.499 266.374C343.329 263.3 338.508 260.017 334.037 256.524C329.566 253.03 325.793 249.328 322.719 245.415C319.785 241.363 318.318 236.822 318.318 231.792ZM397.142 214.186C401.334 214.186 404.548 211.811 406.784 207.06C409.159 202.169 410.347 195.113 410.347 185.891H422.922C422.922 192.598 421.455 198.466 418.521 203.497C415.587 208.387 411.465 211.95 406.155 214.186H431.096V216.282H419.778V287.963C419.778 303.333 424.809 311.018 434.869 311.018C443.532 311.018 449.261 303.752 452.056 289.22H453.523C451.706 298.861 449.121 305.568 445.768 309.341C442.414 313.114 437.314 315 430.468 315C422.783 315 416.635 312.485 412.024 307.455C407.552 302.424 405.317 295.717 405.317 287.334V224.037C405.317 218.867 402.592 216.282 397.142 216.282V214.186ZM615.633 282.723C615.633 287.473 614.445 291.945 612.07 296.137C609.834 300.329 606.69 303.961 602.638 307.035C598.726 310.11 594.045 312.555 588.596 314.371C583.286 316.188 577.557 317.096 571.409 317.096C564.842 317.096 558.205 316.327 551.498 314.79C544.93 313.253 538.922 311.577 533.473 309.76C527.185 307.664 521.107 305.219 515.238 302.424V274.129H517.334C521.526 280.277 525.927 285.867 530.538 290.897C535.289 295.787 540.04 299.979 544.791 303.472C549.681 306.966 554.432 309.69 559.043 311.647C563.794 313.463 568.265 314.371 572.457 314.371C580.561 314.371 586.779 312.555 591.111 308.922C595.442 305.289 597.608 299.979 597.608 292.993C597.608 286.426 595.582 280.417 591.53 274.968C587.617 269.379 582.587 264.139 576.439 259.248C570.431 254.218 563.933 249.397 556.947 244.786C549.961 240.036 543.393 235.215 537.245 230.325C531.237 225.434 526.207 220.264 522.155 214.815C518.242 209.365 516.286 203.427 516.286 196.999C516.286 192.528 517.264 188.476 519.22 184.843C521.177 181.07 523.901 177.857 527.394 175.202C531.027 172.407 535.289 170.241 540.18 168.704C545.07 167.167 550.38 166.399 556.109 166.399C562.676 166.399 569.103 167.167 575.391 168.704C581.819 170.102 587.617 171.778 592.787 173.735C598.796 175.83 604.525 178.276 609.974 181.07V205.173H608.088C591.46 181.14 574.343 169.123 556.737 169.123C549.611 169.123 543.952 170.94 539.76 174.573C535.569 178.066 533.473 182.817 533.473 188.825C533.473 194.694 535.499 200.213 539.551 205.383C543.603 210.553 548.633 215.583 554.642 220.474C560.79 225.224 567.427 229.975 574.553 234.726C581.679 239.337 588.246 244.158 594.255 249.188C600.403 254.078 605.503 259.318 609.555 264.907C613.607 270.357 615.633 276.295 615.633 282.723ZM613.694 225.294L641.151 210.204H642.199V264.488C644.574 246.882 648.906 233.468 655.194 224.246C661.481 214.885 669.236 210.204 678.458 210.204C684.606 210.204 690.196 211.321 695.226 213.557C700.396 215.793 704.797 219.007 708.43 223.198C712.063 227.251 714.858 232.141 716.814 237.87C718.91 243.599 719.958 249.956 719.958 256.943C719.958 264.768 718.421 272.243 715.347 279.369C712.412 286.356 708.43 292.504 703.4 297.813C698.37 303.123 692.431 307.315 685.585 310.389C678.878 313.463 671.751 315 664.206 315C659.036 315 654.774 314.231 651.421 312.694C648.207 311.157 645.133 309.9 642.199 308.922V344.762C642.199 348.255 643.177 350.98 645.133 352.936C647.229 354.892 650.024 355.871 653.517 355.871V356.919H616.209V355.871C619.842 355.871 622.637 354.892 624.593 352.936C626.549 350.98 627.527 348.255 627.527 344.762V231.582C627.527 229.207 626.899 227.46 625.641 226.342C624.384 225.085 622.707 224.456 620.611 224.456C618.515 224.456 616.209 225.085 613.694 226.342V225.294ZM662.11 312.904C667.979 312.904 673.428 311.437 678.458 308.503C683.628 305.568 688.1 301.586 691.872 296.556C695.785 291.526 698.789 285.657 700.885 278.95C703.12 272.103 704.238 264.768 704.238 256.943C704.238 243.669 701.653 233.119 696.483 225.294C691.313 217.33 684.327 213.348 675.524 213.348C671.332 213.348 667.35 215.024 663.577 218.378C659.805 221.731 656.451 226.482 653.517 232.63C650.722 238.638 648.347 245.834 646.391 254.218C644.435 262.602 643.107 271.894 642.408 282.094V294.041C642.408 296.556 642.898 299.001 643.876 301.376C644.993 303.612 646.461 305.638 648.277 307.455C650.094 309.131 652.189 310.459 654.565 311.437C656.94 312.415 659.455 312.904 662.11 312.904ZM721.147 225.294L748.813 210.204H749.861V242.481C753.494 232.281 758.175 224.386 763.903 218.797C769.772 213.068 776.479 210.204 784.024 210.204C792.129 210.204 798.766 211.88 803.936 215.234C809.106 218.448 812.11 222.989 812.948 228.857L794.714 241.014C795.552 232.071 794.783 225.224 792.408 220.474C790.172 215.723 786.539 213.348 781.509 213.348C774.523 213.348 768.305 216.491 762.855 222.779C757.546 229.067 753.214 237.8 749.861 248.978V302.844C749.861 306.337 750.839 309.062 752.795 311.018C754.751 312.974 757.546 313.952 761.179 313.952V315H723.871V313.952C727.504 313.952 730.299 312.974 732.255 311.018C734.211 309.062 735.189 306.337 735.189 302.844V231.582C735.189 229.207 734.56 227.46 733.303 226.342C732.045 225.085 730.369 224.456 728.273 224.456C726.177 224.456 723.801 225.155 721.147 226.552V225.294ZM820.038 228.648C820.457 226.272 821.645 224.037 823.601 221.941C825.697 219.705 828.212 217.749 831.147 216.072C834.221 214.256 837.714 212.858 841.626 211.88C845.678 210.763 849.87 210.204 854.202 210.204C864.262 210.204 872.297 212.719 878.305 217.749C884.453 222.779 887.527 229.486 887.527 237.87V302.844C887.527 306.337 888.505 309.062 890.461 311.018C892.418 312.974 895.212 313.952 898.845 313.952V315H879.982C875.231 315 872.856 312.066 872.856 306.197V282.723C869.223 292.783 864.332 300.678 858.184 306.407C852.036 312.136 845.189 315 837.644 315C828.562 315 821.645 313.253 816.894 309.76C812.283 306.267 809.978 301.167 809.978 294.46C809.978 289.011 811.305 284.469 813.96 280.836C816.755 277.203 820.248 274.06 824.44 271.405C828.632 268.75 833.243 266.374 838.273 264.279C843.443 262.043 848.333 259.668 852.944 257.152C857.555 254.637 861.677 251.773 865.31 248.559C868.943 245.206 871.458 241.084 872.856 236.193V235.984C872.856 228.438 871.388 222.639 868.454 218.587C865.66 214.396 861.817 212.3 856.927 212.3C853.853 212.3 851.477 212.858 849.8 213.976C848.124 215.094 846.796 216.491 845.818 218.168C844.98 219.845 844.281 221.661 843.722 223.618C843.303 225.434 842.744 227.181 842.045 228.857C841.487 230.534 840.648 231.931 839.53 233.049C838.552 234.167 836.945 234.726 834.71 234.726C829.4 234.726 824.51 232.7 820.038 228.648ZM872.856 241.643C871.039 245.275 868.594 248.559 865.52 251.493C862.586 254.288 859.372 257.013 855.879 259.668C852.385 262.322 848.822 264.907 845.189 267.422C841.696 269.938 838.482 272.662 835.548 275.597C832.754 278.391 830.448 281.465 828.632 284.819C826.815 288.172 825.907 292.015 825.907 296.346C825.907 301.237 827.234 305.079 829.889 307.874C832.544 310.529 836.177 311.856 840.788 311.856C847.635 311.856 853.853 308.712 859.442 302.424C865.031 296.137 869.502 287.753 872.856 277.273V241.643ZM940.268 315H934.189L898.768 223.408C895.694 215.304 890.524 211.252 883.258 211.252V210.204H922.033V211.252C918.4 211.252 915.955 212.369 914.697 214.605C913.44 216.841 913.51 219.775 914.907 223.408L945.298 302.215L966.886 246.463C971.776 233.608 973.453 224.526 971.916 219.216C970.379 213.906 965.139 211.252 956.197 211.252V210.204H993.714V211.252C986.448 211.252 981.278 215.304 978.204 223.408L935.237 334.702C932.443 341.688 929.369 346.579 926.015 349.373C922.801 352.307 918.61 353.775 913.44 353.775C910.226 353.775 906.942 353.216 903.589 352.098C900.235 351.12 897.161 349.792 894.367 348.116C891.572 346.439 889.197 344.483 887.241 342.247C885.284 340.151 884.097 337.915 883.677 335.54C886.472 333.165 888.987 331.488 891.223 330.51C893.598 329.671 895.974 329.252 898.349 329.252C901.702 329.252 903.868 330.37 904.846 332.606C905.824 334.981 906.523 337.566 906.942 340.361C907.501 343.295 908.27 345.88 909.248 348.116C910.366 350.491 912.601 351.679 915.955 351.679C919.588 351.679 922.662 350.351 925.177 347.696C927.832 345.042 930.347 340.71 932.722 334.702L940.268 315ZM1156.19 282.723C1156.19 287.473 1155.01 291.945 1152.63 296.137C1150.4 300.329 1147.25 303.961 1143.2 307.035C1139.29 310.11 1134.61 312.555 1129.16 314.371C1123.85 316.188 1118.12 317.096 1111.97 317.096C1105.4 317.096 1098.77 316.327 1092.06 314.79C1085.49 313.253 1079.48 311.577 1074.03 309.76C1067.75 307.664 1061.67 305.219 1055.8 302.424V274.129H1057.89C1062.09 280.277 1066.49 285.867 1071.1 290.897C1075.85 295.787 1080.6 299.979 1085.35 303.472C1090.24 306.966 1094.99 309.69 1099.6 311.647C1104.35 313.463 1108.83 314.371 1113.02 314.371C1121.12 314.371 1127.34 312.555 1131.67 308.922C1136 305.289 1138.17 299.979 1138.17 292.993C1138.17 286.426 1136.14 280.417 1132.09 274.968C1128.18 269.379 1123.15 264.139 1117 259.248C1110.99 254.218 1104.49 249.397 1097.51 244.786C1090.52 240.036 1083.95 235.215 1077.81 230.325C1071.8 225.434 1066.77 220.264 1062.72 214.815C1058.8 209.365 1056.85 203.427 1056.85 196.999C1056.85 192.528 1057.82 188.476 1059.78 184.843C1061.74 181.07 1064.46 177.857 1067.96 175.202C1071.59 172.407 1075.85 170.241 1080.74 168.704C1085.63 167.167 1090.94 166.399 1096.67 166.399C1103.24 166.399 1109.66 167.167 1115.95 168.704C1122.38 170.102 1128.18 171.778 1133.35 173.735C1139.36 175.83 1145.09 178.276 1150.53 181.07V205.173H1148.65C1132.02 181.14 1114.9 169.123 1097.3 169.123C1090.17 169.123 1084.51 170.94 1080.32 174.573C1076.13 178.066 1074.03 182.817 1074.03 188.825C1074.03 194.694 1076.06 200.213 1080.11 205.383C1084.16 210.553 1089.19 215.583 1095.2 220.474C1101.35 225.224 1107.99 229.975 1115.11 234.726C1122.24 239.337 1128.81 244.158 1134.82 249.188C1140.96 254.078 1146.06 259.318 1150.12 264.907C1154.17 270.357 1156.19 276.295 1156.19 282.723ZM1179.2 269.938L1243.34 251.493C1239.29 223.967 1228.74 210.204 1211.69 210.204C1206.94 210.204 1202.47 211.461 1198.28 213.976C1194.23 216.352 1190.66 219.705 1187.59 224.037C1184.65 228.368 1182.35 233.538 1180.67 239.547C1179 245.415 1178.16 251.773 1178.16 258.62C1178.16 262.253 1178.51 266.025 1179.2 269.938ZM1162.44 262.602C1162.44 255.056 1163.76 248 1166.42 241.433C1169.07 234.866 1172.71 229.137 1177.32 224.246C1181.93 219.216 1187.31 215.304 1193.46 212.509C1199.61 209.575 1206.1 208.108 1212.95 208.108C1219.38 208.108 1225.32 209.156 1230.76 211.252C1236.35 213.348 1241.1 216.282 1245.02 220.055C1249.07 223.687 1252.21 228.089 1254.45 233.259C1256.82 238.289 1258.01 243.808 1258.01 249.817L1179.62 272.033C1180.88 277.902 1182.84 283.282 1185.49 288.172C1188.15 292.923 1191.43 297.045 1195.34 300.538C1199.26 304.031 1203.59 306.756 1208.34 308.712C1213.23 310.668 1218.4 311.647 1223.85 311.647C1238.1 311.647 1249.98 303.752 1259.48 287.963H1259.9C1255.99 297.185 1250.4 304.381 1243.13 309.551C1235.86 314.581 1227.55 317.096 1218.19 317.096C1210.22 317.096 1202.82 315.769 1195.97 313.114C1189.13 310.319 1183.19 306.477 1178.16 301.586C1173.27 296.696 1169.42 290.967 1166.63 284.399C1163.83 277.693 1162.44 270.427 1162.44 262.602ZM1260.89 225.294L1288.55 210.204H1289.6V242.481C1293.24 232.281 1297.92 224.386 1303.65 218.797C1309.51 213.068 1316.22 210.204 1323.77 210.204C1331.87 210.204 1338.51 211.88 1343.68 215.234C1348.85 218.448 1351.85 222.989 1352.69 228.857L1334.46 241.014C1335.29 232.071 1334.53 225.224 1332.15 220.474C1329.91 215.723 1326.28 213.348 1321.25 213.348C1314.26 213.348 1308.05 216.491 1302.6 222.779C1297.29 229.067 1292.96 237.8 1289.6 248.978V302.844C1289.6 306.337 1290.58 309.062 1292.54 311.018C1294.49 312.974 1297.29 313.952 1300.92 313.952V315H1263.61V313.952C1267.25 313.952 1270.04 312.974 1272 311.018C1273.95 309.062 1274.93 306.337 1274.93 302.844V231.582C1274.93 229.207 1274.3 227.46 1273.05 226.342C1271.79 225.085 1270.11 224.456 1268.01 224.456C1265.92 224.456 1263.54 225.155 1260.89 226.552V225.294ZM1458.46 302.844C1458.46 306.337 1459.44 309.062 1461.39 311.018C1463.35 312.974 1466.14 313.952 1469.78 313.952V315H1443.79V267.003C1441.41 282.653 1437.08 294.6 1430.79 302.844C1424.64 310.948 1416.89 315 1407.53 315C1402.78 315 1398.37 314.231 1394.32 312.694C1390.27 311.018 1386.71 308.782 1383.63 305.988C1380.7 303.053 1378.39 299.63 1376.72 295.717C1375.04 291.805 1374.2 287.543 1374.2 282.932V231.582C1374.2 229.207 1373.57 227.46 1372.31 226.342C1371.06 225.085 1369.45 224.456 1367.49 224.456C1365.12 224.456 1362.74 225.155 1360.37 226.552V225.294L1387.82 210.204H1388.87V282.513C1388.87 302.075 1395.93 311.856 1410.04 311.856C1419.54 311.856 1427.16 306.686 1432.89 296.346C1438.62 286.006 1442.25 270.986 1443.79 251.284V231.373L1443.58 231.582C1443.58 229.207 1442.95 227.46 1441.69 226.342C1440.43 225.085 1438.83 224.456 1436.87 224.456C1434.49 224.456 1432.12 225.155 1429.74 226.552V225.294L1457.2 210.204H1458.25V210.413L1458.46 210.204V302.844ZM1472.94 225.294L1500.6 210.204H1501.65V264.488C1504.03 247.022 1508.29 233.608 1514.44 224.246C1520.58 214.885 1528.41 210.204 1537.91 210.204C1546.71 210.204 1553.7 212.789 1558.87 217.959C1564.18 223.129 1566.84 230.045 1566.84 238.708V265.327C1569.21 247.721 1573.47 234.167 1579.62 224.666C1585.91 215.024 1593.8 210.204 1603.3 210.204C1612.11 210.204 1619.09 212.789 1624.26 217.959C1629.57 223.129 1632.23 230.045 1632.23 238.708V302.844C1632.23 306.337 1633.21 309.062 1635.16 311.018C1637.26 312.974 1640.05 313.952 1643.55 313.952V315H1606.24V313.952C1609.87 313.952 1612.67 312.974 1614.62 311.018C1616.58 309.062 1617.56 306.337 1617.56 302.844V236.612C1617.56 229.207 1616.09 223.478 1613.16 219.426C1610.22 215.374 1606.1 213.348 1600.79 213.348C1596.18 213.348 1591.92 214.954 1588 218.168C1584.23 221.382 1580.88 226.063 1577.94 232.211C1575.01 238.219 1572.56 245.625 1570.61 254.428C1568.79 263.091 1567.53 272.942 1566.84 283.98V302.844C1566.84 306.337 1567.81 309.062 1569.77 311.018C1571.87 312.974 1574.66 313.952 1578.15 313.952V315H1540.85V313.952C1544.48 313.952 1547.27 312.974 1549.23 311.018C1551.19 309.062 1552.16 306.337 1552.16 302.844V236.612C1552.16 229.207 1550.7 223.478 1547.76 219.426C1544.83 215.374 1540.71 213.348 1535.4 213.348C1530.79 213.348 1526.52 214.954 1522.61 218.168C1518.84 221.242 1515.48 225.783 1512.55 231.792C1509.76 237.66 1507.38 244.856 1505.42 253.38C1503.61 261.903 1502.35 271.544 1501.65 282.304V302.844C1501.65 306.337 1502.63 309.062 1504.59 311.018C1506.54 312.974 1509.34 313.952 1512.97 313.952V315H1475.66V313.952C1479.3 313.952 1482.09 312.974 1484.05 311.018C1486 309.062 1486.98 306.337 1486.98 302.844V231.582C1486.98 229.207 1486.35 227.46 1485.09 226.342C1483.84 225.085 1482.16 224.456 1480.06 224.456C1477.97 224.456 1475.59 225.155 1472.94 226.552V225.294Z" fill="#6CA8EE"/>
<path d="M63.9258 28.3758L91.3824 13.2851H92.4304V147.844C92.4304 151.337 93.4085 154.062 95.3647 156.018C97.4606 157.974 100.255 158.952 103.748 158.952V160H66.4409V158.952C70.0738 158.952 72.8684 157.974 74.8246 156.018C76.7808 154.062 77.7589 151.337 77.7589 147.844V105.715C75.3835 123.321 71.0519 136.805 64.7641 146.167C58.6161 155.389 50.8612 160 41.4994 160C35.3513 160 29.6923 158.882 24.5223 156.647C19.4921 154.411 15.1605 151.267 11.5276 147.215C7.89466 143.023 5.03022 138.063 2.9343 132.334C0.978099 126.605 0 120.247 0 113.261C0 105.436 1.46715 98.0304 4.40145 91.044C7.47547 83.9179 11.5276 77.6999 16.5578 72.3903C21.7278 67.0806 27.6662 62.8887 34.3732 59.8147C41.2199 56.7407 48.4159 55.2037 55.9613 55.2037C58.7558 55.2037 61.2011 55.3434 63.297 55.6228C65.3929 55.7626 67.2094 55.9722 68.7464 56.2516C70.4231 56.5311 71.9602 56.8105 73.3574 57.09C74.7547 57.3694 76.2219 57.579 77.7589 57.7188V34.6636C77.7589 32.2882 77.1301 30.5416 75.8726 29.4238C74.615 28.1662 72.9383 27.5374 70.8423 27.5374C68.7464 27.5374 66.4409 28.1662 63.9258 29.4238V28.3758ZM58.0572 57.2996C52.1886 57.2996 46.6693 58.7667 41.4994 61.701C36.3294 64.6353 31.8581 68.6176 28.0854 73.6478C24.3128 78.678 21.3086 84.6165 19.0729 91.4632C16.8373 98.1702 15.7195 105.436 15.7195 113.261C15.7195 126.535 18.3044 137.154 23.4744 145.119C28.7841 152.944 35.8404 156.856 44.6432 156.856C48.9748 156.856 52.9571 155.249 56.59 152.035C60.3627 148.822 63.6463 144.211 66.4409 138.202C69.3752 132.194 71.8204 124.998 73.7766 116.614C75.7328 108.091 77.0602 98.5893 77.7589 88.1097V76.1629C77.7589 73.6478 77.2 71.2724 76.0821 69.0368C75.104 66.6614 73.7068 64.6353 71.8903 62.9586C70.0738 61.1421 67.9779 59.7448 65.6025 58.7667C63.2271 57.7886 60.712 57.2996 58.0572 57.2996ZM116.376 47.6583L114.49 13.2851H121.826L119.52 47.6583H116.376ZM198.836 13.2851L250.396 146.796C253.47 154.9 258.64 158.952 265.906 158.952V160H225.035V158.952C228.668 158.952 231.114 157.834 232.371 155.599C233.629 153.363 233.559 150.429 232.162 146.796L220.005 115.566H155.241L152.516 122.693C149.862 129.539 148.115 135.338 147.277 140.089C146.438 144.7 146.578 148.403 147.696 151.197C148.953 153.992 151.119 156.018 154.193 157.275C157.407 158.393 161.669 158.952 166.978 158.952V160H125.269V158.952C132.535 158.952 137.705 154.9 140.779 146.796L186.47 28.3758L180.602 13.2851H198.836ZM219.376 113.47L187.728 31.5197L156.079 113.47H219.376ZM268.131 28.3758L295.797 13.2851H296.845V147.844C296.845 151.337 297.824 154.062 299.78 156.018C301.736 157.974 304.531 158.952 308.163 158.952V160H270.856V158.952C274.489 158.952 277.283 157.974 279.24 156.018C281.196 154.062 282.174 151.337 282.174 147.844V34.6636C282.174 32.2882 281.545 30.5416 280.288 29.4238C279.03 28.1662 277.353 27.5374 275.257 27.5374C273.161 27.5374 270.786 28.2361 268.131 29.6333V28.3758ZM307.021 28.3758L334.687 13.2851H335.735V109.488C338.25 90.7645 342.581 77.0712 348.729 68.408C355.017 59.6051 363.541 55.2037 374.3 55.2037C380.029 55.2037 385.268 56.3914 390.019 58.7667C394.91 61.0024 399.032 64.2161 402.385 68.408C405.878 72.4601 408.603 77.3506 410.559 83.0795C412.516 88.8084 413.494 95.0961 413.494 101.943C413.494 109.768 411.957 117.243 408.883 124.369C405.948 131.356 401.896 137.504 396.726 142.813C391.696 148.123 385.758 152.315 378.911 155.389C372.204 158.463 365.078 160 357.532 160C354.179 160 351.245 159.651 348.729 158.952C346.354 158.114 344.118 157.275 342.023 156.437C339.927 155.599 337.97 154.83 336.154 154.131C334.337 153.293 332.381 152.874 330.285 152.874C328.469 152.874 326.792 153.572 325.255 154.97C323.858 156.227 322.81 157.904 322.111 160H321.063V34.6636C321.063 32.2882 320.434 30.5416 319.177 29.4238C317.919 28.1662 316.243 27.5374 314.147 27.5374C312.051 27.5374 309.675 28.2361 307.021 29.6333V28.3758ZM355.646 157.904C361.515 157.904 366.964 156.437 371.994 153.503C377.164 150.568 381.636 146.586 385.408 141.556C389.321 136.526 392.325 130.657 394.421 123.95C396.656 117.103 397.774 109.768 397.774 101.943C397.774 95.3756 397.076 89.4371 395.678 84.1274C394.421 78.678 392.534 74.067 390.019 70.2943C387.504 66.5217 384.43 63.5874 380.797 61.4914C377.304 59.3955 373.322 58.3475 368.85 58.3475C359.908 58.3475 352.502 64.3559 346.634 76.3725C340.905 88.3892 337.272 105.296 335.735 127.094V139.041C335.735 141.556 336.224 144.001 337.202 146.376C338.32 148.612 339.787 150.638 341.603 152.455C343.42 154.131 345.516 155.459 347.891 156.437C350.406 157.415 352.991 157.904 355.646 157.904ZM422.491 73.6478C422.911 71.2724 424.098 69.0368 426.054 66.9408C428.15 64.7052 430.665 62.749 433.6 61.0722C436.674 59.2558 440.167 57.8585 444.079 56.8804C448.132 55.7626 452.323 55.2037 456.655 55.2037C466.715 55.2037 474.75 57.7188 480.758 62.749C486.906 67.7792 489.98 74.4862 489.98 82.8699V147.844C489.98 151.337 490.958 154.062 492.914 156.018C494.871 157.974 497.665 158.952 501.298 158.952V160H482.435C477.684 160 475.309 157.066 475.309 151.197V127.723C471.676 137.783 466.785 145.678 460.637 151.407C454.489 157.136 447.642 160 440.097 160C431.015 160 424.098 158.253 419.347 154.76C414.736 151.267 412.431 146.167 412.431 139.46C412.431 134.011 413.758 129.469 416.413 125.836C419.208 122.203 422.701 119.06 426.893 116.405C431.085 113.75 435.696 111.374 440.726 109.279C445.896 107.043 450.786 104.668 455.397 102.152C460.008 99.6373 464.13 96.7729 467.763 93.5591C471.396 90.2056 473.911 86.0836 475.309 81.1931V80.9836C475.309 73.4382 473.842 67.6395 470.907 63.5874C468.113 59.3955 464.27 57.2996 459.38 57.2996C456.306 57.2996 453.93 57.8585 452.254 58.9763C450.577 60.0941 449.249 61.4914 448.271 63.1682C447.433 64.8449 446.734 66.6614 446.175 68.6176C445.756 70.4341 445.197 72.1807 444.499 73.8574C443.94 75.5341 443.101 76.9314 441.983 78.0493C441.005 79.1671 439.399 79.726 437.163 79.726C431.853 79.726 426.963 77.6999 422.491 73.6478ZM475.309 86.6426C473.492 90.2755 471.047 93.5591 467.973 96.4934C465.039 99.288 461.825 102.013 458.332 104.668C454.838 107.322 451.275 109.907 447.642 112.422C444.149 114.938 440.936 117.662 438.001 120.597C435.207 123.391 432.901 126.465 431.085 129.819C429.268 133.172 428.36 137.015 428.36 141.346C428.36 146.237 429.687 150.079 432.342 152.874C434.997 155.529 438.63 156.856 443.241 156.856C450.088 156.856 456.306 153.712 461.895 147.424C467.484 141.137 471.955 132.753 475.309 122.273V86.6426ZM627.211 160H620.085L577.957 26.4895C575.442 18.3852 570.551 14.3331 563.285 14.3331V13.2851H604.156V14.3331C600.523 14.3331 598.008 15.4509 596.611 17.6866C595.213 19.9222 595.074 22.8565 596.191 26.4895L632.66 142.604L663.68 44.3048L658.021 26.4895C655.506 18.3852 650.616 14.3331 643.35 14.3331V13.2851H684.22V14.3331C680.587 14.3331 678.072 15.4509 676.675 17.6866C675.278 19.9222 675.138 22.8565 676.256 26.4895L712.934 142.813L741.439 52.0598C743.814 44.3747 745.351 38.0869 746.05 33.1964C746.888 28.3059 746.679 24.4634 745.421 21.6688C744.164 18.8743 741.858 16.9879 738.505 16.0098C735.151 14.892 730.61 14.3331 724.881 14.3331V13.2851H766.59V14.3331C763.376 14.3331 760.372 15.4509 757.578 17.6866C754.923 19.9222 753.037 22.8565 751.919 26.4895L713.982 146.586L718.174 159.79L709.791 160H700.149L664.938 48.0775L633.918 146.376L638.11 159.79L627.211 160ZM758.341 28.3758L786.007 13.2851H787.055V113.051C788.312 104.248 790.199 96.2838 792.714 89.1577C795.229 82.0315 798.163 75.9533 801.517 70.9231C805.01 65.8929 808.922 62.0503 813.254 59.3955C817.725 56.6009 822.476 55.2037 827.506 55.2037C836.309 55.2037 843.296 57.7886 848.466 62.9586C853.775 68.1285 856.43 75.0451 856.43 83.7083V147.844C856.43 151.337 857.408 154.062 859.364 156.018C861.46 157.974 864.255 158.952 867.748 158.952V160H830.441V158.952C834.074 158.952 836.868 157.974 838.824 156.018C840.78 154.062 841.759 151.337 841.759 147.844V81.6123C841.759 74.2067 840.291 68.4779 837.357 64.4257C834.423 60.3736 830.301 58.3475 824.991 58.3475C819.961 58.3475 815.28 60.0942 810.948 63.5874C806.757 66.9408 802.984 71.7615 799.63 78.0493C796.417 84.1973 793.692 91.6728 791.456 100.476C789.36 109.279 787.893 119.06 787.055 129.819V147.844C787.055 151.337 788.033 154.062 789.989 156.018C791.945 157.974 794.74 158.952 798.373 158.952V160H761.065V158.952C764.698 158.952 767.493 157.974 769.449 156.018C771.405 154.062 772.383 151.337 772.383 147.844V34.6636C772.383 32.2882 771.755 30.5416 770.497 29.4238C769.24 28.1662 767.563 27.5374 765.467 27.5374C763.371 27.5374 760.996 28.2361 758.341 29.6333V28.3758ZM877.198 27.5374C877.198 24.3237 878.316 21.599 880.551 19.3633C882.787 17.1276 885.512 16.0098 888.725 16.0098C891.939 16.0098 894.664 17.1276 896.899 19.3633C899.135 21.599 900.253 24.3237 900.253 27.5374C900.253 30.7512 899.135 33.4759 896.899 35.7115C894.664 37.9472 891.939 39.065 888.725 39.065C885.512 39.065 882.787 37.9472 880.551 35.7115C878.316 33.4759 877.198 30.7512 877.198 27.5374ZM871.12 70.2943L898.786 55.2037H899.834V147.844C899.834 151.337 900.812 154.062 902.768 156.018C904.724 157.974 907.519 158.952 911.152 158.952V160H873.844V158.952C877.477 158.952 880.272 157.974 882.228 156.018C884.184 154.062 885.162 151.337 885.162 147.844V76.5821C885.162 74.2067 884.533 72.4601 883.276 71.3423C882.018 70.0847 880.342 69.456 878.246 69.456C876.15 69.456 873.774 70.1546 871.12 71.5519V70.2943ZM908.172 59.1859C912.363 59.1859 915.577 56.8105 917.813 52.0598C920.188 47.1693 921.376 40.113 921.376 30.8909H933.952C933.952 37.5979 932.484 43.4665 929.55 48.4967C926.616 53.3872 922.494 56.9503 917.184 59.1859H942.126V61.2818H930.808V132.963C930.808 148.333 935.838 156.018 945.898 156.018C954.561 156.018 960.29 148.752 963.085 134.22H964.552C962.736 143.861 960.151 150.568 956.797 154.341C953.444 158.114 948.344 160 941.497 160C933.812 160 927.664 157.485 923.053 152.455C918.581 147.424 916.346 140.717 916.346 132.334V69.0368C916.346 63.8668 913.621 61.2818 908.172 61.2818V59.1859ZM982.245 114.938L1046.38 96.4934C1042.33 68.9669 1031.78 55.2037 1014.73 55.2037C1009.98 55.2037 1005.51 56.4612 1001.32 58.9763C997.265 61.3517 993.702 64.7052 990.628 69.0368C987.694 73.3684 985.389 78.5383 983.712 84.5466C982.035 90.4152 981.197 96.7729 981.197 103.62C981.197 107.253 981.546 111.025 982.245 114.938ZM965.477 107.602C965.477 100.056 966.805 93.0002 969.459 86.433C972.114 79.8657 975.747 74.1369 980.358 69.2464C984.969 64.2161 990.349 60.3037 996.497 57.5092C1002.65 54.5749 1009.14 53.1077 1015.99 53.1077C1022.42 53.1077 1028.36 54.1557 1033.8 56.2516C1039.39 58.3475 1044.14 61.2818 1048.06 65.0545C1052.11 68.6875 1055.25 73.0889 1057.49 78.2589C1059.86 83.2891 1061.05 88.8084 1061.05 94.8167L982.664 117.033C983.921 122.902 985.878 128.282 988.532 133.172C991.187 137.923 994.471 142.045 998.383 145.538C1002.3 149.031 1006.63 151.756 1011.38 153.712C1016.27 155.668 1021.44 156.647 1026.89 156.647C1041.14 156.647 1053.02 148.752 1062.52 132.963H1062.94C1059.03 142.185 1053.44 149.381 1046.17 154.551C1038.9 159.581 1030.59 162.096 1021.23 162.096C1013.26 162.096 1005.86 160.769 999.012 158.114C992.165 155.319 986.227 151.477 981.197 146.586C976.306 141.696 972.464 135.967 969.669 129.399C966.875 122.693 965.477 115.427 965.477 107.602ZM1158.04 15.381C1149.24 15.381 1142.32 17.4071 1137.29 21.4592C1132.26 25.5114 1128.28 32.2882 1125.35 41.7897H1124.72L1129.12 13.2851H1245.65L1250.05 41.7897H1249.43C1246.49 32.2882 1242.51 25.5114 1237.48 21.4592C1232.45 17.4071 1225.53 15.381 1216.73 15.381H1195.77V147.844C1195.77 151.477 1196.75 154.271 1198.7 156.227C1200.66 158.044 1203.46 158.952 1207.09 158.952V160H1167.69V158.952C1171.32 158.952 1174.11 158.044 1176.07 156.227C1178.02 154.271 1179 151.477 1179 147.844V15.381H1158.04ZM1210.07 70.2943L1237.74 55.2037H1238.78V87.4809C1242.42 77.2807 1247.1 69.3861 1252.83 63.797C1258.7 58.0681 1265.4 55.2037 1272.95 55.2037C1281.05 55.2037 1287.69 56.8804 1292.86 60.2339C1298.03 63.4476 1301.03 67.9888 1301.87 73.8574L1283.64 86.0138C1284.48 77.0712 1283.71 70.2245 1281.33 65.4737C1279.1 60.7229 1275.46 58.3475 1270.43 58.3475C1263.45 58.3475 1257.23 61.4914 1251.78 67.7792C1246.47 74.067 1242.14 82.8 1238.78 93.9783V147.844C1238.78 151.337 1239.76 154.062 1241.72 156.018C1243.68 157.974 1246.47 158.952 1250.1 158.952V160H1212.8V158.952C1216.43 158.952 1219.22 157.974 1221.18 156.018C1223.13 154.062 1224.11 151.337 1224.11 147.844V76.5821C1224.11 74.2067 1223.48 72.4601 1222.23 71.3423C1220.97 70.0847 1219.29 69.456 1217.2 69.456C1215.1 69.456 1212.73 70.1546 1210.07 71.5519V70.2943ZM1407.64 147.844C1407.64 151.337 1408.62 154.062 1410.57 156.018C1412.53 157.974 1415.32 158.952 1418.96 158.952V160H1392.97V112.003C1390.59 127.653 1386.26 139.6 1379.97 147.844C1373.82 155.948 1366.07 160 1356.71 160C1351.96 160 1347.56 159.231 1343.5 157.694C1339.45 156.018 1335.89 153.782 1332.81 150.988C1329.88 148.053 1327.57 144.63 1325.9 140.717C1324.22 136.805 1323.38 132.543 1323.38 127.932V76.5821C1323.38 74.2067 1322.75 72.4601 1321.5 71.3423C1320.24 70.0847 1318.63 69.456 1316.68 69.456C1314.3 69.456 1311.93 70.1546 1309.55 71.5519V70.2943L1337.01 55.2037H1338.05V127.513C1338.05 147.075 1345.11 156.856 1359.22 156.856C1368.72 156.856 1376.34 151.686 1382.07 141.346C1387.8 131.006 1391.43 115.986 1392.97 96.2838V76.3725L1392.76 76.5821C1392.76 74.2067 1392.13 72.4601 1390.87 71.3423C1389.61 70.0847 1388.01 69.456 1386.05 69.456C1383.68 69.456 1381.3 70.1546 1378.92 71.5519V70.2943L1406.38 55.2037H1407.43V55.4132L1407.64 55.2037V147.844ZM1482.01 31.7293C1478.8 34.1047 1476.14 35.7115 1474.05 36.5499C1471.95 37.3883 1469.65 37.8075 1467.13 37.8075C1464.9 37.8075 1463.22 37.2486 1462.1 36.1307C1461.12 35.0129 1460.36 33.6156 1459.8 31.9389C1459.24 30.2621 1458.82 28.5155 1458.54 26.699C1458.26 24.7428 1457.84 22.9264 1457.28 21.2496C1456.72 19.5729 1455.88 18.1756 1454.77 17.0578C1453.65 15.94 1451.9 15.381 1449.53 15.381C1447.29 15.381 1445.13 15.8701 1443.03 16.8482C1441.07 17.6866 1439.26 18.9441 1437.58 20.6209C1436.04 22.1579 1434.79 23.9743 1433.81 26.0703C1432.97 28.0265 1432.55 30.1224 1432.55 32.3581C1432.55 35.7115 1433.46 38.2965 1435.27 40.113C1437.09 41.9295 1439.05 43.5363 1441.14 44.9336C1443.38 46.3309 1445.4 47.798 1447.22 49.3351C1449.18 50.7323 1450.16 52.6885 1450.16 55.2037H1474.89V68.6176H1474.26C1473.84 64.9846 1472.16 62.1901 1469.23 60.2339C1466.43 58.2777 1462.59 57.2996 1457.7 57.2996H1450.16V147.844C1450.16 151.337 1451.13 154.062 1453.09 156.018C1455.05 157.974 1457.84 158.952 1461.47 158.952V160H1424.17V158.952C1427.8 158.952 1430.59 157.974 1432.55 156.018C1434.51 154.062 1435.48 151.337 1435.48 147.844V61.701C1435.48 60.8627 1435.41 60.0942 1435.27 59.3955C1435.27 58.6969 1435.27 57.9982 1435.27 57.2996H1425V55.2037H1435.06C1434.79 52.8283 1434.37 50.7323 1433.81 48.9159C1433.25 47.0994 1432.69 45.3528 1432.13 43.6761C1431.71 41.8596 1431.29 40.113 1430.87 38.4362C1430.59 36.6198 1430.45 34.5937 1430.45 32.3581C1430.45 26.9086 1432.48 22.3675 1436.53 18.7345C1440.72 15.1016 1445.96 13.2851 1452.25 13.2851C1455.47 13.2851 1458.75 13.844 1462.1 14.9619C1465.46 15.94 1468.46 17.3372 1471.11 19.1537C1473.91 20.8305 1476.28 22.7867 1478.24 25.0223C1480.2 27.1182 1481.45 29.3539 1482.01 31.7293ZM1536.51 37.8075C1533.16 37.8075 1530.57 36.6896 1528.76 34.454C1526.94 32.0786 1525.26 29.4936 1523.73 26.699C1522.19 23.7648 1520.44 21.1798 1518.49 18.9441C1516.67 16.5687 1514.01 15.381 1510.52 15.381C1508.29 15.381 1506.12 15.8701 1504.02 16.8482C1502.07 17.6866 1500.25 18.9441 1498.57 20.6209C1497.04 22.1579 1495.78 23.9743 1494.8 26.0703C1493.96 28.0265 1493.54 30.1224 1493.54 32.3581C1493.54 35.7115 1494.45 38.2965 1496.27 40.113C1498.09 41.9295 1500.04 43.5363 1502.14 44.9336C1504.37 46.3309 1506.4 47.798 1508.22 49.3351C1510.17 50.7323 1511.15 52.6885 1511.15 55.2037H1531.69V68.6176H1531.06C1530.64 64.9846 1528.97 62.1901 1526.03 60.2339C1523.24 58.2777 1519.39 57.2996 1514.5 57.2996H1511.15V147.844C1511.15 151.337 1512.13 154.062 1514.08 156.018C1516.04 157.974 1518.84 158.952 1522.47 158.952V160H1485.16V158.952C1488.79 158.952 1491.59 157.974 1493.54 156.018C1495.5 154.062 1496.48 151.337 1496.48 147.844V61.701C1496.48 60.8627 1496.41 60.0942 1496.27 59.3955C1496.27 58.6969 1496.27 57.9982 1496.27 57.2996H1486V55.2037H1496.06C1495.78 52.8283 1495.36 50.7323 1494.8 48.9159C1494.24 47.0994 1493.68 45.3528 1493.13 43.6761C1492.71 41.8596 1492.29 40.113 1491.87 38.4362C1491.59 36.6198 1491.45 34.5937 1491.45 32.3581C1491.45 26.9086 1493.47 22.3675 1497.53 18.7345C1501.72 15.1016 1506.96 13.2851 1513.25 13.2851C1524.98 13.2851 1534.21 16.7783 1540.91 23.7647C1547.76 30.7512 1551.18 40.2527 1551.18 52.2694V147.844C1551.18 151.337 1552.16 154.062 1554.12 156.018C1556.07 157.974 1558.87 158.952 1562.5 158.952V160H1525.19V158.952C1528.69 158.952 1531.41 157.974 1533.37 156.018C1535.46 154.062 1536.51 151.337 1536.51 147.844V37.8075ZM1576.23 114.938L1640.36 96.4934C1636.31 68.9669 1625.76 55.2037 1608.71 55.2037C1603.96 55.2037 1599.49 56.4612 1595.3 58.9763C1591.25 61.3517 1587.68 64.7052 1584.61 69.0368C1581.68 73.3684 1579.37 78.5383 1577.69 84.5466C1576.02 90.4152 1575.18 96.7729 1575.18 103.62C1575.18 107.253 1575.53 111.025 1576.23 114.938ZM1559.46 107.602C1559.46 100.056 1560.79 93.0002 1563.44 86.433C1566.1 79.8657 1569.73 74.1369 1574.34 69.2464C1578.95 64.2161 1584.33 60.3037 1590.48 57.5092C1596.63 54.5749 1603.12 53.1077 1609.97 53.1077C1616.4 53.1077 1622.34 54.1557 1627.79 56.2516C1633.38 58.3475 1638.13 61.2818 1642.04 65.0545C1646.09 68.6875 1649.24 73.0889 1651.47 78.2589C1653.85 83.2891 1655.03 88.8084 1655.03 94.8167L1576.65 117.033C1577.9 122.902 1579.86 128.282 1582.51 133.172C1585.17 137.923 1588.45 142.045 1592.37 145.538C1596.28 149.031 1600.61 151.756 1605.36 153.712C1610.25 155.668 1615.42 156.647 1620.87 156.647C1635.12 156.647 1647 148.752 1656.5 132.963H1656.92C1653.01 142.185 1647.42 149.381 1640.15 154.551C1632.89 159.581 1624.57 162.096 1615.21 162.096C1607.25 162.096 1599.84 160.769 1592.99 158.114C1586.15 155.319 1580.21 151.477 1575.18 146.586C1570.29 141.696 1566.45 135.967 1563.65 129.399C1560.86 122.693 1559.46 115.427 1559.46 107.602Z" fill="#6CA8EE"/>
</g>
<defs>
<clipPath id="clip0_5435_9">
<rect width="1645" height="368" fill="white"/>
</clipPath>
</defs>
</svg>
