<svg width="1644" height="368" viewBox="0 0 1644 368" fill="none" xmlns="http://www.w3.org/2000/svg">
<path d="M-1 13.2851H23.7319L65.8601 90.2056L106.94 13.2851H133.139V14.3331C129.506 14.3331 126.712 15.3112 124.756 17.2674C122.799 19.0838 121.821 21.8086 121.821 25.4415V147.844C121.821 151.477 122.799 154.271 124.756 156.227C126.712 158.044 129.506 158.952 133.139 158.952V160H93.7359V158.952C97.3688 158.952 100.163 158.044 102.12 156.227C104.076 154.271 105.054 151.477 105.054 147.844V20.8305L66.908 92.5112L79.9028 115.986C82.8371 121.435 84.3741 126.814 84.5138 132.124C84.7933 137.294 83.885 141.975 81.7891 146.167C79.6932 150.219 76.6192 153.572 72.567 156.227C68.5149 158.742 63.6943 160 58.1051 160C54.3325 160 51.1187 159.162 48.4639 157.485C45.809 155.808 43.8528 153.642 42.5953 150.988C41.3377 148.193 40.7788 145.049 40.9185 141.556C41.0583 138.063 42.1062 134.5 44.0624 130.867L56.4284 108.021L12.4139 29.8429V117.662C12.4139 125.767 12.8331 132.543 13.6715 137.993C14.5099 143.302 15.977 147.494 18.0729 150.568C20.1689 153.642 23.0333 155.808 26.6662 157.066C30.2992 158.323 34.9102 158.952 40.4994 158.952V160H-1V158.952C2.63294 158.952 5.42751 158.044 7.38371 156.227C9.33991 154.271 10.318 151.477 10.318 147.844V25.4415C10.318 21.8086 9.33991 19.0838 7.38371 17.2674C5.42751 15.3112 2.63294 14.3331 -1 14.3331V13.2851ZM46.5775 130.867C44.7611 134.22 43.7131 137.574 43.4337 140.927C43.1542 144.141 43.5035 147.005 44.4816 149.52C45.4597 152.035 47.0666 154.062 49.3022 155.599C51.5379 157.136 54.2626 157.904 57.4764 157.904C60.8298 157.904 63.5545 156.926 65.6505 154.97C67.7464 153.014 69.1437 150.429 69.8423 147.215C70.6807 144.001 70.7506 140.438 70.0519 136.526C69.3533 132.473 67.8163 128.352 65.4409 124.16L57.686 110.117L46.5775 130.867ZM143.126 73.6478C143.545 71.2724 144.733 69.0368 146.689 66.9408C148.785 64.7052 151.3 62.749 154.234 61.0722C157.309 59.2558 160.802 57.8585 164.714 56.8804C168.766 55.7626 172.958 55.2037 177.29 55.2037C187.35 55.2037 195.385 57.7188 201.393 62.749C207.541 67.7792 210.615 74.4862 210.615 82.8699V147.844C210.615 151.337 211.593 154.062 213.549 156.018C215.505 157.974 218.3 158.952 221.933 158.952V160H203.07C198.319 160 195.943 157.066 195.943 151.197V127.723C192.31 137.783 187.42 145.678 181.272 151.407C175.124 157.136 168.277 160 160.732 160C151.65 160 144.733 158.253 139.982 154.76C135.371 151.267 133.066 146.167 133.066 139.46C133.066 134.011 134.393 129.469 137.048 125.836C139.842 122.203 143.336 119.06 147.528 116.405C151.719 113.75 156.33 111.374 161.361 109.279C166.531 107.043 171.421 104.668 176.032 102.152C180.643 99.6373 184.765 96.7729 188.398 93.5591C192.031 90.2056 194.546 86.0836 195.943 81.1931V80.9836C195.943 73.4382 194.476 67.6395 191.542 63.5874C188.747 59.3955 184.905 57.2996 180.014 57.2996C176.94 57.2996 174.565 57.8585 172.888 58.9763C171.211 60.0941 169.884 61.4914 168.906 63.1682C168.068 64.8449 167.369 66.6614 166.81 68.6176C166.391 70.4341 165.832 72.1807 165.133 73.8574C164.574 75.5341 163.736 76.9314 162.618 78.0493C161.64 79.1671 160.033 79.726 157.798 79.726C152.488 79.726 147.597 77.6999 143.126 73.6478ZM195.943 86.6426C194.127 90.2755 191.682 93.5591 188.608 96.4934C185.673 99.288 182.46 102.013 178.966 104.668C175.473 107.322 171.91 109.907 168.277 112.422C164.784 114.938 161.57 117.662 158.636 120.597C155.841 123.391 153.536 126.465 151.719 129.819C149.903 133.172 148.995 137.015 148.995 141.346C148.995 146.237 150.322 150.079 152.977 152.874C155.632 155.529 159.265 156.856 163.876 156.856C170.722 156.856 176.94 153.712 182.53 147.424C188.119 141.137 192.59 132.753 195.943 122.273V86.6426ZM232.409 153.083C232.409 149.87 233.457 147.215 235.553 145.119C237.789 143.023 240.444 141.975 243.518 141.975C246.731 141.975 249.386 143.023 251.482 145.119C253.578 147.215 254.626 149.87 254.626 153.083C254.626 156.157 253.578 158.742 251.482 160.838C249.386 163.074 246.731 164.192 243.518 164.192C240.444 164.192 237.789 163.074 235.553 160.838C233.457 158.742 232.409 156.157 232.409 153.083ZM232.409 80.5644C232.409 77.3506 233.457 74.6958 235.553 72.5998C237.789 70.3642 240.444 69.2464 243.518 69.2464C246.731 69.2464 249.386 70.3642 251.482 72.5998C253.578 74.6958 254.626 77.3506 254.626 80.5644C254.626 83.6384 253.578 86.2932 251.482 88.5289C249.386 90.6248 246.731 91.6728 243.518 91.6728C240.444 91.6728 237.789 90.6248 235.553 88.5289C233.457 86.2932 232.409 83.6384 232.409 80.5644ZM257.716 70.2943L285.382 55.2037H286.43V113.051C287.688 104.248 289.574 96.2838 292.089 89.1577C294.604 82.0315 297.539 75.9533 300.892 70.9231C304.385 65.8929 308.298 62.0503 312.629 59.3955C317.101 56.6009 321.851 55.2037 326.882 55.2037C335.684 55.2037 342.671 57.7886 347.841 62.9586C353.151 68.1285 355.805 75.0451 355.805 83.7083V147.844C355.805 151.337 356.783 154.062 358.74 156.018C360.836 157.974 363.63 158.952 367.123 158.952V160H329.816V158.952C333.449 158.952 336.243 157.974 338.2 156.018C340.156 154.062 341.134 151.337 341.134 147.844V81.6123C341.134 74.2067 339.667 68.4779 336.732 64.4257C333.798 60.3736 329.676 58.3475 324.366 58.3475C319.336 58.3475 314.655 60.0942 310.324 63.5874C306.132 66.9408 302.359 71.7615 299.006 78.0493C295.792 84.1973 293.067 91.6728 290.832 100.476C288.736 109.279 287.269 119.06 286.43 129.819V147.844C286.43 151.337 287.408 154.062 289.364 156.018C291.321 157.974 294.115 158.952 297.748 158.952V160H260.441V158.952C264.074 158.952 266.868 157.974 268.824 156.018C270.781 154.062 271.759 151.337 271.759 147.844V76.5821C271.759 74.2067 271.13 72.4601 269.872 71.3423C268.615 70.0847 266.938 69.456 264.842 69.456C262.746 69.456 260.371 70.1546 257.716 71.5519V70.2943ZM408.678 160H402.6L367.179 68.408C364.105 60.3037 358.935 56.2516 351.669 56.2516V55.2037H390.444V56.2516C386.811 56.2516 384.366 57.3694 383.108 59.6051C381.851 61.8408 381.92 64.7751 383.318 68.408L413.709 147.215L435.297 91.4632C440.187 78.6082 441.864 69.5258 440.327 64.2161C438.79 58.9065 433.55 56.2516 424.607 56.2516V55.2037H462.124V56.2516C454.859 56.2516 449.689 60.3037 446.615 68.408L403.648 179.702C400.854 186.688 397.78 191.579 394.426 194.373C391.212 197.307 387.02 198.775 381.851 198.775C378.637 198.775 375.353 198.216 372 197.098C368.646 196.12 365.572 194.792 362.778 193.116C359.983 191.439 357.608 189.483 355.651 187.247C353.695 185.151 352.508 182.915 352.088 180.54C354.883 178.165 357.398 176.488 359.634 175.51C362.009 174.671 364.384 174.252 366.76 174.252C370.113 174.252 372.279 175.37 373.257 177.606C374.235 179.981 374.934 182.566 375.353 185.361C375.912 188.295 376.681 190.88 377.659 193.116C378.776 195.491 381.012 196.679 384.366 196.679C387.999 196.679 391.073 195.351 393.588 192.696C396.243 190.042 398.758 185.71 401.133 179.702L408.678 160ZM461.307 97.9606C461.307 105.785 462.495 113.401 464.87 120.806C467.386 128.212 470.599 134.779 474.512 140.508C478.564 146.097 483.175 150.638 488.345 154.131C493.515 157.485 498.894 159.162 504.484 159.162C508.675 159.162 512.588 158.114 516.221 156.018C519.854 153.922 522.928 150.988 525.443 147.215C528.098 143.442 530.194 139.041 531.731 134.011C533.268 128.841 534.036 123.251 534.036 117.243C534.036 109.418 532.779 101.803 530.263 94.3975C527.888 86.9919 524.674 80.4945 520.622 74.9054C516.71 69.1765 512.169 64.6353 506.999 61.2818C501.829 57.7886 496.519 56.042 491.07 56.042C486.878 56.042 482.965 57.09 479.332 59.1859C475.699 61.2818 472.556 64.2161 469.901 67.9888C467.246 71.7615 465.15 76.2328 463.613 81.4027C462.076 86.433 461.307 91.9522 461.307 97.9606ZM499.244 161.886C492.118 161.886 485.341 160.419 478.913 157.485C472.486 154.411 466.897 150.359 462.146 145.329C457.395 140.159 453.622 134.22 450.828 127.513C448.033 120.666 446.636 113.401 446.636 105.715C446.636 98.4496 447.893 91.6728 450.409 85.385C453.063 78.9575 456.627 73.3684 461.098 68.6176C465.569 63.8668 470.809 60.164 476.817 57.5092C482.826 54.7146 489.253 53.3173 496.1 53.3173C503.226 53.3173 510.003 54.8543 516.43 57.9284C522.858 60.8627 528.447 64.9148 533.198 70.0847C537.948 75.115 541.721 81.0534 544.516 87.9001C547.31 94.6071 548.708 101.803 548.708 109.488C548.708 116.754 547.38 123.601 544.725 130.028C542.21 136.316 538.717 141.835 534.246 146.586C529.774 151.337 524.535 155.11 518.526 157.904C512.518 160.559 506.09 161.886 499.244 161.886ZM610.585 13.2851H661.516C668.223 13.2851 674.371 13.9838 679.96 15.381C685.549 16.7783 690.3 18.8044 694.212 21.4592C698.265 23.9743 701.408 27.0484 703.644 30.6813C705.88 34.1745 706.998 38.0869 706.998 42.4185C706.998 48.846 705.321 54.1557 701.967 58.3475C698.614 62.3997 694.352 66.0326 689.182 69.2464C684.152 72.3204 678.703 75.3246 672.834 78.2589C666.965 81.0534 661.446 84.5466 656.276 88.7385C651.246 92.7906 647.054 97.8208 643.701 103.829C640.347 109.698 638.67 117.243 638.67 126.465V147.844C638.67 151.477 639.648 154.271 641.605 156.227C643.561 158.044 646.355 158.952 649.988 158.952V160H610.585V158.952C614.218 158.952 617.012 158.044 618.969 156.227C620.925 154.271 621.903 151.477 621.903 147.844V25.4415C621.903 21.8086 620.925 19.0838 618.969 17.2674C617.012 15.3112 614.218 14.3331 610.585 14.3331V13.2851ZM638.67 110.746C640.347 105.017 642.722 100.266 645.796 96.4934C649.01 92.581 652.503 89.1577 656.276 86.2234C660.189 83.2891 664.101 80.6342 668.013 78.2589C672.065 75.8835 675.698 73.2286 678.912 70.2943C682.126 67.36 684.781 64.0065 686.877 60.2339C688.973 56.3215 690.021 51.5009 690.021 45.772C690.021 35.991 687.016 28.5155 681.008 23.3456C675 18.0359 666.337 15.381 655.019 15.381H638.67V110.746ZM796.896 147.844C796.896 151.337 797.874 154.062 799.831 156.018C801.787 157.974 804.581 158.952 808.214 158.952V160H782.225V112.003C779.85 127.653 775.518 139.6 769.23 147.844C763.082 155.948 755.327 160 745.965 160C741.215 160 736.813 159.231 732.761 157.694C728.709 156.018 725.146 153.782 722.072 150.988C719.137 148.053 716.832 144.63 715.155 140.717C713.478 136.805 712.64 132.543 712.64 127.932V76.5821C712.64 74.2067 712.011 72.4601 710.754 71.3423C709.496 70.0847 707.889 69.456 705.933 69.456C703.558 69.456 701.182 70.1546 698.807 71.5519V70.2943L726.264 55.2037H727.312V127.513C727.312 147.075 734.368 156.856 748.48 156.856C757.982 156.856 765.597 151.686 771.326 141.346C777.055 131.006 780.688 115.986 782.225 96.2838V76.3725L782.015 76.5821C782.015 74.2067 781.387 72.4601 780.129 71.3423C778.871 70.0847 777.265 69.456 775.308 69.456C772.933 69.456 770.558 70.1546 768.182 71.5519V70.2943L795.639 55.2037H796.687V55.4132L796.896 55.2037V147.844ZM811.376 70.2943L839.043 55.2037H840.091V87.4809C843.723 77.2807 848.404 69.3861 854.133 63.797C860.002 58.0681 866.709 55.2037 874.254 55.2037C882.358 55.2037 888.996 56.8804 894.165 60.2339C899.335 63.4476 902.34 67.9888 903.178 73.8574L884.943 86.0138C885.782 77.0712 885.013 70.2245 882.638 65.4737C880.402 60.7229 876.769 58.3475 871.739 58.3475C864.753 58.3475 858.535 61.4914 853.085 67.7792C847.776 74.067 843.444 82.8 840.091 93.9783V147.844C840.091 151.337 841.069 154.062 843.025 156.018C844.981 157.974 847.776 158.952 851.409 158.952V160H814.101V158.952C817.734 158.952 820.529 157.974 822.485 156.018C824.441 154.062 825.419 151.337 825.419 147.844V76.5821C825.419 74.2067 824.79 72.4601 823.533 71.3423C822.275 70.0847 820.598 69.456 818.502 69.456C816.407 69.456 814.031 70.1546 811.376 71.5519V70.2943ZM916.975 114.938L981.11 96.4934C977.058 68.9669 966.509 55.2037 949.462 55.2037C944.711 55.2037 940.24 56.4612 936.048 58.9763C931.996 61.3517 928.433 64.7052 925.359 69.0368C922.424 73.3684 920.119 78.5383 918.442 84.5466C916.765 90.4152 915.927 96.7729 915.927 103.62C915.927 107.253 916.276 111.025 916.975 114.938ZM900.208 107.602C900.208 100.056 901.535 93.0002 904.19 86.433C906.845 79.8657 910.478 74.1369 915.089 69.2464C919.7 64.2161 925.079 60.3037 931.227 57.5092C937.375 54.5749 943.873 53.1077 950.719 53.1077C957.147 53.1077 963.085 54.1557 968.535 56.2516C974.124 58.3475 978.875 61.2818 982.787 65.0545C986.839 68.6875 989.983 73.0889 992.219 78.2589C994.594 83.2891 995.782 88.8084 995.782 94.8167L917.394 117.033C918.652 122.902 920.608 128.282 923.263 133.172C925.918 137.923 929.201 142.045 933.114 145.538C937.026 149.031 941.358 151.756 946.108 153.712C950.999 155.668 956.169 156.647 961.618 156.647C975.871 156.647 987.747 148.752 997.249 132.963H997.668C993.756 142.185 988.167 149.381 980.901 154.551C973.635 159.581 965.321 162.096 955.959 162.096C947.995 162.096 940.589 160.769 933.742 158.114C926.896 155.319 920.957 151.477 915.927 146.586C911.037 141.696 907.194 135.967 904.399 129.399C901.605 122.693 900.208 115.427 900.208 107.602Z" fill="#6CA8EE"/>
<path d="M582.166 169.123C553.242 169.123 531.444 197.628 531.444 236.193C531.444 279.16 560.578 314.371 596.418 314.371C619.892 314.371 636.24 302.215 648.187 276.225H648.816C635.193 305.778 619.054 317.096 589.711 317.096C546.325 317.096 513 284.19 513 241.433C513 200.143 545.068 166.399 584.262 166.399C631.839 166.399 644.624 208.317 644.624 208.317C638.546 212.509 635.612 213.767 631.42 213.767C617.796 213.767 614.862 169.123 582.166 169.123ZM647.066 184.633V183.376L674.732 168.285H675.78V302.844C675.78 309.76 679.972 313.952 687.098 313.952V315H649.79V313.952C656.916 313.952 661.108 309.76 661.108 302.844V189.664C661.108 185.053 658.384 182.537 654.192 182.537C652.096 182.537 649.79 183.166 647.066 184.633ZM700.676 269.938L764.811 251.493C760.829 224.246 750.139 210.204 733.162 210.204C714.089 210.204 699.628 231.163 699.628 258.62C699.628 262.602 700.047 266.374 700.676 269.938ZM683.908 262.602C683.908 232.63 706.754 208.108 734.42 208.108C760.2 208.108 779.482 225.923 779.482 249.817L701.095 272.033C705.915 295.298 723.521 311.647 745.319 311.647C759.781 311.647 771.308 303.892 780.95 287.963H781.369C773.614 306.407 758.314 317.096 739.66 317.096C707.592 317.096 683.908 293.831 683.908 262.602ZM849.535 277.273V241.643C838.637 263.231 802.587 270.566 802.587 296.346C802.587 305.988 808.246 311.856 817.468 311.856C831.091 311.856 842.828 298.233 849.535 277.273ZM796.718 228.648C798.604 219.426 813.485 210.204 830.882 210.204C851.003 210.204 864.207 221.102 864.207 237.87V302.844C864.207 309.76 868.399 313.952 875.525 313.952V315H856.662C851.841 315 849.535 312.066 849.535 306.197V282.723C842.2 302.844 829.415 315 814.324 315C796.299 315 786.867 307.874 786.867 294.46C786.867 261.973 841.361 265.536 849.535 236.193V235.984C849.535 221.102 843.457 212.3 833.606 212.3C815.162 212.3 824.594 234.726 811.39 234.726C806.15 234.726 801.12 232.63 796.718 228.648ZM878.764 226.552V225.294L906.43 210.204H907.478V268.051C912.718 232.63 927.599 210.204 947.929 210.204C965.535 210.204 976.853 221.522 976.853 238.708V302.844C976.853 309.76 981.255 313.952 988.171 313.952V315H950.864V313.952C957.99 313.952 962.182 309.76 962.182 302.844V236.612C962.182 221.941 956.103 213.348 945.414 213.348C925.293 213.348 910.831 241.643 907.478 284.819V302.844C907.478 309.76 911.67 313.952 918.796 313.952V315H881.488V313.952C888.615 313.952 892.807 309.76 892.807 302.844V231.582C892.807 226.971 890.082 224.456 885.89 224.456C883.794 224.456 881.488 225.085 878.764 226.552ZM993.162 231.792C993.162 218.797 1007 209.156 1025.02 209.156C1052.9 209.156 1066.1 232.42 1066.1 232.42C1061.07 234.936 1058.35 235.774 1055.2 235.774C1042.63 235.774 1041.58 211.252 1022.92 211.252C1014.54 211.252 1007.83 218.168 1007.83 227.39C1007.83 253.17 1068.41 263.021 1068.41 290.058C1068.41 304.94 1053.52 316.048 1033.4 316.048C1012.44 316.048 988.551 302.005 985.198 288.172C989.599 285.867 992.743 285.028 996.516 285.028C1011.4 285.028 1011.61 313.952 1035.08 313.952C1045.98 313.952 1053.73 307.035 1053.73 297.604C1053.73 272.033 993.162 261.763 993.162 231.792ZM1081.95 182.537C1081.95 176.04 1087.19 171.01 1093.48 171.01C1099.97 171.01 1105 176.04 1105 182.537C1105 188.825 1099.97 194.065 1093.48 194.065C1087.19 194.065 1081.95 188.825 1081.95 182.537ZM1075.87 226.552V225.294L1103.54 210.204H1104.59V302.844C1104.59 309.76 1108.78 313.952 1115.9 313.952V315H1078.6V313.952C1085.72 313.952 1089.91 309.76 1089.91 302.844V231.582C1089.91 226.971 1087.19 224.456 1083 224.456C1080.9 224.456 1078.6 225.085 1075.87 226.552ZM1119.06 226.552V225.294L1146.72 210.204H1147.77V268.051C1153.01 232.63 1167.89 210.204 1188.22 210.204C1205.83 210.204 1217.15 221.522 1217.15 238.708V302.844C1217.15 309.76 1221.55 313.952 1228.47 313.952V315H1191.16V313.952C1198.28 313.952 1202.48 309.76 1202.48 302.844V236.612C1202.48 221.941 1196.4 213.348 1185.71 213.348C1165.59 213.348 1151.13 241.643 1147.77 284.819V302.844C1147.77 309.76 1151.96 313.952 1159.09 313.952V315H1121.78V313.952C1128.91 313.952 1133.1 309.76 1133.1 302.844V231.582C1133.1 226.971 1130.38 224.456 1126.18 224.456C1124.09 224.456 1121.78 225.085 1119.06 226.552ZM1252.22 246.254C1252.22 272.453 1271.5 297.394 1291.63 297.394C1306.93 297.394 1318.66 282.304 1318.66 262.183C1318.66 235.984 1299.38 211.042 1279.26 211.042C1263.96 211.042 1252.22 226.133 1252.22 246.254ZM1293.09 327.156C1277.16 321.707 1267.52 310.808 1256.2 310.808C1248.03 310.808 1242.16 318.144 1242.16 328.204C1242.16 339.313 1249.92 347.277 1260.82 347.277C1272.13 347.277 1282.19 340.989 1293.09 327.156ZM1229.59 327.995C1229.59 316.467 1239.86 307.035 1252.22 307.035C1272.97 307.035 1278.63 326.318 1306.09 326.318C1314.68 326.318 1321.81 321.497 1321.81 315.419C1321.81 306.826 1307.14 300.119 1287.01 300.119C1259.98 300.119 1237.55 278.531 1237.55 252.751C1237.55 228.019 1258.09 208.317 1283.87 208.317C1290.16 208.317 1296.24 209.365 1301.9 211.671C1303.15 211.88 1304.41 212.09 1305.67 212.09C1307.76 212.09 1310.07 211.671 1312.17 210.832C1324.74 205.173 1307.14 188.406 1319.29 182.957C1321.6 181.909 1324.53 181.489 1327.47 181.489C1330.4 181.489 1333.12 181.909 1335.22 182.747C1337.11 191.969 1327.26 206.431 1315.31 211.671C1312.58 212.928 1309.65 213.557 1306.72 213.767C1322.44 221.731 1333.33 237.66 1333.33 255.685C1333.33 275.387 1320.34 291.735 1302.1 297.813C1321.18 299.071 1334.38 306.197 1334.38 315.419C1334.38 323.593 1324.11 330.091 1311.54 330.091C1305.25 330.091 1299.59 329.043 1294.56 327.576C1285.55 340.78 1272.76 348.954 1261.02 348.954C1240.28 348.954 1229.59 341.828 1229.59 327.995ZM1542.25 243.529C1542.25 284.19 1510.39 317.096 1470.57 317.096C1430.33 317.096 1397.42 283.142 1397.42 241.433C1397.42 200.143 1429.28 166.399 1468.06 166.399C1508.3 166.399 1542.25 201.82 1542.25 243.529ZM1477.07 314.371C1504.11 314.371 1523.81 286.495 1523.81 248.559C1523.81 205.593 1496.56 169.123 1464.07 169.123C1435.15 169.123 1415.87 195.742 1415.87 236.193C1415.87 277.064 1445 314.371 1477.07 314.371ZM1554.97 182.537C1554.97 176.04 1560.21 171.01 1566.49 171.01C1572.99 171.01 1578.02 176.04 1578.02 182.537C1578.02 188.825 1572.99 194.065 1566.49 194.065C1560.21 194.065 1554.97 188.825 1554.97 182.537ZM1548.89 226.552V225.294L1576.55 210.204H1577.6V302.844C1577.6 309.76 1581.79 313.952 1588.92 313.952V315H1551.61V313.952C1558.74 313.952 1562.93 309.76 1562.93 302.844V231.582C1562.93 226.971 1560.21 224.456 1556.01 224.456C1553.92 224.456 1551.61 225.085 1548.89 226.552ZM1592.07 184.633V183.376L1619.74 168.285H1620.79V302.844C1620.79 309.76 1624.98 313.952 1632.11 313.952V315H1594.8V313.952C1601.93 313.952 1606.12 309.76 1606.12 302.844V189.664C1606.12 185.053 1603.39 182.537 1599.2 182.537C1597.11 182.537 1594.8 183.166 1592.07 184.633Z" fill="#6CA8EE"/>
</svg>
